<?xml version="1.0" encoding="UTF-8"?><svg id="a" xmlns="http://www.w3.org/2000/svg" viewBox="0 0 528.73 465.6"><defs><style>.b{fill:#2d4f39;}.c{fill:#232323;}.d{fill:#eaeaea;}.e{fill:#c4c4c4;}.f{fill:#c9c9c9;}.g{fill:#2d2d2d;}</style></defs><path class="g" d="M115.09,259.77c-1.05-2.99-1.37-5.72-.97-8.54.09-.65-.04-1.34-.14-2.01-2.36-15.86-3.44-31.84-4.26-47.83-1.02-19.96-4.56-39.48-10.17-58.65-2.15-7.36-4.11-14.78-5.08-22.41-.37-2.92-.71-5.87-.75-8.81-.22-15.56-2.26-30.92-4.87-46.22-.11-.66-.17-1.34-.32-2-1.99-8.64,1.58-15.16,8.05-20.4,6.42-5.19,13.71-8.88,21.49-11.57,18.6-6.44,37.61-11.26,57.16-13.77,8.52-1.09,17.09-1.85,25.62-2.88,12.97-1.58,25.91-3.33,38.88-4.87,4.76-.57,9.57-.95,14.36-1.04,8.34-.17,16.69-.15,25.03-.02,13.42.22,26.79-.58,40.17-1.48,18.6-1.26,37.22-1.35,55.86-1.1,23.35.31,46.7.53,70.04.63,8.87.04,17.71.19,26.47,1.64,3.89.65,7.75,1.65,11.54,2.77,3.94,1.16,7.31,3.37,10.1,6.46,4.9,5.42,8.15,11.75,10.49,18.58,2.66,7.76,4.13,15.81,5.61,23.84,3.9,21.14,6.8,42.44,9.19,63.8,1.49,13.32,3.2,26.62,4.19,39.98.76,10.32.83,20.72.7,31.08-.24,18.79-.88,37.58-1.32,56.38-.06,2.4-.41,4.6-1.7,6.74-.97,1.61-1.36,3.57-2.03,5.43.76.55,1.28.94,1.83,1.31,3.24,2.16,5.63,5.04,7.29,8.55,1.55,3.29,1.25,6.77.91,10.2-.4,4.04-1.37,7.99-3.18,11.65-2.38,4.83-4.82,9.65-7.37,14.4-.87,1.61-2.07,3.09-3.28,4.47-2.34,2.66-4.66,5.35-7.22,7.78-10.33,9.75-19.18,20.82-28.31,31.64-3.52,4.17-6.43,8.87-9.4,13.47-5.81,9.01-12.72,17.22-18.95,25.91-4.13,5.76-8.36,11.43-13.23,16.59-1.04,1.1-2.05,2.24-3.14,3.29-6.58,6.31-12.68,13.04-18.36,20.18-4.22,5.32-9.11,9.92-15.22,13.1-5.39,2.8-11.17,4.26-17.13,5.05-13.32,1.77-26.71,2.02-40.13,1.81-10.11-.16-20.24-.5-30.34-.27-12.47.28-24.92,1-37.38,1.66-17.67.93-35.34,2.02-53.02,2.93-17.93.93-35.87,1.58-53.79,2.64-8.57.51-17.1,1.76-25.65,2.58-13.93,1.33-27.87,2.52-41.87,2.67-12.39.13-24.78.49-37.17.51-9.1.02-18.2-.35-27.3-.53-5.22-.1-10.45-.13-15.67-.28-2.52-.07-5.04-.26-7.55-.51-4.07-.39-6.86-2.66-8.55-6.26-.96-2.05-1.82-4.18-2.41-6.37-.94-3.49-1.67-7.05-2.4-10.59-.37-1.8-.77-3.63.15-5.44.2-.4.1-.99.04-1.48-.63-5.06.56-9.77,3.06-14.09,4.68-8.09,9.69-16,14.31-24.13,4.16-7.33,9.41-13.77,15.2-19.81,10.6-11.05,20.05-22.97,28.3-35.87,3.45-5.39,7.02-10.72,10.7-15.96,2.95-4.21,6.17-8.22,9.21-12.36,3.26-4.43,5.95-9.16,8.1-14.24,4.36-10.27,9.9-19.91,16.08-29.19,2.41-3.62,5.33-6.73,9.53-8.72ZM130.04,268.57c-.14-.09-.28-.12-.44-.09-1.46-.36-2.96-1.14-4.37-.99-3.91.44-7.52,1.74-10.36,4.72-7.89,8.28-14.72,17.31-19.8,27.6-2.2,3.68-4.26,7.45-6.63,11.02-9.72,14.65-19.49,29.26-29.35,43.82-5.28,7.8-10.78,15.45-16.87,22.67-3.42,4.05-6.73,8.19-10,12.36-2.22,2.84-4.27,5.82-6.4,8.74-.35.36-.74.69-1.04,1.08-7.35,9.63-13.3,20.07-17.96,31.24-1.7,4.09-.28,8.02,3.74,9.95,1.72.83,3.62,1.5,5.5,1.75,4.92.65,9.87,1.2,14.83,1.47,21.01,1.13,41.93-.26,62.84-2.12,19.97-1.78,39.96-3.3,59.95-4.84,11.59-.89,23.2-1.63,34.8-2.36,12.11-.76,24.21-1.73,36.33-2.07,24.84-.7,49.7-.83,74.51-2.67,8.23-.61,16.49-1.02,24.69-1.91,13.31-1.45,26.58-3.23,39.87-4.87.33-.04.65-.16.98-.24.47-.03.94-.06,1.41-.09,6.22-.35,12.48-.35,18.65-1.12,14.13-1.76,25.67-8.34,34.26-19.78,2.73-3.63,5.23-7.45,7.75-11.23,5.92-8.91,11.78-17.86,17.7-26.77,1.54-2.31,3.06-4.66,4.83-6.8,5.58-6.75,11.32-13.38,16.91-20.12,2.47-2.98,4.84-6.05,7.05-9.23,4.9-7.06,9.69-14.2,14.48-21.33,2.77-4.12,5.5-8.28,8.2-12.45,3.25-5.02,6.47-10.06,9.67-15.11.44-.69.74-1.47,1.11-2.21.86-1.49,1.72-2.98,2.59-4.46,1.2-2.3,2.15-4.66,1.78-7.54-.94,0-1.67-.05-2.4,0-5.37.47-10.75.92-16.11,1.46-5.19.52-10.45.78-15.55,1.81-7.89,1.59-15.83,2.3-23.83,2.69-4.28.21-8.55.61-12.83.93-.81.02-1.62.05-2.43.07-2.23.14-4.46.28-6.7.42-6.88.47-13.75,1.06-20.64,1.37-11.93.54-23.88.85-35.81,1.36-16.57.71-33.14.61-49.69-.35-6.88-.4-13.76-.88-20.65-1.33-.99-.16-1.98-.37-2.97-.47-4.35-.45-8.71-.93-13.07-1.29-9.73-.8-19.46-1.74-29.2-2.26-11.52-.62-23.05-.82-34.58-1.26-15.08-.58-30.13,0-45.18,1.05-9.07.64-18.15,1.13-27.23,1.49-7.5.3-14.97-.11-22.34-1.72ZM470.06,264.02c3.74-.62,7.5-1.11,11.2-1.89,9.72-2.06,19.42-4.25,29.12-6.4.63-.14,1.23-.44,1.63-.59-.09-3.49-.34-6.77-.21-10.03.5-12.97,1.11-25.93,1.71-38.9.55-11.8.7-23.59.04-35.38-.57-10.18-1.37-20.35-2.02-30.52-1-15.56-2.1-31.11-4.04-46.59-2.1-16.81-4.81-33.53-8.21-50.12-1.31-6.4-3.64-12.41-6.86-18.12-3.21-5.68-7.72-9.35-14.16-10.86-8.94-2.09-17.98-2.76-27.11-2.52-7.32.19-14.64.6-21.96.92-11.36.5-22.72,1.13-34.09,1.47-20.89.63-41.79,1.16-62.69,1.59-12.64.26-25.28.38-37.92.31-6.9-.04-13.82-1-20.71-.83-11.2.28-22.38,1.07-33.57,1.78-10.76.69-21.51,1.66-32.27,2.32-10.52.64-20.98,1.59-31.37,3.57-17.39,3.31-34.65,7.16-51.81,11.49-4.88,1.23-9.45,3.08-13.78,5.55-4.25,2.42-8.43,4.95-11.86,8.54-3.33,3.49-5.2,7.43-4.1,12.38.22.98.24,2.01.38,3.01,1.83,13.79,3.48,27.6,3.73,41.52.18,10.13,2,19.91,4.68,29.61,2.15,7.79,4.32,15.6,5.95,23.51,4.26,20.65,7.3,41.49,8.25,62.59.42,9.34.56,18.7,1.15,28.03.44,6.93,1.47,8.99,8.12,11.13,5.56,1.79,11.23,3.16,17.06,3.37,9.6.36,19.21.62,28.81.58,11.12-.04,22.24-.63,33.36-.62,13.15.02,26.29.39,39.44.67,22.83.49,45.67.92,68.5,1.57,18.3.52,36.57.2,54.85-.69,4.88-.01,9.77-.04,14.65-.03,17.27.02,34.54.19,51.81.04,10.53-.09,21.05-.63,31.58-1,.91-.03,1.81-.29,2.72-.44ZM517.91,272.17c-.35.66-.58,1.07-.79,1.5-1.31,2.64-2.43,5.39-3.95,7.9-4.07,6.69-8.14,13.4-12.54,19.89-5.72,8.44-11.92,16.55-17.59,25.02-6.42,9.58-14.21,17.95-21.94,26.42-3.52,3.86-7.13,7.69-10.17,11.91-6.34,8.82-12.34,17.9-18.47,26.87-3.47,5.08-6.73,10.31-10.44,15.21-6.26,8.27-14.01,14.8-23.71,18.75-6.51,2.65-13.25,4.44-20.24,5.3-5.85.72-11.72,1.42-17.54,2.32-14.59,2.27-29.21,4.09-44,4.18-26.64.17-53.27.28-79.91.51-11.12.1-22.26.15-33.37.73-16.07.83-32.13,2.04-48.18,3.23-22.78,1.69-45.55,3.42-68.31,5.31-16.49,1.37-32.98,1.88-49.51,1.3-6.06-.21-12.13-.44-18.17-1.01-3.32-.31-6.57-1.34-9.86-2.04-.44-.09-.88-.2-1.7-.39,1.27,4.25,2.56,8.07,4.9,11.4.68.96,1.86,1.83,2.98,2.15,2.49.72,5.07,1.32,7.65,1.53,13.03,1.01,26.07,1.72,39.15,1.57,12.9-.14,25.79-.39,38.68-.5,14.09-.12,28.14-1.02,42.1-2.89,16.22-2.17,32.48-3.75,48.81-4.63,18.26-.99,36.55-1.55,54.81-2.6,15.65-.89,31.27-2.28,46.91-3.31,9.25-.61,18.5-1.14,27.76-1.38,8.17-.21,16.35.06,24.53.05,13.49-.01,26.96-.44,40.34-2.41,10.93-1.61,19.76-6.61,26.87-15.11,5.35-6.39,11.21-12.36,16.8-18.54,4.07-4.5,8.46-8.77,12.06-13.62,7.78-10.49,15.17-21.27,22.66-31.97,4.35-6.21,8.22-12.74,13.27-18.46,4.06-4.61,7.8-9.51,11.72-14.26,2.84-3.44,5.64-6.91,8.6-10.24,3.3-3.72,6.83-7.23,10.13-10.95,1.5-1.69,2.99-3.51,3.96-5.52,2.38-4.93,4.61-9.94,6.61-15.03,1.45-3.68,2.3-7.57,2.25-11.6-.04-2.61-1.34-4.56-3.14-6.6Z"/><path class="b" d="M474.4,392.37c-.23.38-.52,1-.94,1.5-2.19,2.55-4.29,5.21-6.67,7.58-10.15,10.11-20.34,20.17-30.6,30.15-3.44,3.35-7.14,6.42-10.72,9.62-.06.06-.13.11-.2.16-1.37,1.05-2.23,1.2-2.88.4-.96-1.19-.06-2.03.66-2.84,6.01-6.72,11.98-13.48,18.07-20.12,7.42-8.09,15.69-15.27,24.21-22.17,1.96-1.59,3.9-3.21,5.87-4.8.45-.36.93-.75,1.47-.95.91-.33,1.78.32,1.73,1.46Z"/><path class="b" d="M86.28,30.89c-.41-.25-.93-.38-1.05-.68-.17-.41-.24-1.09,0-1.39.46-.57,1.12-1,1.75-1.41,5.29-3.51,11.06-6.11,16.87-8.57,13.26-5.61,26.59-11.04,39.9-16.54.62-.26,1.25-.55,1.9-.67.33-.06.96.19,1.03.43.12.4.06,1.06-.21,1.31-.47.45-1.13.72-1.74.99-11.97,5.4-23.96,10.76-35.93,16.18-6.75,3.05-13.46,6.19-20.19,9.29-.76.35-1.52.69-2.32,1.06Z"/><path class="b" d="M468.37,410.69c1.47-.09,2.35.79,2.14,1.89-.1.54-.43,1.09-.78,1.54-5.71,7.27-12.43,13.5-19.72,19.14-.39.31-.86.75-1.28.74-.68,0-1.54-.16-1.97-.6-.33-.34-.2-1.22-.14-1.84.03-.28.34-.58.58-.8,6.69-6.17,12.46-13.29,19.59-19,.58-.46,1.22-.84,1.57-1.08Z"/><path class="b" d="M92.6,17.22c-.39-.31-.93-.54-1.08-.92-.15-.39-.06-1.08.22-1.36.52-.52,1.23-.86,1.89-1.22,6.76-3.65,13.84-6.57,21.13-8.99,4.32-1.43,8.63-2.88,12.94-4.32.48-.16.96-.41,1.45-.42.44,0,.88.26,1.33.41-.22.48-.34,1.05-.69,1.4-.33.33-.9.42-1.37.61-11.2,4.65-22.4,9.3-33.6,13.95-.69.29-1.4.54-2.21.85Z"/><path class="f" d="M517.91,272.17c1.81,2.04,3.11,3.99,3.14,6.6.06,4.03-.8,7.91-2.25,11.6-2.01,5.09-4.23,10.1-6.61,15.03-.97,2.01-2.46,3.83-3.96,5.52-3.3,3.72-6.82,7.24-10.13,10.95-2.96,3.33-5.77,6.8-8.6,10.24-3.91,4.75-7.65,9.65-11.72,14.26-5.05,5.73-8.92,12.26-13.27,18.46-7.49,10.7-14.88,21.48-22.66,31.97-3.6,4.85-7.99,9.12-12.06,13.62-5.6,6.18-11.46,12.15-16.8,18.54-7.11,8.5-15.94,13.51-26.87,15.11-13.38,1.97-26.85,2.4-40.34,2.41-8.18,0-16.36-.27-24.53-.05-9.26.24-18.52.77-27.76,1.38-15.64,1.03-31.26,2.41-46.91,3.31-18.26,1.04-36.54,1.61-54.81,2.6-16.33.88-32.59,2.46-48.81,4.63-13.95,1.87-28,2.77-42.1,2.89-12.9.11-25.79.36-38.68.5-13.07.15-26.12-.56-39.15-1.57-2.58-.2-5.16-.81-7.65-1.53-1.12-.32-2.31-1.19-2.98-2.15-2.34-3.33-3.62-7.15-4.9-11.4.82.19,1.26.3,1.7.39,3.28.7,6.54,1.73,9.86,2.04,6.04.57,12.11.8,18.17,1.01,16.53.58,33.02.07,49.51-1.3,22.76-1.89,45.53-3.62,68.31-5.31,16.05-1.19,32.11-2.4,48.18-3.23,11.11-.57,22.24-.63,33.37-.73,26.63-.23,53.27-.34,79.91-.51,14.79-.09,29.42-1.91,44-4.18,5.83-.91,11.69-1.6,17.54-2.32,6.99-.86,13.73-2.66,20.24-5.3,9.71-3.95,17.46-10.48,23.71-18.75,3.71-4.9,6.97-10.13,10.44-15.21,6.13-8.97,12.13-18.05,18.47-26.87,3.04-4.22,6.65-8.05,10.17-11.91,7.73-8.47,15.52-16.85,21.94-26.42,5.68-8.47,11.88-16.58,17.59-25.02,4.39-6.48,8.47-13.19,12.54-19.89,1.52-2.51,2.64-5.26,3.95-7.9.21-.42.44-.84.79-1.5Z"/><path class="f" d="M25.83,398.43c-1.45,3.95-2.85,7.92-4.36,11.84-1.73,4.48-3.55,8.93-5.37,13.37-1.01,2.46-1.54,4.96-1.36,7.63.24,3.67,1.64,5.67,5.28,6.4,3.29.66,6.66,1.12,10.01,1.24,9.43.32,18.87.24,28.29.66,7.5.34,14.97-.16,22.46-.23,5.79-.05,11.58-.74,17.36-1.32,10.05-.99,20.09-2.09,30.13-3.19,6.61-.73,13.2-1.64,19.81-2.31,6.61-.67,13.24-1.2,19.87-1.64,1.56-.1,3.15.37,4.73.58,1.08.14,2.17.42,3.24.38,2.86-.11,5.71-.36,8.56-.56,7.05-.49,14.1-.99,21.15-1.48,6.63-.47,13.25-1.04,19.89-1.38,6.64-.34,13.29-.52,19.94-.62,14.4-.22,28.81-.21,43.21-.58,5.71-.15,11.41-.92,17.08-1.64,10.69-1.36,21.38-2.78,32.03-4.39,11.58-1.75,23.15-3.77,34.26-7.59,6.2-2.13,12.22-4.82,18.24-7.45,3.78-1.65,7.42-3.6,11.07-5.52,1.01-.53,1.97-1.31,2.7-2.19,4.04-4.85,7.88-9.88,12.04-14.62,4.5-5.12,9.16-10.12,13.97-14.94,10.21-10.22,19.42-21.25,27.61-33.14,6.79-9.86,14.22-19.22,22.03-28.3,4.94-5.75,9.64-11.7,14.44-17.57,3.9-4.77,8.11-9.23,12.74-13.29-.37.74-.67,1.52-1.11,2.21-3.21,5.05-6.42,10.09-9.67,15.11-2.7,4.17-5.43,8.33-8.2,12.45-4.8,7.13-9.58,14.27-14.48,21.33-2.21,3.18-4.58,6.25-7.05,9.23-5.59,6.75-11.32,13.37-16.91,20.12-1.77,2.14-3.29,4.48-4.83,6.8-5.92,8.91-11.78,17.86-17.7,26.77-2.52,3.79-5.02,7.6-7.75,11.23-8.6,11.44-20.13,18.02-34.26,19.78-6.17.77-12.43.77-18.65,1.12,1.42-.65,2.84-1.29,4.25-1.94-.07-.15-.14-.31-.2-.46-1.8.6-3.59,1.18-5.38,1.82-.09.03-.06.44-.08.67-.33.08-.65.2-.98.24-13.29,1.65-26.56,3.42-39.87,4.87-8.2.89-16.46,1.3-24.69,1.91-24.8,1.83-49.66,1.97-74.51,2.67-12.12.34-24.22,1.31-36.33,2.07-11.6.73-23.21,1.47-34.8,2.36-19.99,1.54-39.98,3.06-59.95,4.84-20.92,1.87-41.84,3.25-62.84,2.12-4.96-.27-9.9-.82-14.83-1.47-1.88-.25-3.78-.92-5.5-1.75-4.02-1.94-5.44-5.87-3.74-9.95,4.66-11.17,10.62-21.61,17.96-31.24.3-.39.69-.72,1.04-1.08Z"/><path class="f" d="M304.61,273.03c-.67.05-1.34.14-2.01.14-28.07-.02-56.14-.12-84.21-.06-17.27.04-34.55.12-51.82.58-9.15.25-18.36.28-27.44,1.89-10.37,1.83-20,5.39-28.4,11.89-4.8,3.71-9.49,7.55-14.23,11.33-.46.37-.95.68-1.43,1.02,5.08-10.29,11.91-19.32,19.8-27.6,2.84-2.98,6.45-4.28,10.36-4.72,1.4-.16,2.91.63,4.37.99-1.14.21-2.59-.29-3.26,1.57,1.52-.14,2.75-.41,3.7-1.49,7.37,1.6,14.84,2.02,22.34,1.72,9.08-.36,18.17-.85,27.23-1.49,15.05-1.06,30.09-1.63,45.18-1.05,11.53.44,23.06.65,34.58,1.26,9.75.52,19.47,1.45,29.2,2.26,4.36.36,8.71.84,13.07,1.29,1,.1,1.98.31,2.97.47Z"/><path class="f" d="M509.47,272.13c-.42-1.07-1.25-.86-2.11-.72-3.07.5-6.13,1.13-9.21,1.39-7.95.68-15.92,1.26-23.9.4-.92-.1-1.85-.07-2.77-.12-5.95-.31-11.91-.64-17.86-.95-4.36-.23-8.72-.44-13.08-.65,4.28-.31,8.55-.72,12.83-.93,8-.39,15.94-1.1,23.83-2.69,5.1-1.02,10.36-1.29,15.55-1.81,5.37-.54,10.74-.99,16.11-1.46.73-.06,1.47,0,2.4,0,.36,2.88-.58,5.24-1.78,7.54Z"/><path class="e" d="M369.3,265.44c1.07-.16,2.14-.45,3.21-.45,10.52-.03,21.04.07,31.56-.05,4.45-.05,8.89-.54,13.33-.84.5-.03,1.01-.1,1.51-.12,6.89-.2,13.78-.55,20.68-.54,7.64,0,15.28.36,22.92.53,2.52.06,5.04.03,7.56.04-.91.15-1.81.4-2.72.44-10.53.37-21.05.91-31.58,1-17.27.14-34.54-.02-51.81-.04-4.88,0-9.77.02-14.65.03Z"/><path class="d" d="M364.87,422.84c.02-.23-.01-.64.08-.67,1.78-.63,3.58-1.22,5.38-1.82.07.15.14.31.2.46-1.42.65-2.84,1.29-4.25,1.94-.47.03-.94.06-1.41.09Z"/><path class="f" d="M438.1,271.55c-2.23.14-4.46.28-6.7.42,2.23-.14,4.46-.28,6.7-.42Z"/><path class="c" d="M89.58,336.82c1.21-.36,1.8-1.85,2.58-3.25,5.55-9.92,11.08-19.86,16.76-29.72,2.32-4.03,5.4-7.55,8.84-10.68,1.39-1.26,3.17-2.28,4.94-2.9,6.24-2.16,12.72-3.39,19.27-4,15.35-1.44,30.71-2.96,46.1-3.91,30.2-1.87,60.42-3.43,90.71-2.96,6.62.1,13.23.36,19.85.6,6.57.23,13.14.51,19.7.93,19.61,1.23,39.24,1.47,58.89,1.18,16.86-.25,33.72-.21,50.57-.43,9.01-.12,18.03-.5,27.04-.8,2.72-.09,5.39.1,7.98.99,3.97,1.37,5.51,4.03,4.28,8.07-.68,2.22-1.75,4.39-2.98,6.37-5.01,8.04-11.13,15.24-17.31,22.38-8.16,9.44-16.6,18.63-25.62,27.27-3.47,3.32-7.13,6.44-10.7,9.65-.67.6-1.33,1.1-1.51,2.19-.12.72-1,1.5-1.74,1.9-2.26,1.22-4.75,1.76-7.3,1.81-5.81.11-11.63.2-17.44.15-3.86-.04-7.72-.34-11.58-.51-.59-.03-1.26-.15-1.75.07-3.1,1.43-6.44,1.33-9.67,1.23-13.81-.41-27.65-.28-41.42-1.72-2.08-.22-4.21-.01-6.31.06-6.31.22-12.63.74-18.94.67-22.5-.23-45.01-.61-67.51-1.04-5.39-.1-10.77-.58-16.16-.91-8.19-.5-16.34.17-24.5.62-11.02.6-22.04,1.31-33.06,1.96-3.36.2-6.73.63-10.08.51-12.67-.46-25.19,1.85-37.82,1.92-4.97.03-9.95.05-14.92,0-1.07-.01-2.2-.2-3.2-.57-2.56-.94-2.99-1.76-2.88-4.53.16-3.74.93-7.35,2.31-10.82.97-2.43,2.09-4.79,3.06-7.21.54-1.36.93-2.78,1.52-4.56ZM326.14,335.17c-1.42-.11-2.16-.18-2.9-.21-3.7-.18-7.41-.36-11.11-.53-7.99-.37-15.98-.84-23.97-1.08-12.71-.38-25.43-.69-38.14-.86-8.24-.11-16.48-.74-24.71.21-.5.06-1.01,0-1.51-.04-1.59-.11-3.17-.36-4.75-.33-3.53.07-7.06.28-10.59.43-5.47.23-10.94.46-16.41.71-1.17.05-2.33.19-3.66.31-2.9,7.39-5.78,14.7-8.78,22.35,2.16-.13,3.92-.26,5.67-.32,7.32-.27,14.64-.52,21.97-.79,1.51-.05,3.02-.14,4.53-.22,7.31-.37,14.63-1.1,21.94-1.01,8.83.11,17.65,1.1,26.49,1.36,10.52.31,21.06.4,31.59.32,7.49-.05,14.99-.79,22.47.01,1.48.16,2.41-.35,3.02-1.65,2.88-6.07,5.77-12.14,8.87-18.66ZM294.8,330.3c3.95-9.26,7.76-18.19,11.57-27.13-.37-.13-.52-.22-.68-.23-9.76-.3-19.53-.57-29.29-.89-1.56-.05-2.44.5-3.08,1.95-3.44,7.78-6.97,15.51-10.46,23.27-.25.57-.36,1.2-.62,2.08,11.05.32,21.8.64,32.56.95ZM331.49,331.36c1.47.07,2.45.16,3.44.15,9.09-.03,18.18-.12,27.27-.07,1.68,0,2.56-.54,3.29-2.04,3.29-6.82,6.71-13.58,10.08-20.36.29-.58.49-1.21.79-1.93-.46-.11-.76-.24-1.07-.26-9.75-.48-19.5-.93-29.25-1.46-1.33-.07-1.95.48-2.51,1.56-3.07,5.9-6.25,11.74-9.27,17.66-1.03,2.01-1.72,4.18-2.75,6.75ZM428.15,332.31c7.53-8.63,15.2-16.82,22.43-26.13-2.4,0-4.23-.08-6.04.01-9.49.49-18.98,1.05-28.48,1.49-1.59.08-2.56.6-3.44,1.98-4.25,6.67-8.64,13.25-12.97,19.87-.4.61-.75,1.25-1.17,1.96.4.15.61.31.83.31,6.47.06,12.95.15,19.42.12,3.09-.02,6.2-.74,9.41.39ZM310.72,303.19c-4.17,9.07-8.65,17.72-12.13,27.31,9.71.3,19.1.59,28.33.87,2.23-3.21,12.61-24.55,12.78-26.26-9.57-.63-19.13-1.27-28.99-1.92ZM269.53,302.44c-.46-.06-.86-.19-1.25-.17-9.32.53-18.64,1.1-27.96,1.6-1.23.07-1.72.69-2.15,1.72-3.05,7.29-6.16,14.56-9.23,21.84-.17.41-.16.9-.27,1.6h30.01c3.59-8.8,7.19-17.63,10.84-26.59ZM189.98,330.17c1.04,0,1.61.02,2.19,0,10.09-.36,20.18-.77,30.27-1.05,1.56-.04,2.21-.67,2.71-2.01,2.63-7.01,5.32-13.99,7.98-21,.16-.42.15-.9.23-1.41-.43-.05-.67-.13-.91-.11-10.13.99-20.26,2.02-30.39,2.97-1.42.13-2.02.89-2.55,2.04-2.43,5.27-4.92,10.51-7.38,15.77-.67,1.43-1.3,2.89-2.15,4.79ZM152.15,335.66c-.99,0-1.66-.03-2.32,0-9,.51-17.99,1.06-27,1.53-1.31.07-1.92.68-2.44,1.76-2.8,5.85-5.65,11.67-8.46,17.52-.28.58-.41,1.22-.69,2.08,10.94-.15,21.62-.3,32.19-.45,2.9-7.48,5.72-14.76,8.7-22.44ZM351.37,355.6c3.01-4.29,9.98-17.7,10.26-19.83-10.58-.18-21.14-.35-31.72-.53-3.24,6.86-6.42,13.58-9.75,20.61,3.29.2,6.22.59,9.13.52,7.36-.15,14.72-.51,22.08-.78ZM368.93,331.24c.91.07,1.32.12,1.73.13,6.98.12,13.96.18,20.94.37,1.52.04,2.47-.39,3.29-1.69,4.28-6.85,8.65-13.64,12.96-20.46.28-.44.39-.98.65-1.67-9.25-.29-18.23-.58-27.31-.87-4.06,8.01-8.07,15.93-12.27,24.2ZM416.4,303.8c.65.15.9.27,1.13.25,4.54-.29,9.09-.47,13.61-.94,5.79-.6,11.62-1.55,17.37-.61,3.9.64,6.12-.54,7.93-3.76,1.57-2.78,3.6-5.31,5.13-8.11,1.65-3.02,1.03-4.01-2.45-4.4-2.09-.24-4.2-.35-6.3-.34-7.67.02-15.34.15-23,.14-1.5,0-2.46.42-3.28,1.74-2.74,4.44-5.62,8.81-8.44,13.21-.53.83-1.03,1.69-1.71,2.81ZM157.21,335.29c-2.56,5.13-8.54,20.64-8.63,22.38.33.02.66.06.98.05,7.99-.4,15.97-.88,23.96-1.16,1.82-.06,2.73-.74,3.34-2.34,2.46-6.45,4.98-12.87,7.47-19.3.08-.21.05-.48.09-1.02-9.13.47-18.16.93-27.21,1.39ZM163.67,311.06c-4.17.33-7.85.63-11.53.91-5.62.43-11.25.84-16.87,1.25-1.22.09-2.17.31-2.81,1.64-2.71,5.61-5.56,11.14-8.35,16.72-.24.49-.35,1.05-.58,1.78.8,0,1.38.02,1.96,0,8.92-.4,17.83-.84,26.75-1.16,1.49-.05,1.98-.83,2.51-1.98,2.66-5.72,5.38-11.41,8.08-17.12.24-.51.44-1.05.86-2.03ZM158.57,331.65c.68.06,1.01.13,1.34.12,8.25-.38,16.49-.81,24.74-1.14,1.4-.06,1.84-.88,2.31-1.92,2.86-6.29,5.76-12.56,8.62-18.84.19-.41.22-.89.36-1.52-.62,0-1.03-.03-1.44,0-8.39.73-16.78,1.49-25.18,2.17-1.35.11-1.87.86-2.35,1.91-2.48,5.53-5,11.05-7.49,16.58-.34.75-.55,1.56-.93,2.63ZM135.32,308.84c.72.08.96.14,1.21.13,9.32-.7,18.64-1.43,27.96-2.1,1.28-.09,1.96-.71,2.45-1.8,1.58-3.53,3.23-7.04,4.8-10.58,1.01-2.29,1.93-4.61,3.08-7.38-10.01.63-19.52,1.53-28.88,2.61-3.64,6.37-7.52,12.37-10.62,19.12ZM382.92,303.55c.63.12.95.23,1.27.24,8.26.19,16.51.34,24.77.56,1.49.04,2.46-.4,3.31-1.72,3.34-5.16,6.81-10.24,10.22-15.36.17-.25.22-.57.41-1.09h-32.61c-2.47,5.83-4.86,11.47-7.36,17.37ZM202.63,303.5c2.38-.21,4.29-.37,6.21-.55,8.05-.74,16.1-1.53,24.15-2.21,1.69-.14,2.73-.7,3.33-2.41.85-2.46,1.96-4.84,3.02-7.22,1.05-2.35,2.18-4.67,3.34-7.14-.53-.07-.85-.17-1.16-.15-9.67.44-19.35.92-29.02,1.32-1.35.06-1.87.74-2.36,1.82-2.15,4.76-4.37,9.48-6.55,14.22-.27.59-.49,1.21-.94,2.32ZM382.6,356.18c.79.14,1.09.23,1.4.24,5.05.1,10.1.1,15.14.32,3.18.14,5.64-1.12,8.01-3.05,6.09-4.96,11.56-10.53,16.69-16.45.35-.4.58-.89.91-1.4-.38-.09-.55-.17-.7-.16-9.06.93-18.14.91-27.22.61-1.36-.05-2.17.44-2.87,1.56-3.1,5-6.27,9.96-9.4,14.95-.62.99-1.17,2.01-1.96,3.38ZM378.27,303.52c2.76-5.71,5.51-11.24,7.77-17.06-3.42,0-6.53,0-9.63,0-6.73.02-13.46.12-20.18.04-1.7-.02-2.55.56-3.27,2.06-1.84,3.87-3.87,7.65-5.81,11.48-.26.51-.43,1.06-.77,1.92,10.74.89,21.27,1.42,31.9,1.56ZM170.03,306.32c1.66-.12,2.98-.21,4.29-.32,7.37-.64,14.74-1.31,22.12-1.9,1.43-.11,2.23-.67,2.83-2,2.19-4.82,4.51-9.59,6.76-14.38.29-.62.48-1.29.73-1.95-.45-.13-.62-.22-.77-.21-8.57.39-17.14.82-25.71,1.16-1.23.05-1.77.62-2.22,1.63-2.12,4.76-4.3,9.5-6.44,14.25-.51,1.13-.97,2.27-1.59,3.72ZM240.65,299.73c.6.09.92.19,1.24.18,9.49-.4,18.99-.83,28.48-1.2,1.12-.04,1.65-.59,2.07-1.49,1.9-4.03,3.83-8.04,5.73-12.08.23-.5.3-1.07.5-1.84-10.94-.2-21.64.11-32.1.39-2.06,5.58-3.97,10.76-5.92,16.05ZM276.22,298.25c.49.17.65.27.81.28,9.92.32,19.85.61,29.77.96,1.25.04,1.76-.55,2.26-1.54,1.87-3.77,3.82-7.49,5.73-11.24.29-.57.54-1.17,1-2.17-11.32-.45-22.29-.88-33.16-1.31-2.22,5.21-4.29,10.06-6.41,15.03ZM390.47,336.36c-.6-.09-.99-.2-1.39-.21-7.07-.14-14.14-.23-21.21-.41-1.22-.03-1.82.5-2.35,1.46-3.23,5.81-6.51,11.6-9.75,17.4-.22.4-.34.86-.57,1.45.62.1,1.02.23,1.41.23,6.73.04,13.47.04,20.2.13,1.29.02,1.96-.55,2.57-1.58,3.43-5.69,6.93-11.35,10.39-17.03.25-.41.41-.87.69-1.45ZM312.49,299.69c10.03.7,19.67,1.38,29.41,2.06,2.68-5.03,5.3-9.97,8.05-15.14-.95-.12-1.58-.24-2.23-.27-3.11-.13-6.23-.21-9.34-.37-5.63-.29-11.27-.57-16.89-.96-1.58-.11-2.43.38-3.09,1.84-1.58,3.53-3.34,6.98-5.01,10.48-.31.66-.53,1.37-.91,2.35ZM117.38,337.93c-.47-.15-.63-.26-.79-.25-6.71.4-13.42.83-20.13,1.21-1,.06-1.49.62-1.88,1.42-2.69,5.42-5.39,10.84-6.72,16.81-.19.87-.23,1.77-.39,3.02,1.26,0,2.24.06,3.21-.01,4.94-.38,9.88-.86,14.83-1.16,1.51-.09,2.2-.78,2.8-2.04,2.74-5.77,5.55-11.5,8.33-17.25.25-.52.45-1.05.74-1.74ZM129.01,314.01c-.63-.07-1.04-.17-1.44-.14-5.95.43-11.9.9-17.86,1.28-1.21.08-1.76.72-2.28,1.65-3.04,5.52-6.11,11.03-9.16,16.55-.29.53-.44,1.13-.75,1.96,1.93-.19,3.51-.37,5.09-.48,5.03-.36,10.06-.71,15.09-1.03,1.04-.07,1.92-.16,2.47-1.3,2.64-5.44,5.36-10.85,8.03-16.27.32-.65.5-1.37.8-2.2ZM110.64,311.15c.88,0,1.36.04,1.83,0,5.53-.53,11.05-1.13,16.58-1.56,1.59-.12,2.34-.78,2.93-2.17,2.36-5.51,5.41-10.64,8.73-15.62.26-.39.43-.84.78-1.55-6.54.96-12.74,2.07-18.68,4.21-1.1.39-2.12,1.39-2.83,2.36-1.94,2.64-3.73,5.4-5.52,8.14-1.27,1.94-2.44,3.95-3.82,6.18Z"/><path class="c" d="M250.05,369.85c15.33-.42,30.65-.85,45.98-1.24,3.54-.09,7.08,0,10.61,0,.58,0,1.23.08,1.73-.14,1.37-.62,2.11,0,3,.99.99,1.09,1.15,1.91.15,3.04-.43.48-.63,1.19-.87,1.81-1.56,4.1-3.4,8.05-5.46,11.93-1.21,2.27-1.79,4.89-2.55,7.38-1.13,3.7-2.14,7.44-3.26,11.15-.83,2.77-2.12,5.31-3.95,7.57-2.51,3.1-5.74,5.01-9.68,5.37-11.91,1.1-23.82,2.23-35.75,3.06-28.85,1.99-57.76,1.86-86.65,1.88-2.27,0-4.55-.09-6.81-.33-3.31-.36-4.52-2.26-3.12-5.28,5.76-12.45,11.08-25.14,18.99-36.48.58-.83,1.19-1.64,1.8-2.44,2.58-3.33,5.99-5.12,10.18-5.32,21.88-1.06,43.75-2.1,65.63-3.14,0,.07,0,.13,0,.2ZM306.34,372.27c-2.44,0-4.28-.04-6.12,0-17.78.45-35.56.89-53.34,1.39-10.03.29-20.05.58-30.07,1.09-9.98.51-20.01.28-29.93,2.08-3.98.72-7.31,1.93-9.46,5.45-3.59,5.9-7.14,11.82-10.7,17.74-.2.34-.26.76-.42,1.24,42.72-2.62,85.32-3.25,127.99-2.75.59-1.65,1.16-3.14,1.67-4.65,1.62-4.81,3.6-9.41,6.46-13.67,1.52-2.27,2.46-4.93,3.92-7.94ZM218.03,417.58c1.24,0,1.88.03,2.53,0,14.47-.8,28.94-1.53,43.4-2.46,7.42-.48,14.66-2.02,21.73-4.41,4.28-1.45,6.09-4.63,7.22-8.64-6.44-.72-60.42.07-64.2.9-3.48,4.77-6.93,9.49-10.68,14.62ZM156.65,418.99c2.15,0,3.81.04,5.47,0,9.09-.23,18.18-.51,27.28-.72,7.32-.17,14.65-.31,21.98-.39,1.57-.02,2.52-.48,3.44-1.9,2.51-3.88,5.32-7.57,8-11.34.32-.44.6-.91,1.06-1.6-1.14,0-1.97-.03-2.8,0-8.84.34-17.67.65-26.51,1.05-9.84.45-19.68,1-29.51,1.48-.85.04-1.4.29-1.8,1.07-2.07,3.94-4.18,7.86-6.59,12.37Z"/><path class="f" d="M357.65,409.93c-.32-.23-1.02-.49-1.12-.89-.11-.42.24-1.16.62-1.44.66-.49,1.48-.78,2.26-1.09,7.13-2.8,14.31-5.51,21.4-8.41,5.77-2.36,11.47-4.88,16.74-8.27.62-.4,1.36-.72,2.08-.81,1.03-.13,1.59.85.92,1.66-.8.96-1.76,1.81-2.72,2.62-4.41,3.65-9.53,6.1-14.81,8.07-7.88,2.94-15.92,5.48-23.89,8.19-.4.13-.81.21-1.48.38Z"/><path class="c" d="M309.45,251.72c-26.37-.09-51.82.21-77.27.95-20.56.59-41.11,1.18-61.68,1.51-7.66.12-15.32-.45-22.98-.83-1.74-.09-3.48-.6-5.19-1.02-1.14-.28-2.2-.71-2.85-1.9-.29-.54-1.01-.86-1.56-1.23-4.88-3.29-8.08-7.77-9.76-13.41-1.6-5.37-2.17-10.89-2.66-16.44-.98-11.08-1.75-22.18-3.06-33.22-.81-6.84-2.32-13.61-3.74-20.37-1.83-8.74-3.88-17.43-5.86-26.14-.5-2.22-.99-4.45-1.69-6.61-3.34-10.31-5.27-20.89-6.49-31.64-.85-7.45-1.93-14.88-1.82-22.41.04-2.61.19-5.23.49-7.82.65-5.55,3.54-9.92,7.55-13.62.74-.68,1.62-1.21,2.4-1.85,3.9-3.24,8.26-4.59,13.43-4.83,21.63-1.02,43.25-2.48,64.87-3.74,13.29-.77,26.59-1.47,39.89-2.22,19.44-1.1,38.87-2.22,58.31-3.32,13.38-.75,26.76-1.46,40.14-2.22,13.21-.75,26.42-1.55,39.63-2.32,12.79-.75,25.58-1.47,38.37-2.23,15.31-.91,30.62-1.89,45.93-2.76,4.37-.25,8.76-.16,13.14-.31,2.61-.09,5.26-.08,7.8-.58,3.1-.61,5.24.68,7.13,2.75,2.77,3.02,4.66,6.58,6.17,10.37,2.78,6.97,3.68,14.31,4.6,21.68,1.08,8.73,1.02,17.49,1.45,26.23.2,4.12.81,8.22,1.08,12.34.59,8.91,1.06,17.83,1.61,26.75.69,11.27,1.15,22.55,1.02,33.85-.09,7.83.59,15.67.45,23.5-.22,11.88-.85,23.75-1.31,35.62-.04,1.09-.21,2.19-.17,3.28.14,4.74-1.45,8.92-3.98,12.83-1.37,2.11-3.08,3.8-5.4,4.78-1.13.48-1.89,1.2-2.57,2.25-1.39,2.15-3.64,3.2-5.99,3.97-4.67,1.54-9.51,2.34-14.4,2.5-9.85.31-19.71.62-29.57.64-21.83.04-43.67.09-65.49-.24-13.39-.2-26.78-1.11-40.16-1.7-6.9-.3-13.81-.58-19.81-.84ZM215.88,225.04c.71-.89,1.21-1.41,1.57-2,1.19-1.94,2.33-3.91,3.48-5.87,21-35.84,41.17-72.15,61.09-108.6,6.79-12.42,13.39-24.94,20.08-37.41.36-.67.7-1.34,1.03-2.03.32-.67.89-1.52.01-2.01-1.07-.59-1.39.53-1.83,1.2-.23.35-.39.74-.6,1.11-7.91,14.4-15.73,28.85-23.74,43.18-17.26,30.89-34.64,61.71-51.93,92.58-2.96,5.29-5.78,10.66-8.6,16.03-.5.95-1.48,1.89-.57,3.81ZM183.4,175.1c.81-.69,1.41-1.03,1.76-1.54.95-1.39,1.88-2.8,2.67-4.28,4.65-8.69,9.22-17.42,13.9-26.09,9.93-18.38,19.63-36.88,28.16-55.97.55-1.23,1.2-2.42,1.65-3.68.16-.45.07-1.33-.23-1.54-.74-.52-1.23.15-1.54.77-.79,1.58-1.53,3.19-2.3,4.78-9.55,19.82-20.19,39.04-31.06,58.16-4.58,8.05-8.71,16.35-13.01,24.55-.47.89-.91,1.85-1.03,2.82-.07.53.56,1.16,1.03,2.02ZM320.22,197.46c1.62.12,1.7.18,2.49-.87,3.03-4.04,6.29-7.95,8.95-12.22,7.97-12.79,15.71-25.73,23.53-38.62,8.21-13.54,16.36-27.11,24.67-40.59,1.75-2.84,4.08-5.33,6.12-8,.32-.42.55-.92.82-1.39-.1-.15-.19-.31-.29-.46-.57.15-1.25.15-1.68.48-.99.77-1.99,1.59-2.76,2.57-1.78,2.24-3.6,4.47-5.11,6.9-8.15,13.08-16.24,26.2-24.3,39.33-10.48,17.08-19.84,34.84-31.67,51.09-.36.49-.5,1.13-.78,1.78ZM273.69,185.3c.61-.72,1.13-1.23,1.51-1.82.95-1.49,1.85-3.01,2.76-4.53,13.89-23.21,26.53-47.09,38.86-71.15.41-.81,1.57-1.93.36-2.63-1.42-.83-1.74.82-2.21,1.68-11.14,20.39-22.24,40.81-33.38,61.21-2.58,4.73-5.26,9.41-7.87,14.12-.45.82-1.3,1.65-.03,3.13ZM369.62,197.88c.28.16.55.33.83.49.5-.59,1.07-1.14,1.49-1.79,8.12-12.6,16.23-25.2,24.33-37.81.27-.42.6-.84.73-1.31.09-.34-.11-.76-.17-1.15-.45.08-1.01.03-1.32.29-.44.35-.72.92-1.04,1.41-1.29,1.97-2.59,3.94-3.85,5.93-6.65,10.54-13.3,21.08-19.92,31.63-.45.71-.72,1.54-1.07,2.32Z"/><path class="b" d="M293.9,24.32c.06,2.25-1.63,4.59-3.86,5.37-2.23.78-4.69.02-6.05-1.86-1.23-1.71-1.35-4.19.05-5.6,2.48-2.49,3.83-3.71,6.45-2.74,2.04.76,3.36,2.64,3.41,4.83Z"/></svg>