<?xml version="1.0" encoding="UTF-8"?><svg id="a" xmlns="http://www.w3.org/2000/svg" viewBox="0 0 262.62 125.8"><defs><style>.b{fill:#d8d8d8;}</style></defs><path class="b" d="M0,92.42h8.68v26.29h17.32v6.4H0v-32.68Z"/><path class="b" d="M25.63,108.76c0-10.88,6.49-17.04,16.29-17.04s16.29,6.16,16.29,17.04-6.49,17.04-16.29,17.04-16.29-6.16-16.29-17.04ZM49.35,108.76c0-7-2.94-10.37-7.42-10.37s-7.42,3.36-7.42,10.37,2.89,10.37,7.42,10.37,7.42-3.36,7.42-10.37Z"/><path class="b" d="M84.22,120.43c-2.24,3.36-5.6,5.23-9.94,5.23-8.64,0-14.29-6.12-14.29-16.86s6.26-17.09,16.11-17.09c8.59,0,14.47,4.67,15.78,12.65h-8.64c-.93-4.02-3.69-6.12-7.05-6.12-4.58,0-7.38,3.41-7.38,10.55s2.85,10.55,7.42,10.55c3.6,0,6.35-2.19,7.38-6.58h-7.42v-5.88h15.78v18.21h-7.75v-4.67Z"/><path class="b" d="M94.68,92.42h8.64v32.68h-8.64v-32.68Z"/><path class="b" d="M105.47,113.94h8.5c.51,3.88,2.71,5.65,6.82,5.65s5.7-1.4,5.7-3.13c0-2.57-3.27-3.5-7.19-4.48-6.02-1.45-13.59-2.99-13.59-10.37,0-5.84,5.14-9.8,13.54-9.8,8.82,0,14.47,4.06,15.36,11.44h-8.17c-.61-3.41-3.08-5.32-6.91-5.32s-5.14,1.26-5.14,2.94c0,2.52,3.46,3.45,7.56,4.48,5.93,1.45,13.17,3.13,13.17,10.27,0,5.98-5.32,10.09-14.1,10.09s-14.66-4.16-15.55-11.77Z"/><path class="b" d="M146.13,98.86h-11.16v-6.44h31v6.44h-11.16v26.24h-8.68v-26.24Z"/><path class="b" d="M167.84,92.42h17.79c7.28,0,11.49,3.5,11.49,9.1,0,3.5-1.63,6.35-4.81,7.8,2.99,1.03,3.92,3.31,4.02,6.54.09,3.55.23,6.72,1.4,9.24h-8.87c-.98-1.77-1.03-4.2-1.12-9.29-.05-2.33-.98-3.36-3.18-3.36h-8.03v12.65h-8.68v-32.68ZM176.52,98.72v7.66h7.98c2.52,0,4.11-1.35,4.11-3.83s-1.54-3.83-4.11-3.83h-7.98Z"/><path class="b" d="M210.19,92.42h10.18l12.09,32.68h-9.24l-2.24-6.63h-12l-2.19,6.63h-8.73l12.14-32.68ZM210.89,112.63h8.17l-4.06-12.47-4.11,12.47Z"/><path class="b" d="M233.58,92.42h9.52l6.16,10.51,6.07,10.55-.09-10.55-.05-10.51h7.42v32.68h-9.57l-6.12-10.41-6.02-10.46.09,10.46v10.41h-7.42v-32.68Z"/><path class="b" d="M110.73,9.82h54.97V0h-55.54c-7.32,0-13.25,5.93-13.25,13.25v55.53h55.54c7.32,0,13.25-5.93,13.25-13.25V14.73h-39.31v24.57h14.74v4.91h-19.66V14.73h-9.82v39.31h39.3v-24.56h-14.73v-4.91h19.65v30.41c0,2.2-1.78,3.98-3.98,3.98h-45.15V13.8c0-2.2,1.78-3.98,3.98-3.98Z"/></svg>