<?xml version="1.0" encoding="UTF-8"?><svg id="a" xmlns="http://www.w3.org/2000/svg" viewBox="0 0 300 104.61"><defs><style>.b{fill:#d8d8d8;}</style></defs><path class="b" d="M150.5,48.18c-.19-.18,1.09-2.59,1.44-2.75.91-.44,2.78.26,3.48-.35,1.43-2.64,2.52-5.53,4.19-8.01,3.91-1.16,8.23-3.68,12.09-4.66.62-.16.16.44.04.76-1.58,4.05-4.38,8.02-5.91,12.15h3.83c-.15.6-.97,2.53-1.44,2.75-1.1.53-3.42-.48-4.18.61-2.87,6.43-6.78,12.73-9.51,19.19-.27.64-1.9,4.26-1,4.48,1.93.46,5.17-3.85,6.17-5.3l8.69-17.68,10.85-1.31c-2.65,6.93-7.17,13.43-9.86,20.28-.51,1.29-1.11,2.57-.91,3.99l1.2-.11c7.17-5.08,9.39-15.06,13.67-22.46l.38-.34,10.85-1.48-1.67,3.82c2.75-2.52,5.27-4.21,9.21-3.82,11.02,1.09-.62,17-2.52,21.63-2.31,5.66,2.67,1.22,4.2-.59,2.21-2.63,1.56-3.62,2.51-6.58,2.11-6.57,8.82-12.38,15.51-13.92,19.16-4.39,15.31,14.14,5.2,22.4-6.2,5.06-19.48,8.44-21.43-2.39-3.25,4.19-7.05,7.64-12.78,6.91-1.38-.18-2.94-1.09-3.2-2.54-.96-5.21,5.96-13.43,7.35-18.61.42-1.55.8-2.76-1.19-2.15-2.76.84-8.67,11.38-10.17,14.23-1.63,3.08-2.81,6.47-4.78,9.33h-9.94l1.67-4.06c-3.07,2.73-6.12,4.31-10.39,3.8-2.86-.34-4.05-2.82-3.26-5.47-3.17,3.6-6.75,6.09-11.82,5.47-2.97-.36-4-2.71-3.26-5.47l-2.52,2.62c-2.63,2.2-5.36,3.23-8.85,2.87-5.18-.54-3.65-5.35-2.24-8.69,1.02-2.42,6.99-12.58,6.41-14.34-.25-.74-1.26-.32-1.73-.12-2.72,1.19-7.85,10.24-9.38,13.11-1.81,3.4-3.18,7.04-5.26,10.28h-9.94c.62-2.43,2.18-4.59,3.11-6.93-4.41,4.21-10.54,7.54-16.85,6.9-8.78-.88-9.31-9.14-5.94-15.67s10.66-11.51,17.89-12.03c12.57-.9,11.44,8.9,3.45,14.68-4.17,3.02-9.26,4.62-14.3,5.44-1.02,5.23-.05,6.78,5.24,5.83,4.58-.82,8.17-3.91,11.37-7.06l8.74-17.33,11.01-1.56c.17.12-1.89,3.21-1.56,3.82,3.32-4.73,14.38-6.15,13.77,1.79-.48,6.19-6.42,11.87-7.78,17.33-.14.56-.34,1.39.49,1.45,1.7.13,4.8-4.16,5.82-5.43l9.14-18.73h-3.35ZM98.06,66.59c5.11-1.73,9.79-8.45,11.67-13.33.24-.62,1.49-4.03.42-4.12-1.28-.11-4.79,4.32-5.59,5.41-2.67,3.64-4.88,7.84-6.51,12.03ZM226.11,49.42c-4.03.8-9.3,12.04-10.58,15.75-.65,1.86-3.78,11.69.94,8.11,3.96-3,10.67-16.73,11.11-21.66.11-1.26.18-2.53-1.47-2.2Z"/><path class="b" d="M256.34.12c.06.07.31,1.3.55,1.73,2.97,5.4,13.16,8.34,7.55,16.05-.59.81-1.51,1.33-1.87,2.31,3.75,1.43,7.17.78,11.01.48.34.31-1.06,1.68-1.32,1.91-2.59,2.23-6.61,3.21-9.93,3.59,2.08,7.43,6.12,14.39,7.84,21.94,3.92,17.14,2.2,32.08-4.31,48.18-1.23,3.05-2.26,5.9-4.61,8.31-.65.05-.2-.14-.18-.42.2-2.55,1.12-4.97,1.62-7.47,1.26-6.32,1.71-14.34-2.08-19.92-2.34-3.44-6.89-5.53-9.83-1.53-4.13,5.62.36,16,1.49,22.17-.64.13-.41-.17-.59-.47-9.78-16.3-14.34-30.45-13.06-49.86.16-2.37.87-4.76.98-7.15.3-6.39-.77-12.63-4.81-17.7-2.88-3.62-5.44-4.42-3.53-10,.72-2.09,1.28-3.06,3.6-2.74,6.62.9,14.86,6.81,21.59,5.89,1.39-.19,3.49-1.42,3.86-2.84,1.21-4.63-4.1-5.81-4.45-10.4-.02-.26-.15-2.73.49-2.04Z"/><path class="b" d="M26.46,75.67l1.67-4.06c-3.09,3.83-14.01,6.97-13.65-.72l-1.91,2.03c-7.55,5.99-14.36,1.37-12.15-8.07,2.34-9.98,14.07-20.82,24.67-15.56l9.99-1.36-10.17,21.04c-.19.59-1.33,3.31-.24,3.36,1.99.09,4.63-3.77,5.82-5.2l8.7-17.73,10.97-1.47-1.08,3.11c2.5-2.79,6.75-4,10.31-2.64,6.4,2.45-1.55,11.77-2.52,15.2-.23.83,1.82.04,2.07-.08,2.21-1.06,2.66-4.26,3.95-6.34,4.23-6.86,13.55-11.62,21.39-8.03l9.94-1.45c-2.08,4.78-4.42,9.5-6.74,14.19-3.61,7.3-9.27,20.44-16.18,24.73-5.27,3.28-18.56,5.06-19.69-3.44-1.09-8.19,8.58-11.36,14.82-8.11-2.65,1.7-4.69,4.67-5.81,7.58-1.99,5.16-.85,7.32,3.43,2.71,2.28-2.46,7.88-11.49,8.85-14.6.04-.12.07-.39-.12-.35-2.49,2.78-8.76,3.18-11.14.12-.36-.46-1.44-2.64-1.44-3.11v-3.47c-2.89,2.34-7.18,4.28-10.91,2.88-4.63-1.73.26-8.96,1.5-11.68.64-1.39,1.97-3.77-.75-2.66-1.24.51-3.3,3.18-4.01,4.36l-9.42,18.81h-10.18ZM23.59,50.33c-4.31-.43-8.12,4.89-10.16,8.15-1.89,3.03-5.11,9.22-4.44,12.76.15.8.76.96,1.5.8,1.21-.26,3.12-2.98,3.85-4.06,3.73-5.48,6.22-11.79,9.25-17.66ZM82.73,50.33c-4.82-.47-8.87,5.29-10.9,9.08-.8,1.5-3.91,8.44-2.11,9.59,1.59,1.01,3.51-1.45,4.35-2.57,1.38-1.84,2.8-4.34,3.91-6.37,1.73-3.15,3.19-6.49,4.75-9.72Z"/><path class="b" d="M55.82,39.72c-5.22,7.53-20.69,6.49-23.68-3.07-3.68-11.74,5.48-19.56,16.89-17.1,8.82,1.9,11.53,13.33,6.79,20.18ZM47.2,24.12c-4.16-2.69-7.23,1.68-7.57,5.53-.39,4.33.24,11.69,6.29,10.58,5.07-.93,5.21-13.57,1.28-16.11Z"/><path class="b" d="M113.86,32.88c.39,2.02.77,4.89,2.55,6.18,2.3,1.65,6.14,1.35,7.99-.86.45-.53,1.21-2.65,1.36-2.69.34-.12,4.7-.41,4.87-.23-.43,6.87-6.72,9.84-13.02,9.29-8.47-.74-12.15-6.81-11.4-14.91,1.21-13.09,21.86-14.57,24.55-1.33.14.67.74,4.55-.01,4.55h-16.88ZM123.2,28.81c.07-7.3-9.31-7.33-9.1,0h9.1Z"/><path class="b" d="M28.37,34.31c-.21,12.21-18.86,14.02-23.03,3.27-2.24-5.78-.97-13.37,4.71-16.66,5.46-3.17,17.37-2.4,17.61,5.63s-12.83,4.09-6.47-2.52c-7.15-2.63-9.18,4.09-8.62,9.92.8,8.24,9.93,8.21,10.77.36h5.03Z"/><path class="b" d="M96.38,11.36v8.61h5.99v4.3h-5.99l.05,14.89c.44,1.92,2.82.91,2.82-.43v-5.14h3.35v6.57c0,.31-.62,1.67-.85,2.02-2.42,3.61-10.46,3.15-12.36-.78-.13-.26-.68-1.81-.68-1.96v-15.18h-3.59v-3.71c1.25-.6,2.45-.83,3.64-1.64,1.62-1.1,2.52-3.45,2.81-5.32.07-.46-.14-2.25.38-2.25h4.43Z"/><path class="b" d="M72.44,19.73v3.11c2.01-2.56,4.69-4.48,8.07-3.16,3.97,1.54,4.04,9.05-.04,9.63-4.31.61-6.04-2.85-3.72-6.22-3.25.2-4.14,5.39-4.32,8-.09,1.36-.18,6.9.38,7.77.13.2.8.73.95.73h3.47v3.94l-16.28.36v-4.3c2.22-.12,3.83.76,4.08-2.02.35-3.84-.24-8.26-.06-12.15-.36-1.63-2.71-1.36-4.02-1.37v-4.3h11.49Z"/><path class="b" d="M292.98,4.19l-2.15,1.31c.55.66,1.48.3,1.19,1.39-.03.11-1.36,1.44-1.56,1.59-1.35,1.05-3.62,1.63-5.29,1.89-1.77.28-2.12-.63-3.09,1.46-.63,1.36-.74,2.91-.57,4.4.81,7.24,8.52,8.35,13.15,12.45,3.44,3.04,6.51,7.79,4.9,12.55-1.47,4.35-9.15,7.66-12.93,4.32-1.48-1.31-1.75-3.32-2.51-5.02,4.21,1,13.33,2.32,11.62-4.79-1.38-5.74-10.77-8.89-14.25-13.27-4.52-5.69-2.78-13.86,3.82-16.98.54-.26,3.33-1.3,3.72-1.3h3.95Z"/><path class="b" d="M279.09,82.61c0-3.23,1.04-6.49,1.21-9.67.15-2.85-.7-5.88-.48-8.61.18-2.33,1.11-5.04,1.4-7.45.78-6.55-.07-12.12-2.56-18.18-.65-1.58-1.54-3.05-2.19-4.62.45-.1.57.25.84.48,14.17,11.73,10.37,30.99,3.2,45.75-.37.76-.74,1.78-1.4,2.31Z"/><path class="b" d="M188.81,31.68c.3.27-3.33,6.46-3.84,7.05-2.94,3.4-9.08,3.19-13.16,4.19-.3-.33,2.55-5.49,3.01-6.2,3.41-5.23,8.38-4.41,13.99-5.04Z"/><path class="b" d="M151.94,87.15c.74.1,1.96-.26,2.52.24.68.6,2.51,6.83,2.87,6.94.47.14.35-.23.46-.48.43-.91,2.5-6.46,2.8-6.65.35-.22,1.81.07,2.36-.04v10.28h-1.68v-7.41l-3.09,7.26-1.32.16-3.26-7.66v7.65h-1.68v-10.28Z"/><path class="b" d="M179.24,87.15c.68.1,2.05-.25,2.52.23.57.78,2.51,6.83,2.87,6.94.47.14.35-.24.46-.48.98-2.05,1.69-4.37,2.65-6.45.41-.49,1.86-.14,2.52-.24v10.28h-1.68v-7.41l-3.15,7.38-1.25.04-3.27-7.66v7.65h-1.68v-10.28Z"/><path class="b" d="M196.24,87.51c.14-.47,2.35-.49,2.6-.33.34.22,2.38,6.54,3.03,7.38.6-.84,2.69-7.17,3.03-7.38s1.84.08,2.36-.03v10.28c-.34.04-1.68.06-1.68-.36v-6.81l-2.99,6.93c-.35.42-1.31.4-1.51-.17l-3.16-7.48v7.89h-1.68v-9.92Z"/><path class="b" d="M139.6,87.15c2.84.57,2.52,5.29-.36,5.86l2.87,4.42c-.61-.08-1.63.19-2.15-.12-.62-.37-2.08-3.92-2.44-4.13-.33-.18-.99,0-1.39-.05v4.3h-1.68v-10.28c1.51.21,3.74-.28,5.15,0ZM139.67,89.11c-.42-.73-2.75-.51-3.54-.53v3.11c.92.04,3.39,0,3.59-1.08.06-.31.08-1.27-.05-1.5Z"/><path class="b" d="M223.27,87.18l4.1,10.25c-.4-.08-1.71.13-1.89-.02-.09-.08-.39-1.79-.72-2.22-.15-.19-4.22-.27-4.66-.12-.57.2-.69,1.97-1.1,2.25s-1.4.04-1.93.11l4.33-9.9c.38-.59,1.24-.4,1.86-.35ZM224.01,93.61c-.62-1.33-.9-3-1.91-4.06l-1.44,4.06h3.35Z"/><path class="b" d="M175.64,87.15h1.68v7.05c0,.18-.52,1.46-.67,1.72-1.26,2.21-4.58,2.45-6.41.8-.67-.6-1.31-1.89-1.31-2.76v-6.81c.55.05,1.67-.24,1.88.39.71,2.16-1.53,8.15,1.89,8.65,1.31.19,2.93-.95,2.93-2.23v-6.81Z"/><polygon class="b" points="150.26 87.15 150.26 88.58 144.99 88.58 144.99 91.45 149.78 91.45 149.78 92.89 144.99 92.89 144.99 96 150.5 96 150.5 97.43 143.32 97.43 143.32 87.15 150.26 87.15"/><polygon class="b" points="216.35 87.15 216.35 88.58 211.32 88.58 211.32 91.45 216.11 91.45 216.11 92.89 211.32 92.89 211.32 96 216.83 96 216.83 97.43 209.65 97.43 209.65 87.15 216.35 87.15"/><path class="b" d="M130.98,87.15c2.49.5,2.97,4.82.18,5.68-1.17.36-2.44.32-3.65.3v4.3h-1.68v-10.28c1.51.21,3.74-.28,5.15,0ZM127.51,91.69c4.96.49,5.32-3.88,0-3.11v3.11Z"/><path class="b" d="M274.06,69.22c-.06-13.51-3.45-26.74-8.38-39.21.62-.46,4.87,2.35,5.59,2.91,9.44,7.41,11.41,23.96,5.38,33.98-.31.51-1.87,3.02-2.59,2.32ZM274.16,36.36c-2.18-2.59-4.57-4.43-7.64-5.88-.17-.05-.15.18-.12.36.33,2.17,2.42,6.34,3.18,8.78,2.94,9.38,4.67,19.29,4.84,29.12,2.18-1.51,3.38-4.91,4.07-7.41,2.28-8.29,1.31-18.25-4.33-24.97Z"/><path class="b" d="M249.88,4.9c-.73,3.06-1.28,5.7-.48,8.84-.91-.13-5.34-1.16-5.23-2.22.02-.19.79-2.08.95-2.41,1-2.06,2.49-3.59,4.76-4.21Z"/><polygon class="b" points="234.31 87.15 234.31 88.58 230.96 88.58 230.96 97.43 229.28 97.43 229.28 88.58 226.17 88.59 226.17 87.15 234.31 87.15"/><rect class="b" x="165.11" y="87.15" width="1.68" height="10.28"/></svg>