<?xml version="1.0" encoding="UTF-8"?><svg id="a" xmlns="http://www.w3.org/2000/svg" viewBox="0 0 268.45 68.48"><defs><style>.b{fill:#d8d8d8;}</style></defs><path class="b" d="M52.22,18.98h-17.3l-8.44,47.88H8.86l8.44-47.88H0L2.79,3.18h52.22l-2.79,15.8Z"/><path class="b" d="M98.8,41.84c-.26,1.48-.65,2.96-1.14,4.48h-36.48c.11,5.63,3.18,8.55,8.52,8.55,3.95,0,7.56-1.73,9.69-4.61h16.84c-5.43,11.21-16.61,18.22-28.93,18.22-15.33,0-24.71-11.2-22.06-26.21,2.66-15.06,15.87-26.13,31.29-26.13s24.81,11.3,22.27,25.71h0ZM63.13,36.95h19.86c-.62-4.91-3.69-7.56-8.8-7.56s-8.83,2.68-11.06,7.56Z"/><path class="b" d="M132.04,66.87l-8.64-20.77-3.66,20.77h-16.92L114.61,0h16.92l-6.52,36.99,15.1-19.25h19l-19.44,23.41,12.33,25.71h-19.95Z"/><path class="b" d="M159.47,45.78l4.94-28.04h16.92l-4.81,27.3c-.91,5.19,1.34,8.23,5.86,8.23s7.8-3.1,8.71-8.23l4.81-27.3h16.92l-4.94,28.04c-2.42,13.75-13.67,22.7-28.18,22.7s-22.65-8.95-20.23-22.7Z"/><path class="b" d="M268,36.91l-5.28,29.95h-16.92l4.87-27.62c1.01-5.72-.64-8.55-4.9-8.55-5.28,0-8.96,3.69-10.06,9.94l-4.63,26.23h-16.92l8.66-49.13h11.87l1.43,5.07c4.38-4.08,10.26-6.52,16.61-6.52,11.41,0,17.47,8.11,15.26,20.62Z"/></svg>