<?xml version="1.0" encoding="UTF-8"?><svg id="a" xmlns="http://www.w3.org/2000/svg" viewBox="0 0 294.8 380.26"><defs><style>.b{fill:#e85942;}.c{fill:#e5e5e5;}</style></defs><path class="c" d="M279.8,128.81c12.13-13.83,13.95-29.28,14.55-34.39,2.24-18.92-4.3-33.45-7.47-40.48-13.84-30.63-41.11-46.4-56.05-53.04-1.28-.59-2.65-.89-4.09-.89-3.45,0-6.59,1.75-8.41,4.69-2.56,4.17-1.65,9.67,2.12,12.79,8.4,6.96,15.03,15.25,19.71,24.62,3.35,6.71,7.7,15.42,7.79,25.76-.51-.51-3.21-3.21-3.21-3.21-2.01-2.05-3.04-3.14-3.86-4.02-.9-.97-1.62-1.74-3.04-3.16-2.88-2.79-5.84-5.67-9.78-8.17.58-2.12.44-4.4-.46-6.49-1.33-3.12-4.12-5.31-7.45-5.85-.06-.01-.14-.02-.22-.04-4.08-.72-14.21-2.56-23.04-4.73-.01-2.76-1.17-5.52-3.42-7.47-1.45-1.23-3.4-2.8-5.73-3.98-2.95-1.58-6.05-2.73-9.21-3.4-2.05-.43-4.12-.65-6.32-.65-1.14,0-2.34.06-3.81.19-2.75.26-5.29.75-7.75,1.23l-2.2.43-6.81,1.27-4.22.78s-10.97-2.04-10.97-2.04l-2.1-.41c-2.51-.49-5.11-.99-7.96-1.26-1.4-.12-2.63-.18-3.76-.18-2.2,0-4.27.21-6.32.65-3.14.67-6.31,1.83-9.04,3.31-1.97.99-3.92,2.34-5.97,4.12-2.21,1.94-3.35,4.67-3.36,7.42-8.75,2.15-18.95,4-23.06,4.73-.08.02-.16.03-.22.04-3.31.54-6.1,2.71-7.48,5.87-.89,2.09-1.02,4.38-.43,6.5-4.07,2.59-6.99,5.45-9.85,8.24-1.2,1.18-1.9,1.94-2.7,2.79l-.9.95c-.74.79-1.68,1.79-3.13,3.27,0,0-2.61,2.59-3.3,3.28.09-10.33,4.44-19.06,7.78-25.77,4.69-9.39,11.32-17.66,19.7-24.6,3.77-3.12,4.69-8.62,2.11-12.81-1.81-2.92-4.95-4.67-8.4-4.67-1.44,0-2.81.3-4.01.86C49.03,7.53,21.75,23.3,7.93,53.94c-3.15,6.96-9.7,21.46-7.47,40.52.61,5.09,2.48,20.57,14.55,34.32,1.95,2.24,4.08,4.32,6.36,6.24-1.64.46-3.67.71-5.94.71-1.6,0-2.77-.13-3.06-.16-.44-.06-.88-.09-1.31-.09-4.1,0-7.71,2.47-9.21,6.3-1.66,4.26-.2,9.05,3.55,11.66,5.88,4.12,15.56,9.43,28.26,11.34,1.42.21,2.87.38,4.33.5-.72,1.26-1.62,2.71-2.68,4.38-.76,1.2-1.55,2.44-2.22,3.57-2.29,3.63-5.75,9.68-9.23,17.91-1.61,3.81-.66,8.25,2.35,11.06.39.37.81.7,1.24.99-1.23,2.84-2.37,5.75-3.41,8.69-3.85,10.74-6.36,21.9-7.45,33.19-.3,3.2.97,6.35,3.42,8.43.88.75,1.88,1.34,2.94,1.74-.72,7.73-.26,17.71,3.9,28.2,3.64,9.03,9.26,16.77,17.17,23.67,1.79,1.55,4.08,2.41,6.46,2.41,1.81,0,3.58-.49,5.1-1.41.92-.55,1.74-1.25,2.42-2.04,2.11,1.72,5.43,4.97,10.09,11.03l.18.24c3.14,4.19,8.56,10.81,16.51,18.52,1.85,1.79,4.3,2.78,6.88,2.78.3,0,.58-.02.94-.05.53-.05,1.06-.14,1.57-.28,5.84,9.97,13.3,18.65,22.23,25.83,8.19,6.68,17.23,11.76,27.68,15.55,1.09.38,2.21.58,3.33.58s2.23-.19,3.38-.6c10.43-3.79,19.46-8.86,27.58-15.5,8.97-7.23,16.45-15.91,22.28-25.87.52.14,1.06.23,1.61.28.31.03.61.05.89.05,2.58,0,5.02-.99,6.88-2.79,7.94-7.72,13.33-14.3,16.36-18.33l.3-.38c4.66-6.07,7.98-9.33,10.08-11.05.65.76,1.43,1.43,2.31,1.98,1.57.96,3.37,1.47,5.19,1.47,2.41,0,4.72-.87,6.47-2.42,7.79-6.76,13.58-14.73,17.23-23.74,4.15-10.48,4.61-20.45,3.89-28.16,1.05-.4,2.04-.98,2.94-1.73,2.42-2.09,3.69-5.24,3.39-8.42-1.06-11.19-3.56-22.34-7.42-33.12-1.03-2.96-2.17-5.86-3.42-8.75.43-.29.84-.62,1.23-.98,3.02-2.81,3.97-7.26,2.36-11.08-3.51-8.27-6.93-14.26-9.12-17.73-.77-1.29-1.56-2.54-2.36-3.79-1.05-1.65-1.94-3.07-2.65-4.33,1.47-.12,2.91-.29,4.33-.5,12.7-1.91,22.38-7.22,28.25-11.33,3.75-2.61,5.21-7.41,3.54-11.67-1.47-3.77-5.17-6.3-9.21-6.3-.44,0-.88.03-1.2.08-1.01.12-2.07.18-3.15.18-2.28,0-4.29-.25-5.93-.72,2.27-1.91,4.4-3.98,6.35-6.21ZM265.19,135.01c.07.13.15.24.21.33,3.05,4.67,10.05,5.34,13.97,5.34,1.93,0,3.34-.16,3.73-.21.21-.03.42-.04.63-.04,2.02,0,3.86,1.24,4.61,3.16.82,2.11.1,4.52-1.77,5.82-5.45,3.82-14.41,8.74-26.17,10.5-2.98.45-6.07.67-9.23.67-.39,0-.79,0-1.18-.01.16,3.46,2.14,6.73,5.3,11.7.75,1.18,1.53,2.41,2.29,3.68,2.15,3.41,5.46,9.22,8.81,17.12.81,1.91.33,4.13-1.18,5.54-.94.88-2.14,1.33-3.37,1.33-.54,0-1.06-.09-1.57-.25,2.23,4.53,4.17,9.14,5.83,13.9,3.74,10.44,6.15,21.21,7.17,31.96.15,1.6-.49,3.17-1.71,4.22-.91.76-2.05,1.18-3.22,1.18-.4,0-.81-.04-1.21-.15l-.9-.22c1.42,7.84,1.87,19.06-2.86,31-3.34,8.24-8.66,15.57-15.87,21.83-.91.81-2.06,1.21-3.23,1.21-.91,0-1.81-.25-2.62-.75-1.6-1-2.47-2.81-2.3-4.64-.45.07-1.05.22-1.83.51-2.11.91-6.78,4.02-14.75,14.41l-.24.3c-2.99,3.98-8.21,10.35-15.95,17.88-.93.9-2.15,1.39-3.44,1.39-.15,0-.31-.01-.48-.03-1.44-.13-2.75-.9-3.58-2.09-.06-.09-.13-.19-.22-.3-5.83,11.37-13.76,21.12-23.61,29.05-7.71,6.3-16.28,11.12-26.17,14.71-.55.19-1.12.3-1.69.3s-1.14-.1-1.69-.3c-9.9-3.59-18.46-8.41-26.2-14.72-9.81-7.9-17.74-17.67-23.58-29.04-.09.1-.16.21-.22.3-.82,1.2-2.14,1.96-3.58,2.09-.16.02-.31.03-.48.03-1.27,0-2.51-.49-3.44-1.39-7.67-7.45-12.94-13.87-15.99-17.94l-.18-.24c-7.99-10.38-12.64-13.48-14.77-14.41-.79-.3-1.39-.45-1.86-.52.16,1.86-.73,3.7-2.36,4.67-.79.48-1.69.72-2.57.72-1.15,0-2.3-.4-3.22-1.2-7.3-6.37-12.48-13.49-15.83-21.8-4.73-11.92-4.28-23.17-2.86-31.04l-.93.24c-.4.1-.81.15-1.21.15-1.17,0-2.3-.42-3.22-1.2-1.21-1.03-1.86-2.62-1.71-4.2,1.05-10.83,3.46-21.6,7.18-31.99,1.68-4.76,3.61-9.37,5.83-13.87-.51.16-1.05.25-1.57.25-1.23,0-2.42-.45-3.37-1.33-1.51-1.41-1.99-3.62-1.18-5.54,3.34-7.88,6.66-13.7,8.86-17.19.72-1.2,1.5-2.42,2.24-3.61,3.16-4.97,5.13-8.24,5.3-11.7-.39.01-.79.01-1.18.01-3.16,0-6.25-.22-9.23-.67-11.76-1.77-20.72-6.69-26.17-10.5-1.87-1.3-2.6-3.71-1.78-5.82.75-1.91,2.59-3.16,4.61-3.16.21,0,.42.01.63.04.4.04,1.81.21,3.74.21,3.92,0,10.92-.67,13.9-5.22.07-.13.18-.27.27-.45-4.05-2.66-7.7-5.83-10.88-9.47-11.1-12.64-12.81-26.99-13.37-31.7-2.06-17.65,4.11-31.31,7.08-37.87C25.56,26.85,51.67,11.76,66.06,5.37c.64-.3,1.33-.43,2-.43,1.66,0,3.28.84,4.2,2.33,1.29,2.09.84,4.83-1.06,6.4-8.93,7.39-15.98,16.2-20.98,26.2-4.2,8.44-10.53,21.15-7.51,36.46.85,4.29,2.35,8.44,4.47,12.36l2.71-5.88-2.04-1.99c-.97-.93-1.51-2.23-1.5-3.58.01-1.35.58-2.63,1.57-3.56,1.33-1.26,3.35-3.28,5.7-5.61,2-2.05,3.04-3.17,3.9-4.08.87-.93,1.56-1.68,2.81-2.92,3.23-3.16,6.24-6.07,10.73-8.6.75-.45,1.5-.87,2.26-1.27l-1.17-1.74c-.94-1.39-1.12-3.16-.46-4.71.67-1.54,2.06-2.65,3.73-2.92.13-.03,13.85-2.36,24.88-5.15,1.48-.36,2.77-.72,3.89-1.06-.06-.06-.1-.12-.16-.18-1.77-2.06-1.56-5.16.49-6.96,1.72-1.5,3.34-2.62,4.94-3.43,2.41-1.3,5.09-2.3,7.84-2.89,1.69-.36,3.43-.54,5.3-.54,1.05,0,2.14.06,3.32.16,2.68.25,5.25.76,7.72,1.24l1.83.36s7.73,1.44,7.96,1.48l3.96.73,5.12-.94,6.82-1.27,1.81-.36c2.48-.48,5.04-.99,7.71-1.24,1.2-.1,2.29-.16,3.34-.16,1.87,0,3.61.18,5.3.54,2.75.58,5.43,1.59,7.96,2.95,1.94.97,3.67,2.38,4.8,3.35,2.05,1.78,2.29,4.89.52,6.96-.06.06-.12.12-.18.19,1.12.34,2.39.7,3.84,1.05,11.07,2.8,24.78,5.13,24.91,5.16,1.66.27,3.05,1.38,3.71,2.92.66,1.54.49,3.32-.43,4.71l-1.18,1.74c.81.42,1.6.85,2.39,1.33,4.37,2.47,7.38,5.39,10.56,8.48,1.3,1.3,1.99,2.03,2.84,2.96.87.93,1.91,2.03,3.96,4.13l.78.78c2.06,2.06,3.7,3.71,4.86,4.79,1,.91,1.57,2.2,1.59,3.56.01,1.35-.52,2.65-1.5,3.59l-2.03,1.99,2.71,5.88c2.12-3.92,3.62-8.06,4.47-12.36,3.02-15.31-3.31-28.02-7.51-36.44-5-10.01-12.06-18.82-20.98-26.21-1.9-1.57-2.35-4.31-1.06-6.4.93-1.5,2.54-2.33,4.2-2.33.67,0,1.36.13,2,.43,14.38,6.39,40.47,21.47,53.63,50.6,2.96,6.58,9.14,20.27,7.06,37.87-.55,4.68-2.21,19-13.36,31.72-3.17,3.62-6.82,6.79-10.89,9.46Z"/><path class="b" d="M226.73,9.87c12.43,10.29,18.99,21.26,22.25,27.81,4.41,8.85,11.3,22.65,7.94,39.61-2,10.13-6.87,17.44-10.08,21.5l-7.89-17.07,4.54-4.44c-1.38-1.28-3.35-3.26-5.82-5.72-4.05-4.14-4.24-4.54-6.71-7-3.26-3.16-5.82-5.62-9.67-7.79-2.96-1.78-5.52-2.76-7.3-3.35l4.54-6.71s-13.91-2.37-25.26-5.23c-11.35-2.76-14.6-6.12-14.9-7.89-.12-.7.05-1.39.75-1.67,1.18-.46,2.66-.57,3.91-.53.69.02,1.38.11,2.06.25.52.11,1.51.23,1.92.58-1.19-1.04-2.5-2.05-3.92-2.76-2.08-1.13-4.32-1.95-6.64-2.45-2.39-.51-4.72-.51-7.14-.29-3.06.29-6.07.96-9.09,1.52-2.25.42-4.51.85-6.76,1.27-.38.07-.76.14-1.14.22l-4.93.89-4.93-.89c-.38-.07-.76-.14-1.14-.22-2.25-.42-4.51-.85-6.76-1.27-3.01-.57-6.03-1.24-9.09-1.52-2.42-.23-4.75-.23-7.14.29-2.31.5-4.56,1.32-6.64,2.45-1.42.71-2.73,1.71-3.92,2.76.41-.35,1.4-.47,1.92-.58.68-.14,1.36-.23,2.06-.25,1.25-.04,2.73.07,3.91.53.7.27.87.97.75,1.67-.3,1.78-3.55,5.13-14.9,7.89-11.35,2.86-25.26,5.23-25.26,5.23l4.54,6.71c-1.78.59-4.34,1.58-7.3,3.35-3.85,2.17-6.41,4.64-9.67,7.79-2.47,2.47-2.66,2.86-6.71,7-2.47,2.47-4.44,4.44-5.82,5.72l4.54,4.44-7.89,17.07c-3.2-4.06-8.08-11.38-10.08-21.5-3.36-16.97,3.53-30.76,7.94-39.61,3.26-6.54,9.82-17.52,22.25-27.81-10.06,4.48-37.72,18.38-51.14,48.13-3.16,7.01-8.54,19.32-6.67,35.26.59,5.01,2.26,17.72,12.17,29.04,4.68,5.35,9.66,8.63,13.1,10.53-.39,2.27-1.18,4.04-2.07,5.33-6.12,9.37-21.7,7.3-22.4,7.2,4.64,3.26,12.92,7.99,24.07,9.67,5.33.79,10.16.69,13.91.39.2.59.49,1.48.59,2.66.99,7.4-3.65,12.92-8.19,20.42-2.37,3.75-5.43,9.27-8.48,16.48,1.78-.89,4.24-1.97,7.3-2.37,1.48-.3,2.86-.3,3.95-.3-3.65,6.02-7.6,13.61-10.85,22.89-4.24,11.84-6.12,22.49-6.91,30.78l8.98-2.27c-1.48,4.24-6.02,19.34.59,36.01,4.14,10.26,10.75,16.67,14.5,19.93-.1-.39-.59-2.27.49-3.85,0,0,.4-.59,1.09-.99,2.47-1.48,6.41.1,7,.3,7,2.96,15.39,14.11,17.07,16.28,3.26,4.34,8.39,10.46,15.49,17.36.39-.59,1.18-1.68,2.66-2.57,1.87-.99,3.65-.89,4.24-.79,3.35,7.3,10.36,20.03,24.07,31.08,9.18,7.5,18.25,11.54,24.76,13.91,6.51-2.37,15.59-6.41,24.76-13.91,13.71-11.05,20.72-23.78,24.07-31.08.59-.1,2.37-.2,4.24.79,1.48.89,2.27,1.97,2.66,2.57,7.1-6.91,12.23-13.02,15.49-17.36,1.68-2.17,10.06-13.32,17.07-16.28.59-.2,4.54-1.78,7-.3.69.39,1.09.99,1.09.99,1.08,1.58.59,3.45.49,3.85,3.75-3.26,10.36-9.67,14.5-19.93,6.61-16.67,2.07-31.77.59-36.01l8.98,2.27c-.79-8.29-2.66-18.94-6.91-30.78-3.26-9.27-7.2-16.87-10.85-22.89,1.09,0,2.47,0,3.95.3,3.06.39,5.52,1.48,7.3,2.37-3.06-7.2-6.12-12.73-8.48-16.48-4.54-7.5-9.17-13.02-8.19-20.42.1-1.18.39-2.07.59-2.66,3.75.3,8.58.39,13.91-.39,11.15-1.68,19.44-6.41,24.07-9.67-.69.1-16.28,2.17-22.39-7.2-.89-1.28-1.68-3.06-2.07-5.33,3.43-1.91,8.41-5.19,13.1-10.53,9.91-11.32,11.58-24.02,12.17-29.04,1.87-15.93-3.5-28.25-6.67-35.26-13.43-29.75-41.08-43.65-51.14-48.13ZM112.51,244.93l-3.68,4.92-.42-6.21-.49-8.51c-.54.68-5.43,6.85-5.43,6.85l.36-4.01c.25-2.36.28-4.84.31-7.24v-.85c.05-2.52.08-5.1.33-7.63l-1.51,2.3-3.13,4.64.96-5.51c.39-2.37.77-4.93,1.24-8.27.74-5.14,1.5-10.43,2.66-15.59-.94.9-3.92,3.72-3.92,3.72l-5.01,4.8,1.43-4.48c.56-1.73,1.08-3.48,1.61-5.23l.42-1.4c1.26-4.2,2.65-8.85,4.38-13.34-.09.08-2.36,2.09-2.36,2.09l.12-2.8c.15-5.41,1.64-9.91,2.95-13.89,1.28-3.93,2.47-7.58,2.52-11.68.23-13.47-11.23-17.78-22.31-21.94-2.15-.8-3.91-1.46-5.62-2.18-4.87-2.59-8.43-7.32-11.86-13.36,2.64,4.09,7.09,6.53,12.03,8.87,2.97,1.4,6.11,2.44,9.43,3.54,3.85,1.27,8.18,2.69,12.4,4.83,6.94,4.02,11.58,11.91,11.88,20.11.37,4.32-.92,8.37-2.22,12.29.47-.39.94-.79,1.43-1.19,1.04-.9,2.12-1.83,3.19-2.75l3.6-3.09c2.46-2.12,4.68-4.02,6.31-5.45l7.28-6.33-5.5,7.92c-1.17,1.69-2.46,3.44-3.78,5.24l-.4.54c-4.67,6.41-9.88,13.57-12.64,20.74,3.24-3.05,6.21-5.9,7.52-7.17l4.44-4.32-3.77,8.45c-2.74,6.09-5.83,12.97-7.36,19.07.74-1.07,1.39-2.04,1.91-2.85l3.41-5.2-1.7,8.43c-1.03,5.17-2.9,14.56-3.95,19.36-.31,1.45-.48,2.92-.58,4.52l3.77-4.53v6.95l.16,9.82c2.27-2.11,4.78-4,7.5-5.63,4.6-2.76,10.09-4.18,15.96-5.55-9.76,2.96-18.04,10.1-23.84,18.16ZM173.67,248.33c-1.87.92-3.88,1.51-5.94,1.86-5.57.95-9.14,2.98-10.4,5.93-1.48,3.44.16,8.32,4.76,14.08.28.4.58.76.88,1.14l.21.27c.96,1.14,2.17,2.56,2.51,4.29.3,1.18.07,2.42-.69,3.53-1.42,1.99-4.2,2.95-5.63,3.08-2.42.52-5.76.78-10.1.78-2.95,0-5.94-.12-8.35-.22l-.19-.02-.31-.03c-2.69-.27-6.79-.67-8.77-3.11-.87-1.08-1.23-2.41-1.05-3.93.34-1.81,1.57-3.25,2.54-4.41l.19-.22c.3-.37.6-.75.85-1.09,4.62-5.79,6.27-10.67,4.79-14.12-1.27-2.98-4.85-5-10.41-5.94-2.06-.34-4.06-.93-5.93-1.86l-.74-.37,3.76-.24c1-.06,1.94-.1,2.84-.1,7.65,0,12.79,2.38,14.87,6.87,2.53,5.43.16,13.87-6.03,21.72,1.91.51,4.61.58,7.27.58h7.03c2.71,0,5.42-.07,7.35-.58-6.31-8.03-8.63-16.28-6.09-21.72,2.09-4.47,7.29-6.85,15.02-6.85.87,0,1.78.03,2.72.09l3.8.24-.77.38ZM216.91,133.51c-1.71.71-3.47,1.38-5.62,2.18-11.08,4.16-22.54,8.47-22.31,21.94.04,4.1,1.23,7.75,2.52,11.68,1.31,3.97,2.79,8.48,2.95,13.89l.12,2.8s-2.27-2.01-2.36-2.09c1.72,4.49,3.12,9.14,4.38,13.34l.42,1.4c.53,1.76,1.05,3.51,1.61,5.23l1.43,4.48-5.01-4.8s-2.98-2.82-3.92-3.72c1.16,5.16,1.92,10.45,2.66,15.59.47,3.35.85,5.9,1.24,8.27l.96,5.51-3.13-4.64-1.51-2.3c.25,2.53.29,5.11.32,7.63v.85c.04,2.4.07,4.88.32,7.24l.36,4.01s-4.88-6.17-5.43-6.85l-.49,8.51-.42,6.21-3.68-4.92c-5.8-8.06-14.08-15.2-23.84-18.16,5.87,1.37,11.36,2.79,15.96,5.55,2.72,1.63,5.23,3.52,7.5,5.63l.16-9.82v-6.95l3.77,4.53c-.1-1.6-.27-3.07-.58-4.52-1.05-4.8-2.93-14.19-3.95-19.36l-1.7-8.43,3.41,5.2c.52.81,1.18,1.78,1.91,2.85-1.53-6.1-4.63-12.98-7.36-19.07l-3.77-8.45,4.44,4.32c1.31,1.27,4.28,4.13,7.52,7.17-2.76-7.17-7.97-14.33-12.64-20.74l-.4-.54c-1.32-1.8-2.61-3.55-3.78-5.24l-5.5-7.92,7.28,6.33c1.63,1.43,3.85,3.34,6.31,5.45l3.6,3.09c1.07.92,2.15,1.84,3.19,2.75.48.4.96.8,1.43,1.19-1.3-3.92-2.6-7.97-2.22-12.29.29-8.2,4.94-16.09,11.88-20.11,4.22-2.14,8.55-3.57,12.4-4.83,3.33-1.1,6.47-2.14,9.43-3.54,4.94-2.33,9.39-4.77,12.03-8.87-3.44,6.04-6.99,10.78-11.86,13.36Z"/></svg>