<?xml version="1.0" encoding="UTF-8"?>
<svg id="a" xmlns="http://www.w3.org/2000/svg" version="1.1" viewBox="0 0 1066 289.5">
  <!-- Generator: Adobe Illustrator 29.3.1, SVG Export Plug-In . SVG Version: 2.1.0 Build 151)  -->
  <defs>
    <style>
      .st0 {
        fill: #2d2d2d;
      }
    </style>
  </defs>
  <g>
    <path class="st0" d="M93.8,249.4H0V25.8h87.5c50.7,0,67.8,25.5,67.8,59.4s-8.7,33.9-24.3,45.3c21.6,11.7,33.9,32.7,33.9,56.4s-23.4,62.7-71.1,62.7ZM58.2,71.9v43.5h13.8c21,0,31.8-6.6,31.8-21.6s-6.9-21.9-30.9-21.9h-14.7ZM58.2,155v48.3h16.8c24.6,0,31.5-8.7,31.5-23.7s-10.5-24.6-31.8-24.6h-16.5Z"/>
    <path class="st0" d="M160.5,25.8h58.2v223.7h-58.2V25.8Z"/>
    <path class="st0" d="M350.5,76.7c-10.8-5.1-27.3-8.7-41.1-8.7s-24.6,4.2-24.6,12.9,11.1,16.8,30,35.1c35.4,33,46.5,51.9,46.5,75.3,0,38.7-36.3,61.8-82.1,61.8s-42-3.3-53.7-7.5l.3-49.5c12,4.5,33,10.2,52.8,10.2s23.7-6.3,23.7-14.4-10.2-19.8-30.3-38.4c-36-32.1-48.3-46.2-48.3-72.9s25.5-59.4,82.4-59.4,31.8,1.5,44.7,6l-.3,49.5Z"/>
    <path class="st0" d="M640.8,124.1v125.3h-58.2V25.8h55.5l92,125.9V25.8h58.2v223.7h-55.5l-92-125.3Z"/>
    <path class="st0" d="M830.6,78.2h-38.1V25.8h133.7v52.5h-37.5v171.2h-58.2V78.2Z"/>
    <path class="st0" d="M930.8,25.8h132.8v51.3h-74.7v36h66.6v46.5h-66.6v38.7h77.1v51.3h-135.2V25.8Z"/>
  </g>
  <g>
    <path class="st0" d="M567.5,98.1c9.2-10.5,10.6-22.3,11.1-26.2,1.7-14.4-3.3-25.5-5.7-30.8-10.5-23.3-31.3-35.3-42.7-40.4-1-.5-2-.7-3.1-.7-2.6,0-5,1.3-6.4,3.6-1.9,3.2-1.3,7.4,1.6,9.7,6.4,5.3,11.4,11.6,15,18.7,2.5,5.1,5.9,11.7,5.9,19.6-.4-.4-2.4-2.4-2.4-2.4-1.5-1.6-2.3-2.4-2.9-3.1-.7-.7-1.2-1.3-2.3-2.4-2.2-2.1-4.4-4.3-7.4-6.2.4-1.6.3-3.4-.3-4.9-1-2.4-3.1-4-5.7-4.5,0,0-.1,0-.2,0-3.1-.5-10.8-2-17.5-3.6,0-2.1-.9-4.2-2.6-5.7-1.1-.9-2.6-2.1-4.4-3-2.2-1.2-4.6-2.1-7-2.6-1.6-.3-3.1-.5-4.8-.5s-1.8,0-2.9.1c-2.1.2-4,.6-5.9.9l-1.7.3-5.2,1-3.2.6s-8.4-1.6-8.4-1.6l-1.6-.3c-1.9-.4-3.9-.8-6.1-1-1.1,0-2-.1-2.9-.1-1.7,0-3.3.2-4.8.5-2.4.5-4.8,1.4-6.9,2.5-1.5.8-3,1.8-4.5,3.1-1.7,1.5-2.6,3.6-2.6,5.7-6.7,1.6-14.4,3-17.6,3.6,0,0-.1,0-.2,0-2.5.4-4.6,2.1-5.7,4.5-.7,1.6-.8,3.3-.3,4.9-3.1,2-5.3,4.1-7.5,6.3-.9.9-1.4,1.5-2.1,2.1l-.7.7c-.6.6-1.3,1.4-2.4,2.5,0,0-2,2-2.5,2.5,0-7.9,3.4-14.5,5.9-19.6,3.6-7.1,8.6-13.4,15-18.7,2.9-2.4,3.6-6.6,1.6-9.8-1.4-2.2-3.8-3.6-6.4-3.6s-2.1.2-3.1.7c-11.4,5.1-32.2,17.1-42.7,40.4-2.4,5.3-7.4,16.3-5.7,30.8.5,3.9,1.9,15.7,11.1,26.1,1.5,1.7,3.1,3.3,4.8,4.8-1.2.4-2.8.5-4.5.5s-2.1,0-2.3-.1c-.3,0-.7,0-1,0-3.1,0-5.9,1.9-7,4.8-1.3,3.2-.1,6.9,2.7,8.9,4.5,3.1,11.8,7.2,21.5,8.6,1.1.2,2.2.3,3.3.4-.5,1-1.2,2.1-2,3.3-.6.9-1.2,1.9-1.7,2.7-1.7,2.8-4.4,7.4-7,13.6-1.2,2.9-.5,6.3,1.8,8.4.3.3.6.5.9.8-.9,2.2-1.8,4.4-2.6,6.6-2.9,8.2-4.8,16.7-5.7,25.3-.2,2.4.7,4.8,2.6,6.4.7.6,1.4,1,2.2,1.3-.5,5.9-.2,13.5,3,21.5,2.8,6.9,7,12.8,13.1,18,1.4,1.2,3.1,1.8,4.9,1.8s2.7-.4,3.9-1.1c.7-.4,1.3-.9,1.8-1.6,1.6,1.3,4.1,3.8,7.7,8.4v.2c2.5,3.2,6.7,8.2,12.7,14.1,1.4,1.4,3.3,2.1,5.2,2.1s.4,0,.7,0c.4,0,.8-.1,1.2-.2,4.4,7.6,10.1,14.2,16.9,19.7,6.2,5.1,13.1,9,21.1,11.8.8.3,1.7.4,2.5.4s1.7-.1,2.6-.5c7.9-2.9,14.8-6.7,21-11.8,6.8-5.5,12.5-12.1,17-19.7.4.1.8.2,1.2.2.2,0,.5,0,.7,0,2,0,3.8-.8,5.2-2.1,6-5.9,10.1-10.9,12.5-14l.2-.3c3.6-4.6,6.1-7.1,7.7-8.4.5.6,1.1,1.1,1.8,1.5,1.2.7,2.6,1.1,4,1.1s3.6-.7,4.9-1.8c5.9-5.1,10.3-11.2,13.1-18.1,3.2-8,3.5-15.6,3-21.4.8-.3,1.6-.7,2.2-1.3,1.8-1.6,2.8-4,2.6-6.4-.8-8.5-2.7-17-5.6-25.2-.8-2.3-1.7-4.5-2.6-6.7.3-.2.6-.5.9-.7,2.3-2.1,3-5.5,1.8-8.4-2.7-6.3-5.3-10.9-6.9-13.5-.6-1-1.2-1.9-1.8-2.9-.8-1.3-1.5-2.3-2-3.3,1.1,0,2.2-.2,3.3-.4,9.7-1.5,17-5.5,21.5-8.6,2.9-2,4-5.6,2.7-8.9-1.1-2.9-3.9-4.8-7-4.8s-.7,0-.9,0c-.8,0-1.6.1-2.4.1-1.7,0-3.3-.2-4.5-.5,1.7-1.5,3.3-3,4.8-4.7ZM556.4,102.8c0,.1.1.2.2.3,2.3,3.6,7.7,4.1,10.6,4.1s2.5-.1,2.8-.2c.2,0,.3,0,.5,0,1.5,0,2.9.9,3.5,2.4.6,1.6,0,3.4-1.3,4.4-4.1,2.9-11,6.7-19.9,8-2.3.3-4.6.5-7,.5s-.6,0-.9,0c.1,2.6,1.6,5.1,4,8.9.6.9,1.2,1.8,1.7,2.8,1.6,2.6,4.2,7,6.7,13,.6,1.5.3,3.1-.9,4.2-.7.7-1.6,1-2.6,1s-.8,0-1.2-.2c1.7,3.5,3.2,7,4.4,10.6,2.8,8,4.7,16.2,5.5,24.3.1,1.2-.4,2.4-1.3,3.2-.7.6-1.6.9-2.4.9s-.6,0-.9-.1l-.7-.2c1.1,6,1.4,14.5-2.2,23.6-2.5,6.3-6.6,11.9-12.1,16.6-.7.6-1.6.9-2.5.9s-1.4-.2-2-.6c-1.2-.8-1.9-2.1-1.8-3.5-.3,0-.8.2-1.4.4-1.6.7-5.2,3.1-11.2,11l-.2.2c-2.3,3-6.3,7.9-12.1,13.6-.7.7-1.6,1.1-2.6,1.1s-.2,0-.4,0c-1.1-.1-2.1-.7-2.7-1.6,0,0-.1-.1-.2-.2-4.4,8.7-10.5,16.1-18,22.1-5.9,4.8-12.4,8.5-19.9,11.2-.4.1-.9.2-1.3.2s-.9,0-1.3-.2c-7.5-2.7-14.1-6.4-19.9-11.2-7.5-6-13.5-13.5-18-22.1,0,0-.1.2-.2.2-.6.9-1.6,1.5-2.7,1.6-.1,0-.2,0-.4,0-1,0-1.9-.4-2.6-1.1-5.8-5.7-9.9-10.6-12.2-13.7v-.2c-6.2-7.9-9.8-10.3-11.4-11-.6-.2-1.1-.3-1.4-.4.1,1.4-.6,2.8-1.8,3.6-.6.4-1.3.5-2,.5s-1.8-.3-2.4-.9c-5.6-4.9-9.5-10.3-12.1-16.6-3.6-9.1-3.3-17.6-2.2-23.6l-.7.2c-.3,0-.6.1-.9.1-.9,0-1.8-.3-2.4-.9-.9-.8-1.4-2-1.3-3.2.8-8.2,2.6-16.4,5.5-24.4,1.3-3.6,2.7-7.1,4.4-10.6-.4.1-.8.2-1.2.2-.9,0-1.8-.3-2.6-1-1.2-1.1-1.5-2.8-.9-4.2,2.5-6,5.1-10.4,6.7-13.1.5-.9,1.1-1.8,1.7-2.7,2.4-3.8,3.9-6.3,4-8.9-.3,0-.6,0-.9,0-2.4,0-4.8-.2-7-.5-9-1.3-15.8-5.1-19.9-8-1.4-1-2-2.8-1.4-4.4.6-1.5,2-2.4,3.5-2.4s.3,0,.5,0c.3,0,1.4.2,2.8.2,3,0,8.3-.5,10.6-4,0-.1.1-.2.2-.3-3.1-2-5.9-4.4-8.3-7.2-8.5-9.6-9.7-20.5-10.2-24.1-1.6-13.4,3.1-23.8,5.4-28.8,10-22.2,29.9-33.7,40.8-38.5.5-.2,1-.3,1.5-.3,1.3,0,2.5.6,3.2,1.8,1,1.6.6,3.7-.8,4.9-6.8,5.6-12.2,12.3-16,19.9-3.2,6.4-8,16.1-5.7,27.8.6,3.3,1.8,6.4,3.4,9.4l2.1-4.5-1.5-1.5c-.7-.7-1.2-1.7-1.1-2.7,0-1,.4-2,1.2-2.7,1-1,2.6-2.5,4.3-4.3,1.5-1.6,2.3-2.4,3-3.1.7-.7,1.2-1.3,2.1-2.2,2.5-2.4,4.7-4.6,8.2-6.5.6-.3,1.1-.7,1.7-1l-.9-1.3c-.7-1.1-.9-2.4-.4-3.6.5-1.2,1.6-2,2.8-2.2.1,0,10.5-1.8,18.9-3.9,1.1-.3,2.1-.5,3-.8,0,0,0,0-.1-.1-1.3-1.6-1.2-3.9.4-5.3,1.3-1.1,2.5-2,3.8-2.6,1.8-1,3.9-1.8,6-2.2,1.3-.3,2.6-.4,4-.4s1.6,0,2.5.1c2,.2,4,.6,5.9.9l1.4.3s5.9,1.1,6.1,1.1l3,.6,3.9-.7,5.2-1,1.4-.3c1.9-.4,3.8-.8,5.9-.9.9,0,1.7-.1,2.5-.1,1.4,0,2.7.1,4,.4,2.1.4,4.1,1.2,6.1,2.2,1.5.7,2.8,1.8,3.7,2.6,1.6,1.4,1.7,3.7.4,5.3,0,0,0,0-.1.1.9.3,1.8.5,2.9.8,8.4,2.1,18.9,3.9,19,3.9,1.3.2,2.3,1,2.8,2.2.5,1.2.4,2.5-.3,3.6l-.9,1.3c.6.3,1.2.6,1.8,1,3.3,1.9,5.6,4.1,8,6.5,1,1,1.5,1.5,2.2,2.3.7.7,1.5,1.5,3,3.1l.6.6c1.6,1.6,2.8,2.8,3.7,3.6.8.7,1.2,1.7,1.2,2.7,0,1-.4,2-1.1,2.7l-1.5,1.5,2.1,4.5c1.6-3,2.8-6.1,3.4-9.4,2.3-11.7-2.5-21.3-5.7-27.7-3.8-7.6-9.2-14.3-16-20-1.4-1.2-1.8-3.3-.8-4.9.7-1.1,1.9-1.8,3.2-1.8s1,.1,1.5.3c10.9,4.9,30.8,16.3,40.8,38.5,2.3,5,7,15.4,5.4,28.8-.4,3.6-1.7,14.5-10.2,24.1-2.4,2.8-5.2,5.2-8.3,7.2Z"/>
    <path class="st0" d="M561.8,93.1c7.5-8.6,8.8-18.3,9.3-22.1,1.4-12.1-2.7-21.5-5.1-26.8-10.2-22.6-31.3-33.2-38.9-36.6,9.5,7.8,14.5,16.2,16.9,21.2,3.4,6.7,8.6,17.2,6,30.2-1.5,7.7-5.2,13.3-7.7,16.4l-6-13,3.5-3.4c-1.1-1-2.6-2.5-4.4-4.4-3.1-3.2-3.2-3.5-5.1-5.3-2.5-2.4-4.4-4.3-7.4-5.9-2.3-1.4-4.2-2.1-5.6-2.6l3.5-5.1s-10.6-1.8-19.2-4c-8.6-2.1-11.1-4.7-11.3-6,0-.5,0-1.1.6-1.3.9-.4,2-.4,3-.4.5,0,1.1,0,1.6.2.4,0,1.2.2,1.5.4-.9-.8-1.9-1.6-3-2.1-1.6-.9-3.3-1.5-5.1-1.9-1.8-.4-3.6-.4-5.4-.2-2.3.2-4.6.7-6.9,1.2-1.7.3-3.4.6-5.1,1-.3,0-.6.1-.9.2l-3.8.7-3.8-.7c-.3,0-.6-.1-.9-.2-1.7-.3-3.4-.6-5.1-1-2.3-.4-4.6-.9-6.9-1.2-1.8-.2-3.6-.2-5.4.2-1.8.4-3.5,1-5.1,1.9-1.1.5-2.1,1.3-3,2.1.3-.3,1.1-.4,1.5-.4.5-.1,1-.2,1.6-.2,1,0,2.1,0,3,.4.5.2.7.7.6,1.3-.2,1.4-2.7,3.9-11.3,6-8.6,2.2-19.2,4-19.2,4l3.5,5.1c-1.4.5-3.3,1.2-5.6,2.6-2.9,1.7-4.9,3.5-7.4,5.9-1.9,1.9-2,2.2-5.1,5.3-1.9,1.9-3.4,3.4-4.4,4.4l3.5,3.4-6,13c-2.4-3.1-6.1-8.7-7.7-16.4-2.6-12.9,2.7-23.4,6-30.2,2.5-5,7.5-13.3,16.9-21.2-7.7,3.4-28.7,14-38.9,36.6-2.4,5.3-6.5,14.7-5.1,26.8.4,3.8,1.7,13.5,9.3,22.1,3.6,4.1,7.4,6.6,10,8-.3,1.7-.9,3.1-1.6,4.1-4.7,7.1-16.5,5.6-17,5.5,3.5,2.5,9.8,6.1,18.3,7.4,4.1.6,7.7.5,10.6.3.2.5.4,1.1.5,2,.8,5.6-2.8,9.8-6.2,15.5-1.8,2.9-4.1,7.1-6.5,12.5,1.4-.7,3.2-1.5,5.6-1.8,1.1-.2,2.2-.2,3-.2-2.8,4.6-5.8,10.4-8.3,17.4-3.2,9-4.7,17.1-5.3,23.4l6.8-1.7c-1.1,3.2-4.6,14.7.5,27.4,3.2,7.8,8.2,12.7,11,15.2,0-.3-.5-1.7.4-2.9,0,0,.3-.5.8-.8,1.9-1.1,4.9,0,5.3.2,5.3,2.3,11.7,10.7,13,12.4,2.5,3.3,6.4,8,11.8,13.2.3-.5.9-1.3,2-2,1.4-.8,2.8-.7,3.2-.6,2.6,5.6,7.9,15.2,18.3,23.7,7,5.7,13.9,8.8,18.9,10.6,5-1.8,11.9-4.9,18.9-10.6,10.4-8.4,15.8-18.1,18.3-23.7.5,0,1.8-.1,3.2.6,1.1.7,1.7,1.5,2,2,5.4-5.3,9.3-9.9,11.8-13.2,1.3-1.7,7.7-10.1,13-12.4.5-.1,3.5-1.4,5.3-.2.5.3.8.8.8.8.8,1.2.5,2.6.4,2.9,2.9-2.5,7.9-7.4,11-15.2,5-12.7,1.6-24.2.5-27.4l6.8,1.7c-.6-6.3-2-14.4-5.3-23.4-2.5-7.1-5.5-12.8-8.3-17.4.8,0,1.9,0,3,.2,2.3.3,4.2,1.1,5.6,1.8-2.3-5.5-4.7-9.7-6.5-12.5-3.5-5.7-7-9.9-6.2-15.5,0-.9.3-1.6.5-2,2.9.2,6.5.3,10.6-.3,8.5-1.3,14.8-4.9,18.3-7.4-.5,0-12.4,1.7-17-5.5-.7-1-1.3-2.3-1.6-4.1,2.6-1.5,6.4-3.9,10-8ZM440.1,186.5l-2.8,3.7-.3-4.7-.4-6.5c-.4.5-4.1,5.2-4.1,5.2l.3-3c.2-1.8.2-3.7.2-5.5v-.6c0-1.9,0-3.9.3-5.8l-1.1,1.8-2.4,3.5.7-4.2c.3-1.8.6-3.8.9-6.3.6-3.9,1.1-7.9,2-11.9-.7.7-3,2.8-3,2.8l-3.8,3.7,1.1-3.4c.4-1.3.8-2.6,1.2-4l.3-1.1c1-3.2,2-6.7,3.3-10.2,0,0-1.8,1.6-1.8,1.6v-2.1c.2-4.1,1.3-7.5,2.3-10.6,1-3,1.9-5.8,1.9-8.9.2-10.3-8.5-13.5-17-16.7-1.6-.6-3-1.1-4.3-1.7-3.7-2-6.4-5.6-9-10.2,2,3.1,5.4,5,9.2,6.7,2.3,1.1,4.6,1.9,7.2,2.7,2.9,1,6.2,2.1,9.4,3.7,5.3,3.1,8.8,9.1,9,15.3.3,3.3-.7,6.4-1.7,9.4.4-.3.7-.6,1.1-.9.8-.7,1.6-1.4,2.4-2.1l2.7-2.4c1.9-1.6,3.6-3.1,4.8-4.2l5.5-4.8-4.2,6c-.9,1.3-1.9,2.6-2.9,4l-.3.4c-3.6,4.9-7.5,10.3-9.6,15.8,2.5-2.3,4.7-4.5,5.7-5.5l3.4-3.3-2.9,6.4c-2.1,4.6-4.4,9.9-5.6,14.5.6-.8,1.1-1.6,1.5-2.2l2.6-4-1.3,6.4c-.8,3.9-2.2,11.1-3,14.7-.2,1.1-.4,2.2-.4,3.4l2.9-3.4v12.8c1.8-1.6,3.8-3,5.8-4.3,3.5-2.1,7.7-3.2,12.2-4.2-7.4,2.3-13.7,7.7-18.1,13.8ZM486.7,189.1c-1.4.7-3,1.1-4.5,1.4-4.2.7-7,2.3-7.9,4.5-1.1,2.6.1,6.3,3.6,10.7.2.3.4.6.7.9l.2.2c.7.9,1.7,1.9,1.9,3.3.2.9,0,1.8-.5,2.7-1.1,1.5-3.2,2.2-4.3,2.3-1.8.4-4.4.6-7.7.6s-4.5,0-6.4-.2h-.1s-.2,0-.2,0c-2-.2-5.2-.5-6.7-2.4-.7-.8-.9-1.8-.8-3,.3-1.4,1.2-2.5,1.9-3.4v-.2c.4-.3.6-.6.8-.8,3.5-4.4,4.8-8.1,3.6-10.8-1-2.3-3.7-3.8-7.9-4.5-1.6-.3-3.1-.7-4.5-1.4l-.6-.3,2.9-.2c.8,0,1.5,0,2.2,0,5.8,0,9.7,1.8,11.3,5.2,1.9,4.1.1,10.6-4.6,16.5,1.5.4,3.5.4,5.5.4h5.4c2.1,0,4.1,0,5.6-.4-4.8-6.1-6.6-12.4-4.6-16.5,1.6-3.4,5.5-5.2,11.4-5.2s1.4,0,2.1,0l2.9.2-.6.3ZM519.6,101.6c-1.3.5-2.6,1.1-4.3,1.7-8.4,3.2-17.2,6.4-17,16.7,0,3.1.9,5.9,1.9,8.9,1,3,2.1,6.5,2.2,10.6v2.1c0,0-1.6-1.5-1.7-1.6,1.3,3.4,2.4,7,3.3,10.2l.3,1.1c.4,1.3.8,2.7,1.2,4l1.1,3.4-3.8-3.7s-2.3-2.1-3-2.8c.9,3.9,1.5,8,2,11.9.4,2.5.6,4.5.9,6.3l.7,4.2-2.4-3.5-1.1-1.8c.2,1.9.2,3.9.2,5.8v.6c0,1.8,0,3.7.2,5.5l.3,3s-3.7-4.7-4.1-5.2l-.4,6.5-.3,4.7-2.8-3.7c-4.4-6.1-10.7-11.6-18.1-13.8,4.5,1,8.6,2.1,12.2,4.2,2.1,1.2,4,2.7,5.7,4.3v-7.5c.1,0,.1-5.3.1-5.3l2.9,3.4c0-1.2-.2-2.3-.4-3.4-.8-3.7-2.2-10.8-3-14.7l-1.3-6.4,2.6,4c.4.6.9,1.4,1.5,2.2-1.2-4.6-3.5-9.9-5.6-14.5l-2.9-6.4,3.4,3.3c1,1,3.3,3.1,5.7,5.5-2.1-5.5-6.1-10.9-9.6-15.8l-.3-.4c-1-1.4-2-2.7-2.9-4l-4.2-6,5.5,4.8c1.2,1.1,2.9,2.5,4.8,4.2l2.7,2.4c.8.7,1.6,1.4,2.4,2.1.4.3.7.6,1.1.9-1-3-2-6.1-1.7-9.4.2-6.2,3.8-12.2,9-15.3,3.2-1.6,6.5-2.7,9.4-3.7,2.5-.8,4.9-1.6,7.2-2.7,3.8-1.8,7.1-3.6,9.2-6.7-2.6,4.6-5.3,8.2-9,10.2Z"/>
  </g>
</svg>