<?xml version="1.0" encoding="UTF-8"?>
<svg id="Capa_1" xmlns="http://www.w3.org/2000/svg" version="1.1" viewBox="0 0 65.9 65.9">
  <!-- Generator: Adobe Illustrator 29.3.1, SVG Export Plug-In . SVG Version: 2.1.0 Build 151)  -->
  <defs>
    <style>
      .st0 {
        fill: #2d2d2d;
      }
    </style>
  </defs>
  <path class="st0" d="M44.5,0l5.1.4c7.7,1.1,13.6,5.8,15.4,13.5l.7,4.6c-.4,9.3.5,19.1,0,28.4-.7,13.4-8.9,18.5-21.5,18.9s-15.8.2-23.2-.1-8.2-.5-12-2.7C-1.4,56.9.1,44.4.1,34.1S-.7,16.8,2.1,10.4,13.2.3,21.3,0h23.2ZM22.9,6.1c-4.2.1-8.9.2-12.4,3s-4.1,7.6-4.3,12.4c-.3,7.4-.3,15.4,0,22.9.4,10.6,3.4,14.7,14.3,15.2s16,.4,23.9.1,14.7-3.9,15.2-14.7.4-16.5,0-24.3-.3-7.1-2.8-10.1c-3.5-4.3-8.2-4.3-13.4-4.5s-13.8-.3-20.6,0Z"/>
  <path class="st0" d="M49.9,32.9c0,9.4-7.6,16.9-16.9,16.9s-16.9-7.6-16.9-16.9,7.6-16.9,16.9-16.9,16.9,7.6,16.9,16.9ZM43.9,32.9c0-6-4.9-10.9-10.9-10.9s-10.9,4.9-10.9,10.9,4.9,10.9,10.9,10.9,10.9-4.9,10.9-10.9Z"/>
  <circle class="st0" cx="50.5" cy="15.3" r="4"/>
</svg>