<?xml version="1.0" encoding="UTF-8"?><svg id="a" xmlns="http://www.w3.org/2000/svg" viewBox="0 0 491.74 247.91"><defs><style>.b{isolation:isolate;}.c{fill:#20a867;}</style></defs><g class="b"><path class="c" d="M0,37.28C0,14.48,14.11,0,36.92,0c9.77,0,19.9,3.98,24.25,10.5,4.34-6.88,14.48-10.5,24.25-10.5,22.8,0,36.92,14.48,36.92,37.28v210.63h-25.33V39.81c0-9.41-2.9-15.56-11.58-15.56s-11.58,6.15-11.58,15.56v208.1h-25.33V39.81c0-9.41-2.9-15.56-11.58-15.56s-11.58,6.15-11.58,15.56v208.1H0V37.28Z"/><path class="c" d="M211.35,0h4.62v24.06h-4.01c-28.99,0-52.5,23.5-52.5,52.5h0s45.57,0,45.57,0v24.06h-45.57v123.22h61.98v24.06h-87.5V77.41C133.94,34.66,168.6,0,211.35,0Z"/><path class="c" d="M231.17,42.71c0-22.8,16.29-42.71,41.98-42.71h2.9c25.7,0,41.98,19.9,41.98,42.71v205.2h-25.33V41.62c0-9.41-6.51-17.37-17.01-17.37h-2.17c-10.5,0-17.01,7.96-17.01,17.37v206.29h-25.33V42.71Z"/><path class="c" d="M416.58,1.81h-110.24c7.86,5.89,13.8,14.14,17.01,23.89h25.44v222.21h25.33V25.7h25.44c3.21-9.75,9.15-18,17.01-23.89Z"/><path class="c" d="M404.88,42.71c0-22.8,16.29-42.71,41.98-42.71h2.9c25.7,0,41.98,19.9,41.98,42.71v205.2h-25.33v-50.31h-36.19v50.31h-25.33V42.71ZM466.41,173.72V41.26c0-9.41-6.51-17.37-17.01-17.37h-2.17c-10.5,0-17.01,7.96-17.01,17.37v132.46h36.19Z"/></g></svg>