<?xml version="1.0" encoding="UTF-8"?><svg id="a" xmlns="http://www.w3.org/2000/svg" viewBox="0 0 696.08 278.45"><defs><style>.b{fill:#20a867;}</style></defs><path class="b" d="M0,41.88C0,16.27,15.85,0,41.46,0,52.44,0,63.82,4.48,68.7,11.8,73.57,4.07,84.96,0,95.93,0,121.54,0,137.39,16.27,137.39,41.88v236.58h-28.45V44.72c0-10.57-3.25-17.48-13.01-17.48s-13.01,6.91-13.01,17.48v233.73h-28.45V44.72c0-10.57-3.25-17.48-13.01-17.48s-13.01,6.91-13.01,17.48v233.73H0V41.88Z"/><path class="b" d="M243.32,0h11.63v26.83h-10.57c-32.33,0-58.53,26.21-58.53,58.53h0s50.81,0,50.81,0v26.83h-50.81v139.43h69.1v26.83h-97.56V85.93C157.39,38.47,195.86,0,243.32,0Z"/><path class="b" d="M274.95,47.97C274.95,22.36,293.24,0,322.1,0h3.25c28.86,0,47.15,22.36,47.15,47.97v230.48h-28.45V46.75c0-10.57-7.32-19.51-19.11-19.51h-2.44c-11.79,0-19.11,8.94-19.11,19.51v231.7h-28.45V47.97Z"/><path class="b" d="M412.51,26.83h-34.55V0h97.56v26.83h-34.55v251.63h-28.45V26.83Z"/><path class="b" d="M480.96,0h28.45v193.49h40.65V0h28.45v278.45h-28.45v-58.14h-40.65v58.14h-28.45V0Z"/><path class="b" d="M598.52,47.97C598.52,22.36,616.81,0,645.67,0h3.25c28.86,0,47.15,22.36,47.15,47.97v230.48h-28.45v-56.5h-40.65v56.5h-28.45V47.97ZM667.62,195.12V46.35c0-10.57-7.32-19.51-19.11-19.51h-2.44c-11.79,0-19.11,8.94-19.11,19.51v148.78h40.65Z"/></svg>