<?xml version="1.0" encoding="UTF-8"?><svg id="a" xmlns="http://www.w3.org/2000/svg" viewBox="0 0 645.01 280.49"><defs><style>.b{fill:#232323;}</style></defs><path class="b" d="M-25.53,40.53C-25.53,14.93-9.68-1.33,15.93-1.33c10.98,0,22.36,4.47,27.23,11.79C48.04,2.73,59.42-1.33,70.4-1.33c25.61,0,41.46,16.26,41.46,41.87v236.58h-28.45V43.38c0-10.57-3.25-17.48-13.01-17.48s-13.01,6.91-13.01,17.48v233.73h-28.45V43.38c0-10.57-3.25-17.48-13.01-17.48s-13.01,6.91-13.01,17.48v233.73h-28.45V40.53Z"/><path class="b" d="M217.79-1.34h11.63v26.83h-10.57c-32.33,0-58.53,26.21-58.53,58.53h0s50.81,0,50.81,0v26.83h-50.81v139.43h69.1v26.83h-97.56V84.59C131.86,37.13,170.33-1.34,217.79-1.34Z"/><path class="b" d="M249.42,46.63c0-25.61,18.29-47.97,47.15-47.97h3.25c28.86,0,47.15,22.36,47.15,47.97v230.48h-28.45V45.41c0-10.57-7.32-19.51-19.11-19.51h-2.44c-11.79,0-19.11,8.94-19.11,19.51v231.7h-28.45V46.63Z"/><path class="b" d="M386.98,25.49h-34.55V-1.34h97.56v26.83h-34.55v251.63h-28.45V25.49Z"/><path class="b" d="M455.43-1.34h28.45v193.49h40.65V-1.34h28.45v278.45h-28.45v-58.14h-40.65v58.14h-28.45V-1.34Z"/><path class="b" d="M572.99,46.63c0-25.61,18.29-47.97,47.15-47.97h3.25c28.86,0,47.15,22.36,47.15,47.97v230.48h-28.45v-56.5h-40.65v56.5h-28.45V46.63ZM642.09,193.78V45.01c0-10.57-7.32-19.51-19.11-19.51h-2.44c-11.79,0-19.11,8.94-19.11,19.51v148.78h40.65Z"/></svg>