<?xml version="1.0" encoding="UTF-8"?><svg id="a" xmlns="http://www.w3.org/2000/svg" viewBox="0 0 1080 1080"><defs><style>.b{fill:#232323;}.c{fill:#40c682;}.d{isolation:isolate;}</style></defs><rect class="b" width="1080" height="1080"/><g class="d"><path class="c" d="M247.52,444.32c0-22.8,14.11-37.28,36.92-37.28,9.77,0,19.9,3.98,24.25,10.5,4.34-6.88,14.48-10.5,24.25-10.5,22.8,0,36.92,14.48,36.92,37.28v210.63h-25.33v-208.1c0-9.41-2.9-15.56-11.58-15.56s-11.58,6.15-11.58,15.56v208.1h-25.33v-208.1c0-9.41-2.9-15.56-11.58-15.56s-11.58,6.15-11.58,15.56v208.1h-25.33v-210.63Z"/><path class="c" d="M458.87,407.04h4.62v24.06h-4.01c-28.99,0-52.5,23.5-52.5,52.5h0s45.57,0,45.57,0v24.06h-45.57v123.22h61.98v24.06h-87.5v-170.5c0-42.75,34.66-77.41,77.41-77.41Z"/><path class="c" d="M478.68,449.75c0-22.8,16.29-42.71,41.98-42.71h2.9c25.7,0,41.98,19.9,41.98,42.71v205.2h-25.33v-206.29c0-9.41-6.51-17.37-17.01-17.37h-2.17c-10.5,0-17.01,7.96-17.01,17.37v206.29h-25.33v-205.2Z"/><path class="c" d="M664.09,408.85h-110.24c7.86,5.89,13.8,14.14,17.01,23.89h25.44v222.21h25.33v-222.21h25.44c3.21-9.75,9.15-18,17.01-23.89Z"/><path class="c" d="M652.4,449.75c0-22.8,16.29-42.71,41.98-42.71h2.9c25.7,0,41.98,19.9,41.98,42.71v205.2h-25.33v-50.31h-36.19v50.31h-25.33v-205.2ZM713.92,580.76v-132.46c0-9.41-6.51-17.37-17.01-17.37h-2.17c-10.5,0-17.01,7.96-17.01,17.37v132.46h36.19Z"/></g></svg>