<?xml version="1.0" encoding="UTF-8"?><svg id="a" xmlns="http://www.w3.org/2000/svg" viewBox="0 0 336.7 30.69"><defs><style>.b{fill:#d8d8d8;}</style></defs><path class="b" d="M21.72,27.71c-2.17,1.97-4.93,2.98-8.31,2.98-4.16,0-7.45-1.34-9.84-4.01-2.39-2.7-3.57-6.38-3.57-11.05C0,10.56,1.36,6.66,4.08,3.92,6.42,1.53,9.43.33,13.09.33c4.89,0,8.44,1.6,10.7,4.8,1.25,1.8,1.91,3.59,2.02,5.41h-6.05c-.39-1.38-.9-2.43-1.51-3.16-1.1-1.25-2.74-1.89-4.89-1.89s-3.95.9-5.22,2.67c-1.27,1.78-1.91,4.3-1.91,7.54s.68,5.68,2.02,7.3,3.05,2.43,5.13,2.43,3.75-.7,4.87-2.08c.61-.75,1.12-1.86,1.53-3.35h6.01c-.53,3.16-1.86,5.72-4.01,7.72l-.04-.02Z"/><path class="b" d="M43.33,30.69c-4.14,0-7.32-1.12-9.49-3.38-2.94-2.76-4.41-6.75-4.41-11.97s1.47-9.29,4.41-11.97c2.19-2.26,5.35-3.38,9.49-3.38s7.32,1.12,9.49,3.38c2.92,2.65,4.38,6.64,4.38,11.97s-1.47,9.18-4.38,11.97c-2.19,2.26-5.35,3.38-9.49,3.38ZM49.05,22.91c1.4-1.78,2.1-4.3,2.1-7.56s-.7-5.76-2.1-7.54-3.31-2.67-5.72-2.67-4.32.88-5.74,2.65c-1.42,1.78-2.15,4.3-2.15,7.56s.72,5.79,2.15,7.56c1.42,1.78,3.35,2.65,5.74,2.65s4.32-.88,5.72-2.65Z"/><path class="b" d="M85.46,29.88h-6.05l-11.84-20.6v20.6h-5.66V.88h6.36l11.55,20.23V.88h5.66v29h-.02Z"/><path class="b" d="M101.79,25.69c1.42,0,2.59-.15,3.49-.48,1.69-.61,2.54-1.73,2.54-3.35,0-.96-.42-1.69-1.25-2.21-.83-.5-2.15-.96-3.95-1.36l-3.07-.68c-3.02-.68-5.11-1.42-6.25-2.21-1.95-1.34-2.94-3.42-2.94-6.27,0-2.59.94-4.76,2.83-6.47S97.87.07,101.53.07c3.05,0,5.66.81,7.83,2.43,2.15,1.62,3.29,3.97,3.4,7.06h-5.83c-.11-1.75-.85-2.98-2.28-3.73-.94-.48-2.13-.72-3.53-.72-1.56,0-2.81.31-3.75.94-.92.64-1.4,1.51-1.4,2.63,0,1.03.46,1.82,1.38,2.32.59.35,1.84.75,3.77,1.21l5,1.21c2.19.53,3.84,1.23,4.95,2.1,1.73,1.36,2.59,3.33,2.59,5.92s-1.01,4.84-3.05,6.6c-2.02,1.75-4.89,2.63-8.59,2.63s-6.75-.85-8.92-2.59c-2.17-1.73-3.24-4.1-3.24-7.1h5.79c.18,1.32.55,2.32,1.07,2.98.99,1.18,2.67,1.8,5.06,1.8l.02-.07Z"/><path class="b" d="M139.36.88v5.13h-8.68v23.87h-6.09V6.03h-8.72V.88s23.5,0,23.5,0Z"/><path class="b" d="M155.38,18.5h-6.25v11.38h-5.92V.88h14.23c2.04.04,3.59.28,4.69.75,1.1.46,2.02,1.14,2.78,2.02.64.75,1.12,1.56,1.49,2.43.37.9.55,1.91.55,3.05,0,1.38-.35,2.74-1.05,4.06-.7,1.34-1.84,2.28-3.44,2.83,1.34.55,2.28,1.29,2.85,2.3.55.99.83,2.5.83,4.54v1.95c0,1.32.04,2.21.15,2.7.15.75.53,1.29,1.1,1.64v.72h-6.66c-.18-.64-.31-1.16-.39-1.56-.15-.81-.24-1.64-.26-2.5l-.04-2.7c-.02-1.84-.37-3.09-1.01-3.7-.66-.61-1.86-.92-3.64-.92v.02ZM159.07,13.24c1.21-.55,1.82-1.64,1.82-3.27,0-1.75-.59-2.94-1.75-3.55-.66-.35-1.64-.5-2.96-.5h-7.04v7.78h6.86c1.36,0,2.39-.15,3.07-.48v.02Z"/><path class="b" d="M189.47,18.7V.88h6.16v17.82c0,3.09-.48,5.48-1.42,7.19-1.78,3.16-5.19,4.71-10.21,4.71s-8.44-1.58-10.24-4.71c-.96-1.71-1.45-4.12-1.45-7.19V.88h6.16v17.82c0,1.99.24,3.44.7,4.36.75,1.62,2.32,2.43,4.8,2.43s4.06-.81,4.78-2.43c.48-.92.7-2.37.7-4.36h.02Z"/><path class="b" d="M222.04,27.71c-2.17,1.97-4.93,2.98-8.31,2.98-4.16,0-7.45-1.34-9.84-4.01-2.39-2.7-3.57-6.38-3.57-11.05,0-5.06,1.36-8.96,4.08-11.7,2.37-2.39,5.37-3.57,9.01-3.57,4.89,0,8.44,1.6,10.7,4.8,1.25,1.8,1.91,3.59,2.02,5.41h-6.05c-.39-1.38-.9-2.43-1.51-3.16-1.1-1.25-2.74-1.89-4.89-1.89s-3.95.9-5.22,2.67c-1.27,1.78-1.91,4.3-1.91,7.54s.68,5.68,2.02,7.3,3.05,2.43,5.13,2.43,3.75-.7,4.87-2.08c.61-.75,1.12-1.86,1.53-3.35h6.01c-.53,3.16-1.86,5.72-4.01,7.72l-.04-.04Z"/><path class="b" d="M241.35,25.69c1.42,0,2.59-.15,3.49-.48,1.69-.61,2.54-1.73,2.54-3.35,0-.96-.42-1.69-1.25-2.21-.83-.5-2.15-.96-3.95-1.36l-3.07-.68c-3.02-.68-5.11-1.42-6.25-2.21-1.95-1.34-2.94-3.42-2.94-6.27,0-2.59.94-4.76,2.83-6.47S237.43.07,241.09.07c3.05,0,5.66.81,7.83,2.43,2.15,1.62,3.29,3.97,3.4,7.06h-5.83c-.11-1.75-.85-2.98-2.28-3.73-.94-.48-2.13-.72-3.53-.72-1.56,0-2.81.31-3.75.94-.92.64-1.4,1.51-1.4,2.63,0,1.03.46,1.82,1.38,2.32.59.35,1.84.75,3.77,1.21l5,1.21c2.19.53,3.84,1.23,4.95,2.1,1.73,1.36,2.59,3.33,2.59,5.92s-1.01,4.84-3.05,6.6c-2.02,1.75-4.89,2.63-8.59,2.63s-6.75-.85-8.92-2.59-3.24-4.1-3.24-7.1h5.79c.18,1.32.55,2.32,1.07,2.98.99,1.18,2.67,1.8,5.06,1.8l.02-.07Z"/><path class="b" d="M278.04,17.21h-14.09v7.45h16.04v5.22h-21.96V.88h21.26v5.13h-15.34v6.16h14.09s0,5.04,0,5.04Z"/><path class="b" d="M297.2,18.5h-6.25v11.38h-5.92V.88h14.23c2.04.04,3.59.28,4.69.75,1.1.46,2.02,1.14,2.78,2.02.64.75,1.12,1.56,1.49,2.43.37.9.55,1.91.55,3.05,0,1.38-.35,2.74-1.05,4.06-.7,1.34-1.84,2.28-3.44,2.83,1.34.55,2.28,1.29,2.85,2.3.55.99.83,2.5.83,4.54v1.95c0,1.32.04,2.21.15,2.7.15.75.53,1.29,1.1,1.64v.72h-6.66c-.18-.64-.31-1.16-.39-1.56-.15-.81-.24-1.64-.26-2.5l-.04-2.7c-.02-1.84-.37-3.09-1.01-3.7-.66-.61-1.86-.92-3.64-.92v.02ZM300.88,13.24c1.21-.55,1.82-1.64,1.82-3.27,0-1.75-.59-2.94-1.75-3.55-.66-.35-1.64-.5-2.96-.5h-7.04v7.78h6.86c1.36,0,2.39-.15,3.07-.48v.02Z"/><path class="b" d="M311.29.88h6.47l6.29,22.01,6.36-22.01h6.29l-9.89,29h-5.72l-9.8-29h0Z"/></svg>