<?xml version="1.0" encoding="UTF-8"?><svg id="a" xmlns="http://www.w3.org/2000/svg" viewBox="0 0 355.07 24.32"><defs><style>.b{fill:#d8d8d8;}</style></defs><path class="b" d="M0,.32h6.05c1.77,0,3.1.51,4,1.54.9,1.03,1.34,2.57,1.32,4.62,0,2.13-.43,3.72-1.28,4.78-.86,1.06-2.34,1.58-4.46,1.58h-.93v10.65h1.61v.56H0v-.56h1.6V.89H0V.32ZM8.07,8.25v-3.06c.03-.98-.05-1.97-.26-2.93-.09-.52-.43-.95-.92-1.15-.71-.18-1.45-.25-2.18-.22v11.39h.97c.68.05,1.34-.23,1.79-.74.38-.49.6-1.57.6-3.29Z"/><path class="b" d="M30.14,6.83c-.28-2.04-.78-3.59-1.49-4.65s-1.56-1.58-2.53-1.58c-.65,0-1.25.32-1.62.86-.46.65-.69,1.44-.66,2.24,0,1.01.22,2,.68,2.9.71,1.24,1.57,2.38,2.57,3.41,1.44,1.48,2.69,3.13,3.72,4.92.67,1.24,1.04,2.62,1.05,4.03.04,1.41-.47,2.79-1.43,3.83-.95,1.02-2.28,1.53-3.97,1.53-1.02-.03-2-.41-2.76-1.09-.2-.21-.46-.37-.75-.44-.63,0-.98.44-1.05,1.32h-.55v-7.43h.55c.26,2.29.84,4.04,1.71,5.27.88,1.22,1.84,1.84,2.88,1.84.75.04,1.48-.28,1.96-.86.51-.71.75-1.57.69-2.44-.01-1.21-.33-2.39-.92-3.44-.87-1.49-1.93-2.86-3.14-4.08-1.12-1.14-2.1-2.41-2.9-3.8-.57-1-.87-2.14-.88-3.29,0-1.86.46-3.29,1.37-4.31C23.52.56,24.78,0,26.1.03c.9.04,1.77.33,2.51.84.26.2.56.34.88.4.44,0,.67-.27.67-.82v-.13h.56v6.51h-.59Z"/><path class="b" d="M47.14.89h-1.6v22.61h1.57v.56h-6.27v-.56h1.6V.89h-1.6V.32h6.3v.56Z"/><path class="b" d="M65.86,24.06h-.55c-.18-.4-.44-.76-.75-1.08-.51.81-1.39,1.31-2.35,1.32-1.84,0-3.23-1.06-4.17-3.18-.94-2.12-1.42-5.21-1.42-9.27,0-3.78.43-6.7,1.28-8.76S60.18,0,62.18,0c.82,0,1.52.44,2.11,1.35.32-.3.57-.66.75-1.06h.56v5.74h-.56c-.26-1.44-.68-2.84-1.27-4.18-.45-.88-.98-1.32-1.59-1.32-.68.02-1.28.43-1.55,1.05-.45.86-.66,1.83-.61,2.8v15.74c-.03.92.18,1.84.63,2.65.3.62.92,1.02,1.61,1.04.81,0,1.45-.5,1.9-1.51.59-1.55.98-3.17,1.16-4.82h.55v6.59Z"/><path class="b" d="M80.72.03c1.87,0,3.26.97,4.16,2.9s1.36,4.92,1.36,8.96c0,4.14-.47,7.25-1.4,9.32s-2.33,3.1-4.19,3.09c-1.84,0-3.23-1.06-4.17-3.18-.94-2.12-1.42-5.21-1.42-9.27,0-3.78.42-6.7,1.27-8.76C77.18,1.03,78.6,0,80.61,0l.11.03ZM82.85,20.12V4.1c.05-.89-.17-1.78-.63-2.54-.33-.58-.94-.95-1.61-.96-.67.03-1.27.42-1.56,1.03-.45.86-.66,1.82-.61,2.78v15.71c-.04.92.18,1.84.63,2.65.32.61.95,1,1.65,1.01.66-.03,1.24-.42,1.52-1.01.43-.81.64-1.73.6-2.65Z"/><path class="b" d="M105.83,17.47l-.08,6.59h-10.04v-.57h1.6V.89h-1.6V.32h6.3v.56h-1.6v22.61h.86c1.1.05,2.14-.51,2.72-1.45.63-.97,1.05-2.49,1.27-4.58h.56Z"/><path class="b" d="M120.62.03c1.87,0,3.26.97,4.16,2.9s1.36,4.92,1.36,8.96c0,4.14-.47,7.25-1.4,9.32s-2.33,3.1-4.19,3.09c-1.84,0-3.23-1.06-4.17-3.18-.94-2.12-1.42-5.21-1.42-9.27,0-3.78.43-6.7,1.28-8.76S118.51,0,120.51,0l.11.03ZM122.75,20.12V4.1c.04-.89-.18-1.78-.64-2.54-.33-.58-.94-.95-1.61-.96-.67.02-1.27.42-1.55,1.03-.45.86-.66,1.82-.61,2.78v15.71c-.04.92.18,1.84.63,2.65.33.61.96,1,1.66,1,.65-.03,1.24-.41,1.52-1,.43-.81.64-1.73.6-2.65Z"/><path class="b" d="M148.41,14.38h-1.6v7.22c-.47.84-1.17,1.53-2.03,1.98-.87.48-1.85.74-2.85.74-1.91,0-3.36-1-4.37-3.01-1.01-2.01-1.51-4.91-1.51-8.69,0-4.38.43-7.57,1.3-9.57.87-2,2.25-3,4.14-3,1.14-.07,2.25.44,2.94,1.35.32-.3.57-.66.75-1.06h.56v5.74h-.56c-.79-3.68-1.91-5.51-3.35-5.52-.72-.02-1.4.36-1.77.98-.47.86-.69,1.84-.64,2.82v15.85c-.04.9.19,1.8.65,2.58.35.63,1.02,1.02,1.75,1.02.58,0,1.12-.33,1.39-.84.39-.67.58-1.43.54-2.21v-6.38h-1.6v-.58h6.26v.58Z"/><path class="b" d="M162.9.03c1.87,0,3.26.97,4.16,2.9.91,1.93,1.36,4.92,1.36,8.96,0,4.14-.47,7.25-1.4,9.32s-2.33,3.1-4.19,3.09c-1.83,0-3.22-1.06-4.17-3.18s-1.42-5.21-1.42-9.27c0-3.78.43-6.7,1.28-8.76C159.36,1.03,160.79,0,162.79,0l.11.03ZM165.03,20.12V4.1c.04-.89-.18-1.78-.64-2.54-.33-.58-.94-.95-1.6-.96-.67.02-1.27.42-1.56,1.03-.45.86-.66,1.82-.61,2.78v15.71c-.05.92.16,1.84.61,2.65.32.61.96,1,1.65,1.01.66-.02,1.26-.41,1.54-1.01.44-.81.64-1.73.6-2.65Z"/><path class="b" d="M187.3,6.83c-.28-2.04-.78-3.59-1.49-4.65s-1.56-1.58-2.53-1.58c-.65,0-1.25.32-1.62.86-.46.65-.69,1.44-.66,2.24,0,1.01.22,2,.68,2.9.71,1.24,1.57,2.38,2.57,3.41,1.44,1.48,2.69,3.13,3.72,4.92.67,1.24,1.04,2.62,1.05,4.03.04,1.41-.47,2.79-1.43,3.83-.95,1.02-2.28,1.53-3.97,1.53-1.02-.03-2-.41-2.76-1.09-.2-.22-.46-.37-.75-.44-.63,0-.98.44-1.05,1.32h-.55v-7.43h.55c.26,2.29.84,4.04,1.71,5.27.88,1.22,1.84,1.84,2.88,1.84.75.04,1.48-.28,1.97-.86.5-.71.74-1.57.69-2.44-.01-1.21-.33-2.39-.92-3.44-.87-1.49-1.93-2.86-3.14-4.08-1.12-1.14-2.1-2.41-2.9-3.8-.57-1-.87-2.14-.89-3.29,0-1.86.46-3.29,1.37-4.31.86-1,2.13-1.55,3.44-1.52.9.04,1.77.33,2.52.84.26.2.56.34.88.4.44,0,.67-.27.67-.82v-.13h.56v6.51h-.59Z"/><path class="b" d="M209.01,5.55h-.55c-.19-1.59-.56-2.77-1.12-3.53-.54-.75-1.42-1.18-2.34-1.14h-2.28v10.23h1.6c.65.02,1.27-.23,1.72-.69.44-.47.67-1.09.65-1.73v-.93h.56v7.61h-.53v-.22c.04-.88-.18-1.76-.64-2.51-.37-.58-1.02-.92-1.7-.91h-1.66v11.78h1.82v.56h-6.54v-.59h1.63V.89h-1.61V.32h11l-.02,5.23Z"/><path class="b" d="M223.97.03c1.87,0,3.26.97,4.16,2.9.9,1.93,1.36,4.92,1.36,8.96s-.47,7.25-1.4,9.32c-.93,2.07-2.33,3.1-4.19,3.09-1.83,0-3.22-1.06-4.17-3.18s-1.42-5.21-1.42-9.27c0-3.78.43-6.7,1.28-8.76C220.43,1.03,221.86,0,223.86,0l.11.03ZM226.11,20.12V4.1c.04-.89-.18-1.78-.64-2.54-.33-.58-.94-.95-1.6-.96-.67.02-1.27.42-1.56,1.03-.45.86-.66,1.82-.61,2.78v15.71c-.04.92.18,1.84.63,2.65.32.61.96,1,1.65,1.01.66-.03,1.25-.42,1.53-1.01.43-.81.65-1.73.61-2.65Z"/><path class="b" d="M252.26,21.82c-.26,1.62-1.04,2.42-2.35,2.42-.87.03-1.69-.41-2.16-1.14-.52-.76-.78-1.87-.77-3.34v-6.14c.04-.56-.12-1.11-.44-1.57-.33-.37-.82-.57-1.32-.53h-1.53v11.97h1.6v.56h-6.3v-.56h1.6V.89h-1.6V.32h6.87c1.27-.08,2.5.45,3.32,1.43.77.95,1.16,2.3,1.16,4.02s-.28,2.96-.85,3.76c-.65.86-1.59,1.45-2.65,1.65v.11h.29c.84-.01,1.64.39,2.13,1.08.58.85.86,1.87.8,2.89v6.37c0,.81.24,1.22.71,1.22s.81-.38.93-1.15l.56.11ZM246.99,8.61V3.91c.05-.78-.11-1.57-.47-2.26-.3-.5-.85-.79-1.43-.76h-1.42v10.08h1.49c.52.01,1.02-.23,1.32-.66.35-.49.53-1.09.5-1.69Z"/><path class="b" d="M271.72,24.06h-11.11v-.56h1.6V.89h-1.6V.32h11v5.23h-.56c-.19-1.59-.57-2.77-1.12-3.53-.54-.75-1.42-1.18-2.34-1.14h-2.28v10.23h1.57c1.3.04,2.38-.98,2.42-2.28,0-.05,0-.1,0-.14v-.93h.56v7.61h-.53v-.22c.04-.88-.18-1.76-.64-2.51-.37-.58-1.02-.92-1.7-.91h-1.68v11.78h1.85c1.07.06,2.08-.47,2.65-1.37.59-.91,1.04-2.33,1.37-4.26h.55v6.17Z"/><path class="b" d="M294.61.89h-.38c-.81,0-1.22.32-1.22.97v22.21h-2.48l-7.34-20.67h-.07v18c0,1.41.47,2.11,1.42,2.11h.82v.56h-4.51v-.56c.45.05.89-.07,1.25-.34.27-.36.4-.82.35-1.27V.89h-1.6V.32h4.59l6.82,19.35h.06V2.46c0-1.07-.53-1.6-1.57-1.6h-.64V.32h4.52l-.02.56Z"/><path class="b" d="M312.96,6.83c-.28-2.04-.78-3.59-1.49-4.65s-1.56-1.58-2.53-1.58c-.64,0-1.25.32-1.61.86-.46.65-.69,1.44-.66,2.24-.01,1,.21,2,.66,2.9.71,1.24,1.57,2.38,2.57,3.41,1.44,1.48,2.68,3.13,3.72,4.92.67,1.24,1.04,2.62,1.05,4.03.04,1.41-.47,2.79-1.42,3.83-.95,1.02-2.28,1.53-3.97,1.53-1.02-.03-2-.41-2.76-1.09-.2-.21-.46-.37-.75-.44-.63,0-.99.44-1.06,1.32h-.54v-7.43h.54c.27,2.29.85,4.04,1.73,5.27.88,1.23,1.84,1.84,2.88,1.84.75.04,1.48-.28,1.96-.86.51-.71.75-1.57.69-2.44-.01-1.21-.33-2.39-.92-3.44-.87-1.49-1.93-2.86-3.14-4.08-1.12-1.14-2.1-2.41-2.91-3.8-.56-1-.87-2.14-.88-3.29,0-1.86.46-3.29,1.37-4.31.86-1,2.13-1.55,3.44-1.52.9.04,1.77.33,2.51.84.26.2.56.34.88.4.45,0,.68-.27.68-.82v-.13h.56v6.51h-.61Z"/><path class="b" d="M334.78,24.06h-11.12v-.56h1.6V.89h-1.6V.32h11.03v5.23h-.56c-.19-1.59-.57-2.77-1.12-3.53-.54-.75-1.42-1.18-2.34-1.14h-2.28v10.23h1.57c1.3.04,2.38-.98,2.42-2.28,0-.05,0-.1,0-.14v-.93h.55v7.61h-.53v-.22c.04-.88-.18-1.76-.65-2.51-.37-.58-1.02-.93-1.7-.91h-1.68v11.78h1.86c1.07.06,2.08-.47,2.65-1.37.59-.91,1.04-2.33,1.37-4.26h.55v6.17Z"/><path class="b" d="M353.37,6.83c-.28-2.04-.78-3.59-1.5-4.65s-1.56-1.58-2.53-1.58c-.65,0-1.26.32-1.62.86-.47.65-.7,1.44-.67,2.24,0,1,.22,2,.67,2.9.71,1.24,1.57,2.38,2.57,3.41,1.44,1.48,2.69,3.13,3.72,4.92.68,1.24,1.04,2.62,1.06,4.03.05,1.41-.45,2.78-1.39,3.83-.95,1.02-2.28,1.53-3.97,1.53-1.03-.02-2.01-.41-2.78-1.09-.2-.21-.46-.37-.75-.44-.63,0-.98.44-1.05,1.32h-.55v-7.43h.55c.27,2.29.84,4.04,1.71,5.27.88,1.23,1.84,1.84,2.88,1.84.75.04,1.48-.28,1.97-.86.5-.71.75-1.57.69-2.44,0-1.21-.32-2.39-.9-3.44-.87-1.49-1.93-2.86-3.14-4.08-1.12-1.14-2.1-2.41-2.9-3.8-.56-1-.87-2.14-.88-3.29,0-1.86.45-3.29,1.36-4.31.86-.99,2.13-1.55,3.44-1.52.9.04,1.77.33,2.52.84.26.2.56.34.88.4.45,0,.68-.27.68-.82v-.13h.56v6.51h-.61Z"/></svg>