<?xml version="1.0" encoding="UTF-8"?><svg id="a" xmlns="http://www.w3.org/2000/svg" viewBox="0 0 237.99 113.07"><defs><style>.b{fill:#d8d8d8;}</style></defs><path class="b" d="M237.99,92.39v20.68H.82c-.61-.33-.62-.79-.67-1.42-.49-6.01.39-12.65,0-18.72-.03-.75.6-.91,1.22-.98h235.42s1.2.44,1.2.44ZM35.57,95.76c-9.44.66-8.64,14.46,1.25,13.79,9.34-.63,8.62-14.49-1.25-13.79ZM115.51,95.76c-9.33.65-8.63,14.46,1.25,13.79,9.42-.63,8.62-14.48-1.25-13.79ZM135.59,98.99c.78-2.34,1.03-2.39-1.53-2.98s-6.21-.34-7.47,2.24c-1.2,2.45.08,4.17,2.4,5.02,1.3.48,5.33.8,5.06,2.64-.32,2.24-5.92,1.03-7.27.12-1.17,2.27-.67,2.52,1.61,3.11,2.61.68,7.4.63,8.34-2.52.67-2.24-.35-3.7-2.41-4.51-1.18-.46-7.22-1.12-4.84-3.51,1.14-1.14,4.74-.3,6.1.38ZM192.58,95.76c-6.49.45-9.1,8.4-3.9,12.35,2.9,2.2,7.46,1.92,9.89-.86-.37-.25-1.38-1.58-1.68-1.63-.18-.03-1.83,1.45-3.28,1.53-6.06.34-6.35-8.9-.41-9,1.62-.03,3.49,1.53,3.69,1.5.3-.05,1.3-1.38,1.68-1.63-1.42-1.69-3.83-2.4-5.98-2.25ZM207.55,95.76c-9.77.69-8.54,14.6,1.25,13.79,9.28-.77,8.45-14.47-1.25-13.79ZM228.3,96.8c-2.3-.96-4.72-1.47-7.17-.68-3.45,1.12-4.3,5.36-.75,6.94,1.37.61,5.71.95,5.71,2.64,0,2.43-5.8,1.39-7.12.35-.35.08-1.11,2.03-1.01,2.17,2.65,1.19,5.9,1.99,8.67.64s3.24-5.03.36-6.46c-1.31-.65-7.9-1.29-5.52-3.75,1.09-1.12,4.56-.46,5.83.33l1.01-2.19ZM10.29,95.91v13.42h2.64v-7.92c.51-.12.36.09.5.28,1.3,1.67,2.26,4.14,3.57,5.88.47.4,1.24.34,1.66-.09.9-.92,2.33-4.07,3.2-5.38.21-.31.38-.77.75-.9v8.14h2.64v-13.42l-2.39.04-4.56,7.87-.64.46-4.85-8.14c-.57-.48-1.78-.12-2.53-.22ZM47.06,95.91v13.42h2.64v-7.92c1.65,1.8,2.78,4.22,4,6.34.51.07,1.19.18,1.61-.18,1.33-1.87,2.3-4.23,3.58-6.09.13-.2-.04-.4.49-.29v8.14h2.64v-13.42c-.71.1-2.01-.25-2.54.22-1.6,2.38-2.87,5.52-4.55,7.78-.14.18-.21.44-.51.36-.47-.11-4.26-7.4-5-8.31l-2.38-.05ZM76.35,95.91h-9.91v13.42h10.35v-2.42h-7.49v-3.3h6.39v-2.2h-6.39v-3.08h7.05v-2.42ZM89.78,104.05l-.77-.44-6.15-7.49c-.74-.42-1.72-.13-2.54-.21v13.42h2.86v-8.14c.37-.08.45.12.66.33,2.19,2.25,4.02,5.34,6.27,7.6.74.43,1.71.13,2.54.21v-13.42h-2.86v8.14ZM106.96,95.91h-11.45v2.42h4.18v11h3.08v-11h4.18v-2.42ZM149.46,95.91h-2.86v8.91c0,.2.55,1.65.7,1.94,2,3.9,9.14,3.69,10.79-.36.18-.44.62-1.86.62-2.24v-8.25h-2.86v8.03c0,.07-.32,1.2-.39,1.37-.94,2.31-4.35,2.42-5.53.36-.09-.15-.47-1.21-.47-1.29v-8.47ZM162.89,95.91v13.42h2.86v-8.14l.62.37,6.21,7.66,2.42.11v-13.42h-2.86v8.36l-6.7-8.16c-.7-.43-1.74-.12-2.55-.2ZM182.49,95.91h-3.08v13.42h3.08v-13.42Z"/><rect class="b" x="202.09" y="15.18" width="35.89" height="10.34"/><rect class="b" x="202.09" y="42.9" width="35.89" height="10.34"/><rect class="b" x="202.09" y="68.86" width="35.89" height="10.34"/><path class="b" d="M102.78,18.48v10.34c-8.74-.1-16.87,5.81-19.44,14.13-4.58,14.87,8.13,28.91,23.41,26.02,7.21-1.36,13.84-7.46,15.41-14.64h-19.6v-10.34h26.98c1.12,0,3.07,2.1,3.46,3.14,1.45,3.85-1.2,12.51-3.09,16.14-10.11,19.41-37.42,22.22-51.12,5.02-16.16-20.3-1.58-49.81,24-49.82Z"/><path class="b" d="M194.38,15.18v40.16c-1.8,23.11-30.78,33.12-46.25,15.4-2.68-3.07-6.38-10-6.38-14.08V15.4h10.35v40.37c0,1.86,2.06,5.82,3.21,7.35,6.91,9.18,21.33,8.05,26.77-2.03.66-1.23,1.94-4.44,1.94-5.76V15.18h10.35Z"/><path class="b" d="M11.83,58.52v20.68H1.48v-26.95c0-1.65,2.59-3.7,4.17-3.97,7-1.2,18.74,1.94,24.62-2.03,5.93-4.01,6.54-12.75,1.16-17.54-1.07-.95-4.23-2.75-5.62-2.75H.16v-10.34h26.76c1.73,0,5.93,1.71,7.52,2.6,14.62,8.16,14.74,29.39.08,37.55-1.91,1.07-6.13,2.75-8.26,2.75h-14.42Z"/><rect class="b" x="53.23" y="15.18" width="10.35" height="64.02"/><polygon class="b" points="234.68 0 225.32 9.46 213.98 9.46 223.34 0 234.68 0"/><path class="b" d="M156.01,1.15c3.32-.68,6.24,1.17,6.24,4.68,0,6.64-10.16,6.1-9.71-.45.12-1.76,1.73-3.87,3.47-4.23Z"/><path class="b" d="M172.88,9.16c-.42-.41-.96-1.31-1.08-1.89-1.64-7.71,9.81-8.34,9.6-1.23-.13,4.34-5.66,5.98-8.52,3.12Z"/><path class="b" d="M36.01,98.16c5.82-.32,6.07,8.99.15,8.99-5.5,0-5.95-8.67-.15-8.99Z"/><path class="b" d="M205.03,105.96c-2.02-1.88-1.58-6.04,1.01-7.31,3.6-1.77,7.12,1.3,6.3,5.2-.68,3.26-4.97,4.29-7.31,2.11Z"/><path class="b" d="M115.95,98.16c5.85-.32,6.06,8.99.15,8.99-5.5,0-5.95-8.67-.15-8.99Z"/></svg>