<?xml version="1.0" encoding="UTF-8"?><svg id="a" xmlns="http://www.w3.org/2000/svg" viewBox="0 0 341.36 35.04"><defs><style>.b{fill-rule:evenodd;}.b,.c{fill:#d8d8d8;}</style></defs><path class="c" d="M28.66,31.48c-2.31,1.11-4.44,1.94-6.38,2.5-1.94.55-3.79.83-5.55.83-4.9,0-8.88-1.57-12.02-4.81C1.57,26.77,0,22.7,0,17.61S1.57,8.46,4.72,5.23C7.86,1.99,11.93.32,16.83.32c1.85,0,3.7.28,5.46.74,1.76.46,3.42,1.2,4.99,2.03l-.28,4.07c-1.85-1.2-3.61-2.13-5.27-2.68-1.66-.55-3.33-.83-4.9-.83-3.7,0-6.84,1.29-9.25,3.98-2.5,2.68-3.7,6.01-3.7,9.99s1.2,7.3,3.51,9.8c2.31,2.5,5.36,3.79,9.15,3.79,1.29,0,2.68-.18,3.98-.55,1.39-.37,2.77-.92,4.25-1.57v-8.32h-9.62v-3.33h13.5v14.05Z"/><path class="c" d="M34.86,33.7V1.53h6.84c4.53,0,7.95.83,10.26,2.4s3.51,3.88,3.51,6.93c0,2.31-.74,4.35-2.31,6.01-1.57,1.66-3.61,2.68-6.1,3.14l11.74,13.78h-4.81l-11.37-13.31h-4.07v13.22h-3.7ZM38.65,17.52h3.24c3.14,0,5.55-.55,7.21-1.66,1.66-1.11,2.5-2.77,2.5-4.9s-.83-3.79-2.5-4.81c-1.57-1.02-4.25-1.57-7.86-1.57h-2.59v12.94Z"/><path class="c" d="M66.11,1.53v18.86c0,3.61.74,6.29,2.31,8.14,1.48,1.85,3.79,2.77,6.75,2.77s5.18-.92,6.66-2.77,2.31-4.62,2.31-8.23V1.53h3.42v19.32c0,4.35-1.11,7.77-3.33,10.26-2.22,2.5-5.27,3.7-9.06,3.7-4.07,0-7.3-1.2-9.52-3.61-2.22-2.4-3.33-5.82-3.33-10.26V1.53s3.79,0,3.79,0Z"/><path class="c" d="M94.96,33.7V1.53h6.84c2.59,0,4.53.18,6.1.55,1.48.37,2.87.92,3.98,1.76,1.2.83,2.13,1.94,2.77,3.14.65,1.29,1.02,2.59,1.02,4.07,0,3.24-1.2,5.73-3.61,7.49-2.4,1.76-5.73,2.68-10.08,2.68h-3.14v12.57h-3.88v-.09ZM98.75,17.98h3.24c3.14,0,5.55-.55,7.21-1.76s2.5-2.87,2.5-5.09-.83-3.88-2.5-4.99c-1.66-1.02-4.25-1.57-7.86-1.57h-2.59v13.41Z"/><path class="c" d="M117.79,17.61c0-2.4.37-4.62,1.2-6.75.74-2.03,1.94-3.98,3.42-5.55,1.48-1.57,3.14-2.77,5.09-3.61s3.98-1.29,6.1-1.29,4.07.46,6.01,1.29,3.61,2.03,5.09,3.61c1.48,1.66,2.68,3.51,3.42,5.55.74,2.13,1.2,4.35,1.2,6.66,0,2.03-.28,3.88-.83,5.73-.55,1.76-1.39,3.42-2.4,4.9-1.48,2.03-3.33,3.7-5.55,4.9s-4.53,1.76-7.03,1.76c-2.13,0-4.07-.46-6.01-1.29s-3.61-2.03-5.09-3.61c-1.57-1.66-2.68-3.51-3.51-5.55-.74-2.13-1.11-4.35-1.11-6.75M121.68,17.61c0,3.88,1.11,7.12,3.42,9.71s5.09,3.88,8.51,3.88,6.19-1.29,8.41-3.88c2.31-2.59,3.42-5.82,3.42-9.71s-1.11-7.12-3.42-9.71-5.09-3.88-8.41-3.88-6.19,1.29-8.51,3.88-3.42,5.82-3.42,9.71"/><polygon class="c" points="161.43 16.14 180.2 33.7 182.24 33.7 182.24 1.53 175.12 1.53 175.12 19.28 155.79 1.16 154.31 1.16 154.31 33.7 161.43 33.7 161.43 16.14"/><polygon class="c" points="161.43 16.14 180.2 33.7 182.24 33.7 182.24 1.53 175.12 1.53 175.12 19.28 155.79 1.16 154.31 1.16 154.31 33.7 161.43 33.7 161.43 16.14"/><path class="c" d="M201.65,1.16l-16.09,32.55h7.77l2.13-4.72h13.04l2.03,4.72h8.04L202.85,1.16h-1.2ZM197.49,23.62l4.44-10.36,4.35,10.36h-8.78Z"/><path class="c" d="M201.65,1.16l-16.09,32.55h7.77l2.13-4.72h13.04l2.03,4.72h8.04L202.85,1.16h-1.2ZM197.49,23.62l4.44-10.36,4.35,10.36h-8.78Z"/><rect class="c" x="222.09" y="1.53" width="7.67" height="32.27"/><rect class="c" x="222.09" y="1.53" width="7.67" height="32.27"/><polygon class="c" points="271.09 33.7 271.09 8.18 260.92 8.18 260.92 1.53 289.03 1.53 289.03 8.18 278.86 8.18 278.86 33.7 271.09 33.7"/><polygon class="c" points="271.09 33.7 271.09 8.18 260.92 8.18 260.92 1.53 289.03 1.53 289.03 8.18 278.86 8.18 278.86 33.7 271.09 33.7"/><polygon class="c" points="323.51 33.7 323.51 8.18 313.25 8.18 313.25 1.53 341.36 1.53 341.36 8.18 331.19 8.18 331.19 33.7 323.51 33.7"/><polygon class="c" points="323.51 33.7 323.51 8.18 313.25 8.18 313.25 1.53 341.36 1.53 341.36 8.18 331.19 8.18 331.19 33.7 323.51 33.7"/><path class="c" d="M300.68,1.16l-16.09,32.55h7.77l2.13-4.72h13.04l2.03,4.72h8.04l-15.72-32.55s-1.2,0-1.2,0ZM296.51,23.62l4.44-10.36,4.35,10.36h-8.78Z"/><path class="c" d="M300.68,1.16l-16.09,32.55h7.77l2.13-4.72h13.04l2.03,4.72h8.04l-15.72-32.55s-1.2,0-1.2,0ZM296.51,23.62l4.44-10.36,4.35,10.36h-8.78Z"/><path class="b" d="M233.18,27.51c1.94-1.48,3.88-2.96,5.82-4.44.74.74,1.48,1.57,2.22,2.22,1.94,1.76,4.16,2.31,6.66,1.94,1.76-.28,2.59-1.57,2.13-3.14-.18-.65-.65-1.02-1.2-1.29-1.66-.83-3.33-1.57-5.09-2.31-2.03-.92-3.98-1.94-5.73-3.33-4.25-3.42-4.25-8.78-2.03-12.3,1.29-1.94,3.05-3.24,5.27-3.98,3.61-1.2,7.12-1.2,10.63.18,2.5,1.02,4.72,3.14,6.01,5.82-.09.09-.18.09-.18.18-1.85,1.39-3.7,2.87-5.55,4.25-.55-.65-1.11-1.39-1.76-1.94-1.48-1.48-3.33-1.85-5.36-1.39-.74.18-1.39.65-1.48,1.48-.18.92.09,1.76.92,2.13,1.39.74,2.77,1.39,4.16,1.94,2.22.92,4.44,1.85,6.47,3.33,3.42,2.5,4.44,5.82,3.61,9.8s-3.51,6.38-7.21,7.58c-4.35,1.29-8.69,1.02-12.67-1.11-2.4-1.2-4.35-3.14-5.64-5.64"/></svg>