<?xml version="1.0" encoding="UTF-8"?><svg id="a" xmlns="http://www.w3.org/2000/svg" viewBox="0 0 298.64 98.75"><defs><style>.b{fill:#d8d8d8;}</style></defs><polygon class="b" points="111.4 86.81 0 86.81 21.48 61.68 32.77 48.48 39.89 51.64 24.34 70.4 16.97 79.3 94.8 79.3 81.65 64.76 63.24 44.41 40.48 19.25 40.12 39.07 32.77 37.37 32.77 0 33.56 0 76.03 47.36 88.18 60.91 111.4 86.81"/><polygon class="b" points="81.65 64.76 56.92 79.3 24.19 79.3 24.34 70.4 39.89 51.64 32.77 48.48 21.48 61.68 0 29.81 32.77 37.37 40.12 39.07 63.24 44.41 81.65 64.76"/><polyline class="b" points="44.15 86.81 23.85 98.75 24.06 86.81"/><polyline class="b" points="76.03 47.36 101.31 53.2 88.18 60.91"/><path class="b" d="M135.47,46.42c0,1.15-.2,2.29-.6,3.42-.4,1.13-1,2.15-1.81,3.06s-1.83,1.64-3.07,2.19c-1.24.56-2.69.83-4.34.83h-5.99c-.51,0-1.08.01-1.73.04-.64.03-1.27.06-1.87.1-.04-.2-.06-.35-.06-.47,0-.27.11-.43.32-.47.72-.18,1.24-.34,1.55-.5s.47-.41.47-.76v-14.88c0-.39-.15-.66-.44-.82-.29-.16-.82-.3-1.58-.44-.12-.02-.2-.08-.25-.17-.05-.1-.07-.2-.07-.32s.02-.27.06-.47c.41.04.76.06,1.07.07.3,0,.59.02.86.04s.54.03.8.03h6.83c1.64,0,3.07.25,4.31.76,1.24.51,2.27,1.19,3.09,2.05s1.43,1.86,1.84,3.01c.41,1.15.61,2.38.61,3.68ZM132.4,46.98c0-3-.75-5.23-2.24-6.68-1.49-1.45-3.67-2.18-6.54-2.18h-2.54v15.56c0,.2.05.36.15.5.1.14.26.24.5.32s.56.14.97.18c.41.04.93.06,1.55.06,1.5,0,2.77-.18,3.8-.54,1.03-.36,1.87-.88,2.52-1.55.64-.67,1.11-1.49,1.4-2.44.29-.96.44-2.03.44-3.22Z"/><path class="b" d="M143.25,38.12v7.49h4.56c.39,0,.67-.19.83-.57.17-.38.3-.84.39-1.39.06-.25.23-.38.53-.38.06,0,.14.01.23.03.1.02.17.04.23.06-.04.43-.07.92-.1,1.46s-.04,1.02-.04,1.43c0,.33,0,.74.03,1.21.02.48.06,1.02.12,1.62-.16.04-.3.06-.44.06-.31,0-.5-.13-.56-.38-.1-.55-.23-1.01-.39-1.39-.17-.38-.44-.57-.83-.57h-4.56v6.9c0,.41.26.68.79.82.53.14,1.39.2,2.6.2h1.61c.56,0,1.06-.08,1.48-.25s.79-.39,1.11-.67.61-.62.86-1.01c.25-.39.5-.82.73-1.29.06-.14.2-.2.44-.2.1,0,.2.03.31.09.11.06.21.12.31.17-.17.37-.33.81-.45,1.33-.13.52-.25,1.01-.37,1.48-.12.47-.24.87-.37,1.2s-.29.5-.48.5c-.16,0-.38-.01-.67-.03-.29-.02-.61-.03-.95-.04-.34,0-.69-.02-1.04-.04-.35-.02-.65-.03-.91-.03h-6.4c-.57,0-1.17.01-1.81.04-.64.03-1.26.06-1.84.1-.04-.2-.06-.35-.06-.47,0-.27.1-.43.29-.47.74-.14,1.27-.28,1.59-.44.32-.16.48-.43.48-.82v-14.88c0-.39-.14-.66-.42-.8-.28-.15-.83-.3-1.65-.45-.19-.04-.29-.2-.29-.5,0-.1,0-.18.01-.25,0-.07.02-.14.04-.22.84.06,1.54.1,2.11.12.57.02,1.07.03,1.52.03h5.76c.88,0,1.64-.03,2.28-.09.64-.06,1.07-.09,1.29-.09.25,0,.42.16.51.48.09.32.16.71.22,1.16.06.45.13.93.2,1.43.08.51.22.94.44,1.29-.16.12-.33.17-.53.17-.25,0-.42-.09-.5-.26-.23-.51-.46-.94-.67-1.3-.22-.36-.46-.66-.75-.89-.28-.23-.62-.41-1.02-.53-.4-.12-.89-.18-1.48-.18h-4.33Z"/><path class="b" d="M160.94,53.82c0,.33.15.57.44.7.29.14.69.2,1.2.2h3.19c.57,0,1.05-.07,1.46-.22.41-.15.76-.36,1.05-.63.29-.27.55-.61.77-1.01.22-.4.42-.85.6-1.36.06-.16.18-.23.35-.23.1,0,.2.02.31.07.11.05.22.1.34.16-.14.59-.27,1.2-.4,1.86-.13.65-.24,1.39-.34,2.21-.02.21-.08.35-.18.41s-.21.09-.35.09c-.33,0-.75-.02-1.24-.07s-.93-.07-1.3-.07h-7.31c-.45,0-1.01.01-1.7.04s-1.34.06-1.96.1c-.04-.2-.06-.35-.06-.47,0-.27.1-.43.29-.47.8-.14,1.35-.29,1.64-.45s.44-.42.44-.78v-14.91c0-.39-.14-.67-.41-.83-.27-.17-.8-.31-1.58-.42-.1-.02-.17-.07-.22-.16-.05-.09-.07-.19-.07-.31,0-.14.02-.3.06-.5.66.04,1.32.07,1.96.1.64.03,1.19.04,1.64.04.66,0,1.36-.01,2.11-.04.74-.03,1.4-.06,1.99-.1.04.2.06.35.06.47,0,.33-.11.51-.32.53-.84.1-1.46.24-1.86.42-.4.19-.6.52-.6,1.01v14.62Z"/><path class="b" d="M183.4,53.82c0,.33.15.57.44.7.29.14.69.2,1.2.2h3.19c.57,0,1.05-.07,1.46-.22.41-.15.76-.36,1.05-.63.29-.27.55-.61.77-1.01.22-.4.42-.85.6-1.36.06-.16.18-.23.35-.23.1,0,.2.02.31.07.11.05.22.1.34.16-.14.59-.27,1.2-.4,1.86-.13.65-.24,1.39-.34,2.21-.02.21-.08.35-.18.41s-.21.09-.35.09c-.33,0-.75-.02-1.24-.07s-.93-.07-1.3-.07h-7.31c-.45,0-1.01.01-1.7.04s-1.34.06-1.96.1c-.04-.2-.06-.35-.06-.47,0-.27.1-.43.29-.47.8-.14,1.35-.29,1.64-.45s.44-.42.44-.78v-14.91c0-.39-.14-.67-.41-.83-.27-.17-.8-.31-1.58-.42-.1-.02-.17-.07-.22-.16-.05-.09-.07-.19-.07-.31,0-.14.02-.3.06-.5.66.04,1.32.07,1.96.1.64.03,1.19.04,1.64.04.66,0,1.36-.01,2.11-.04.74-.03,1.4-.06,1.99-.1.04.2.06.35.06.47,0,.33-.11.51-.32.53-.84.1-1.46.24-1.86.42-.4.19-.6.52-.6,1.01v14.62Z"/><path class="b" d="M199.57,53.88c0,.39.14.66.41.8.27.15.78.3,1.52.45.19.04.29.19.29.47,0,.12-.02.27-.06.47-.6-.04-1.21-.07-1.81-.1s-1.18-.04-1.73-.04-1.11.01-1.74.04c-.63.03-1.23.06-1.8.1-.04-.2-.06-.35-.06-.47,0-.27.1-.43.29-.47.74-.14,1.25-.28,1.52-.44.27-.16.41-.43.41-.82v-14.88c0-.39-.14-.67-.41-.83-.27-.17-.78-.31-1.52-.42-.12-.02-.2-.08-.23-.17-.04-.1-.06-.2-.06-.32s.02-.27.06-.47c.58.04,1.19.07,1.83.1.63.03,1.2.04,1.71.04s1.05-.01,1.68-.04,1.25-.06,1.86-.1c.04.2.06.35.06.47,0,.29-.1.46-.29.5-.74.12-1.25.26-1.52.42-.27.17-.41.44-.41.83v14.88Z"/><path class="b" d="M214.01,38.12v15.62c0,.45.19.77.56.95.37.19.99.33,1.87.42.21,0,.32.16.32.47,0,.14-.02.3-.06.5-.62-.04-1.28-.07-1.97-.1-.69-.03-1.39-.04-2.09-.04s-1.38.01-2.09.04c-.71.03-1.38.06-2,.1-.04-.2-.06-.36-.06-.5,0-.27.1-.43.29-.47.88-.12,1.51-.26,1.9-.44.39-.18.59-.49.59-.94v-15.62h-3.01c-.59,0-1.08.06-1.48.18-.4.12-.75.29-1.04.53s-.55.54-.76.91c-.22.37-.44.8-.67,1.29-.04.1-.1.17-.19.2-.09.04-.17.06-.25.06-.22,0-.4-.06-.56-.17.19-.7.34-1.33.44-1.87s.19-1,.26-1.36c.08-.36.16-.64.25-.83.09-.19.23-.29.42-.29.14,0,.33.01.59.03.25.02.52.04.8.06.28.02.57.04.86.06s.57.03.82.03h9.77c.23,0,.5,0,.79-.03.29-.02.58-.04.88-.06.29-.02.56-.04.8-.06.24-.02.44-.03.6-.03.2,0,.34.1.42.31.09.2.17.49.25.86.08.37.16.83.25,1.37.09.55.24,1.15.45,1.81-.1.04-.19.08-.28.12-.09.04-.19.06-.31.06-.08,0-.17-.02-.26-.06-.1-.04-.17-.11-.2-.2-.22-.49-.43-.92-.64-1.29-.22-.37-.46-.67-.75-.91-.28-.23-.62-.41-1.02-.53-.4-.12-.89-.18-1.48-.18h-3.01Z"/><path class="b" d="M222.82,46.42c0-1.34.24-2.61.73-3.8.49-1.19,1.15-2.23,1.99-3.13.84-.9,1.81-1.61,2.92-2.13,1.11-.53,2.28-.79,3.51-.79,1.7,0,3.18.27,4.44.8,1.27.54,2.31,1.26,3.14,2.16s1.45,1.95,1.86,3.14c.41,1.19.61,2.44.61,3.74,0,1.54-.25,2.92-.76,4.14-.51,1.22-1.2,2.25-2.09,3.1-.89.85-1.93,1.5-3.13,1.95s-2.48.67-3.85.67-2.65-.23-3.8-.7c-1.15-.47-2.14-1.14-2.97-2-.83-.87-1.47-1.9-1.93-3.11-.46-1.21-.69-2.55-.69-4.04ZM232.88,54.88c.92,0,1.75-.18,2.51-.53.76-.35,1.41-.84,1.96-1.46.55-.62.97-1.36,1.27-2.22s.45-1.79.45-2.81c0-1.4-.15-2.71-.44-3.9s-.74-2.24-1.33-3.13-1.34-1.58-2.25-2.09c-.91-.51-1.96-.76-3.17-.76-.8,0-1.56.15-2.29.45-.73.3-1.37.74-1.93,1.32-.56.58-1,1.28-1.33,2.12-.33.84-.5,1.8-.5,2.89,0,1.44.16,2.78.47,4.02.31,1.24.77,2.31,1.36,3.22s1.33,1.61,2.21,2.12c.88.51,1.88.76,3.01.76Z"/><path class="b" d="M252.03,47.39h-2.16v6.43c0,.43.2.72.6.88s1.01.28,1.83.38c.23.04.35.2.35.5,0,.14-.02.3-.06.5-.53-.04-1.16-.07-1.92-.1s-1.49-.04-2.21-.04c-.51,0-1.09.01-1.76.04-.66.03-1.29.06-1.87.1-.04-.2-.06-.35-.06-.47,0-.27.11-.43.32-.47.74-.12,1.26-.26,1.56-.42.3-.17.45-.44.45-.83v-14.88c0-.37-.14-.65-.42-.83-.28-.19-.83-.33-1.65-.42-.2-.02-.29-.19-.29-.5,0-.12.02-.27.06-.47.58.04,1.19.07,1.81.1.62.03,1.22.04,1.78.04h3.95c2.11,0,3.69.46,4.77,1.39,1.07.93,1.61,2.18,1.61,3.76,0,.43-.07.88-.22,1.35-.15.47-.37.93-.67,1.37-.3.45-.69.86-1.17,1.24-.48.38-1.04.69-1.68.92l4.88,6.78c.37.51.78.86,1.23,1.05.45.2.87.34,1.26.44.18.04.26.18.26.41,0,.16-.02.33-.06.53-.45-.04-.99-.07-1.64-.1-.64-.03-1.24-.04-1.78-.04-.41,0-.82-.17-1.24-.53-.42-.35-.81-.8-1.18-1.35l-4.68-6.75ZM251.42,46.19c1.36,0,2.42-.29,3.16-.86.74-.58,1.11-1.58,1.11-3.03,0-.6-.08-1.16-.23-1.67s-.4-.95-.75-1.32c-.34-.37-.79-.66-1.35-.88-.56-.21-1.23-.32-2.03-.32h-1.46v8.07h1.55Z"/><path class="b" d="M274.93,48.97h-6.52l-1.87,4.71c-.1.23-.15.43-.15.59,0,.41.59.7,1.78.88.14.02.23.07.28.16.05.09.07.19.07.31s-.02.27-.06.47c-.53-.04-1.08-.07-1.67-.1-.59-.03-1.16-.04-1.73-.04-.39,0-.79,0-1.2.03-.41.02-.84.06-1.29.12-.04-.16-.06-.31-.06-.47,0-.14.02-.25.07-.35.05-.1.15-.16.31-.18.6-.1,1.06-.22,1.36-.37.3-.15.52-.38.66-.69l7.05-16.96c.14-.33.32-.5.56-.5.08,0,.19.02.35.06l7.08,17.49c.12.27.38.49.79.64.41.16.81.26,1.2.32.12.04.21.09.28.16.07.07.1.19.1.37,0,.12-.02.27-.06.47-.62-.04-1.24-.07-1.84-.1s-1.17-.04-1.7-.04-1.17.01-1.87.04-1.34.06-1.9.1c-.04-.2-.06-.35-.06-.47,0-.18.03-.3.1-.37s.13-.1.19-.1c.51-.1.92-.21,1.23-.34s.47-.32.47-.57c0-.12-.04-.26-.12-.44l-1.84-4.83ZM274.46,47.77l-2.72-7.16-2.84,7.16h5.56Z"/><path class="b" d="M288.93,53.82c0,.33.15.57.44.7.29.14.69.2,1.2.2h3.19c.57,0,1.05-.07,1.46-.22.41-.15.76-.36,1.05-.63.29-.27.55-.61.77-1.01.22-.4.42-.85.6-1.36.06-.16.18-.23.35-.23.1,0,.2.02.31.07.11.05.22.1.34.16-.14.59-.27,1.2-.4,1.86-.13.65-.24,1.39-.34,2.21-.02.21-.08.35-.18.41s-.21.09-.35.09c-.33,0-.75-.02-1.24-.07s-.93-.07-1.3-.07h-7.31c-.45,0-1.01.01-1.7.04s-1.34.06-1.96.1c-.04-.2-.06-.35-.06-.47,0-.27.1-.43.29-.47.8-.14,1.35-.29,1.64-.45s.44-.42.44-.78v-14.91c0-.39-.14-.67-.41-.83-.27-.17-.8-.31-1.58-.42-.1-.02-.17-.07-.22-.16-.05-.09-.07-.19-.07-.31,0-.14.02-.3.06-.5.66.04,1.32.07,1.96.1.64.03,1.19.04,1.64.04.66,0,1.36-.01,2.11-.04.74-.03,1.4-.06,1.99-.1.04.2.06.35.06.47,0,.33-.11.51-.32.53-.84.1-1.46.24-1.86.42-.4.19-.6.52-.6,1.01v14.62Z"/><path class="b" d="M141.4,71c-.65,0-1.2-.09-1.65-.26s-.83-.41-1.11-.71-.5-.65-.63-1.04c-.13-.4-.2-.83-.2-1.28,0-.6.1-1.19.29-1.79s.49-1.13.88-1.6c.39-.47.89-.86,1.48-1.15s1.29-.44,2.09-.44c.41,0,.8.03,1.19.1.38.07.75.16,1.1.27-.02.24-.04.47-.04.7,0,.16,0,.33.02.49.01.16.03.33.04.49-.06.04-.13.06-.22.06-.16,0-.24-.06-.25-.18-.07-.54-.27-.92-.6-1.13-.33-.21-.77-.32-1.31-.32s-1.02.12-1.45.35c-.43.23-.79.55-1.09.95-.3.4-.53.87-.68,1.41-.16.54-.23,1.1-.23,1.7,0,.44.06.84.18,1.2.12.36.28.66.5.91s.47.44.78.58c.31.14.65.21,1.04.21.56,0,1-.11,1.32-.34.32-.23.6-.6.84-1.11.06-.13.16-.2.29-.2.05,0,.1.01.15.03.05.02.09.04.1.06-.12.26-.23.54-.33.83-.09.29-.19.62-.29.98-.18.03-.37.06-.58.09-.2.03-.41.05-.61.08s-.4.04-.58.06c-.18.01-.34.02-.47.02Z"/><path class="b" d="M149.16,65.43c.3,0,.57.05.79.15.22.1.41.25.55.43.14.18.24.4.31.66.07.25.1.53.1.82,0,.59-.09,1.11-.28,1.55s-.43.81-.72,1.1-.62.51-.98.65c-.36.14-.71.22-1.06.22-.29,0-.53-.05-.73-.14s-.36-.22-.49-.39c-.12-.17-.21-.38-.26-.63-.05-.25-.08-.53-.08-.84,0-.54.09-1.03.28-1.47s.42-.82.7-1.13.59-.55.92-.72c.33-.17.65-.25.94-.25ZM148.19,70.53c.25,0,.47-.07.68-.22s.39-.35.54-.61.27-.57.35-.93c.08-.36.12-.75.12-1.17,0-.52-.06-.93-.18-1.23-.12-.3-.34-.45-.65-.45-.27,0-.51.09-.72.27-.21.18-.39.41-.53.7-.14.29-.25.61-.33.96-.07.35-.11.7-.11,1.04,0,.54.06.95.19,1.23s.34.42.65.42Z"/><path class="b" d="M155.66,65.43c.3,0,.57.05.79.15.23.1.41.25.55.43.14.18.24.4.31.66.07.25.1.53.1.82,0,.59-.09,1.11-.28,1.55s-.43.81-.72,1.1c-.29.29-.62.51-.98.65-.36.14-.71.22-1.06.22-.29,0-.53-.05-.73-.14-.2-.09-.36-.22-.49-.39-.12-.17-.21-.38-.26-.63-.05-.25-.08-.53-.08-.84,0-.54.09-1.03.28-1.47.18-.44.42-.82.7-1.13.28-.31.59-.55.92-.72.33-.17.65-.25.94-.25ZM154.69,70.53c.25,0,.47-.07.68-.22.21-.15.39-.35.54-.61s.27-.57.35-.93c.08-.36.12-.75.12-1.17,0-.52-.06-.93-.18-1.23-.12-.3-.34-.45-.65-.45-.27,0-.51.09-.72.27-.21.18-.39.41-.53.7-.14.29-.25.61-.33.96-.07.35-.11.7-.11,1.04,0,.54.06.95.19,1.23s.34.42.65.42Z"/><path class="b" d="M160.35,66.41c0-.08-.03-.12-.1-.12-.03,0-.08.01-.15.04-.07.03-.14.06-.21.09-.07.03-.14.06-.2.09-.06.03-.11.04-.14.04-.05,0-.09-.02-.11-.07-.02-.05-.05-.11-.06-.17.15-.09.32-.19.52-.29.2-.1.39-.2.57-.28.18-.09.35-.16.49-.22s.24-.09.29-.09c.06,0,.11.01.15.04.04.03.06.08.06.17,0,.06,0,.12-.02.18l-.37,1.73h.04c.41-.75.81-1.29,1.22-1.62.4-.34.8-.5,1.2-.5.2,0,.38.04.52.12.14.08.25.19.33.33.08.13.14.29.17.47.03.18.05.35.05.53,0,.65-.11,1.22-.34,1.73-.23.51-.51.94-.84,1.3s-.71.63-1.11.82c-.41.19-.78.28-1.14.28-.11,0-.23,0-.37-.02-.14-.01-.26-.03-.36-.06l-.18.98c-.08.46-.12.8-.12,1.02,0,.12.04.18.13.18.07,0,.17-.01.32-.03s.26-.03.33-.03c.05,0,.08.02.1.07.02.05.04.1.04.16-.38.11-.72.21-1.03.31-.31.1-.61.22-.92.35-.07-.04-.11-.08-.14-.12-.02-.04-.04-.08-.04-.13,0-.04,0-.1.02-.18l1.36-6.93s.01-.08.01-.11v-.07ZM160.58,70.34c.09.05.21.09.36.12.15.03.28.04.38.04.34,0,.64-.08.91-.25.27-.17.5-.4.69-.7.19-.3.34-.65.45-1.05.11-.4.16-.83.16-1.3,0-.37-.05-.62-.16-.77s-.24-.22-.41-.22-.32.07-.5.22-.36.34-.53.58c-.18.24-.34.51-.5.8-.16.3-.3.6-.43.91-.13.31-.23.6-.3.88s-.11.53-.11.73Z"/><path class="b" d="M167.47,68.36c0,.08-.01.16-.02.25,0,.08,0,.17,0,.26,0,.19.02.37.05.55s.09.34.17.48c.08.14.2.25.34.34.14.09.33.13.55.13s.43-.04.66-.12c.23-.08.46-.2.7-.36.08-.06.14-.09.17-.09.07,0,.11.03.13.1.02.07.03.11.03.15-.12.11-.26.23-.42.34-.16.11-.32.22-.5.31s-.37.16-.58.22c-.21.06-.42.09-.64.09-.34,0-.62-.06-.84-.19-.22-.13-.39-.29-.52-.49-.13-.2-.21-.42-.26-.66-.04-.24-.07-.47-.07-.69,0-.43.07-.86.2-1.29.13-.43.32-.81.57-1.14.25-.34.54-.61.9-.81.35-.2.75-.31,1.18-.31.17,0,.34.02.5.07.16.05.31.11.44.2s.23.21.31.36c.08.15.12.32.12.53,0,.3-.08.56-.24.78-.16.22-.38.4-.66.54-.28.14-.62.25-1,.33-.39.07-.81.12-1.27.14ZM167.5,68c.78-.07,1.33-.23,1.66-.48.33-.25.49-.57.49-.96,0-.23-.05-.4-.16-.52-.11-.12-.26-.18-.45-.18s-.38.06-.55.18c-.17.12-.32.28-.45.47s-.25.42-.34.68c-.09.26-.16.53-.2.8Z"/><path class="b" d="M175.82,66.59c-.13,0-.28.06-.45.17s-.34.27-.5.47-.33.42-.49.68c-.16.26-.3.53-.42.82s-.22.59-.29.89c-.07.3-.11.59-.11.87,0,.11.01.23.04.33-.16.02-.33.04-.5.07s-.33.07-.5.11c-.07-.04-.11-.09-.11-.15,0-.05,0-.11.02-.17.02-.07.03-.12.05-.16.02-.04.03-.09.05-.15s.03-.14.05-.25l.54-2.79c.06-.32.09-.54.11-.65.02-.11.03-.2.04-.25,0-.11-.04-.16-.11-.16-.03,0-.08.01-.14.04-.06.02-.13.05-.2.09s-.14.06-.2.09c-.06.02-.11.04-.14.04-.04,0-.08-.02-.1-.07-.03-.05-.05-.11-.07-.17.15-.09.32-.19.52-.29.2-.1.39-.2.58-.28.18-.09.35-.16.49-.22.14-.06.23-.09.28-.09.06,0,.11.01.15.04.04.03.06.08.06.14,0,.02,0,.04,0,.09,0,.04-.01.08-.02.12l-.39,1.84h.05c.44-.79.84-1.36,1.21-1.71.36-.35.72-.53,1.07-.53.07,0,.14.01.2.04.06.02.1.05.13.07-.07.19-.14.38-.2.59s-.1.43-.14.69h-.2c-.08-.15-.2-.22-.36-.22Z"/><path class="b" d="M181.12,68.82h-.05c-.2.4-.41.74-.63,1.02-.21.28-.42.5-.63.68-.21.17-.41.3-.61.37-.2.08-.39.12-.57.12-.12,0-.24-.02-.35-.05s-.21-.1-.29-.19c-.09-.09-.15-.21-.2-.37-.05-.16-.07-.35-.07-.59,0-.7.11-1.31.34-1.86.23-.54.51-1,.84-1.37s.7-.66,1.09-.85c.39-.2.75-.3,1.09-.3.26,0,.51.01.76.04.24.02.51.07.82.14l-.85,4.26c-.02.08-.02.16-.02.22,0,.11.04.16.13.16.06,0,.12-.01.18-.04.06-.03.12-.06.18-.1.06-.04.12-.07.17-.1.05-.03.1-.04.13-.04.08,0,.14.08.17.25-.15.11-.3.21-.46.3-.16.09-.31.18-.46.25s-.29.13-.42.18c-.13.05-.24.07-.32.07-.09,0-.17-.02-.25-.05s-.11-.12-.11-.24c0-.04,0-.09.01-.14,0-.05.02-.11.04-.17l.36-1.59ZM181.56,66.03c-.1-.03-.21-.06-.33-.08-.12-.02-.23-.03-.34-.03-.33,0-.62.09-.88.26s-.49.41-.68.72-.33.68-.44,1.11c-.1.43-.15.89-.15,1.39,0,.29.04.51.11.63.07.13.18.19.31.19.16,0,.34-.07.53-.22.19-.15.37-.34.55-.58.18-.24.35-.51.51-.8s.31-.6.42-.92c.12-.31.21-.61.28-.9s.1-.55.1-.77Z"/><path class="b" d="M186.01,65.37c.07-.31.1-.56.1-.75,0-.11-.01-.22-.04-.33.16-.02.32-.05.49-.07.17-.02.34-.06.52-.11.07.05.1.1.1.15,0,.02,0,.05,0,.1s-.01.09-.02.12l-.21,1.11h1.27c-.02.07-.05.16-.07.27-.02.11-.05.2-.06.29-.2-.04-.41-.06-.63-.08-.21-.02-.41-.03-.6-.04l-.68,3.84c-.02.12-.04.21-.04.26,0,.2.12.3.36.3.12,0,.23-.01.34-.04.1-.03.19-.06.28-.1.07-.03.14-.06.19-.09.05-.03.1-.04.13-.04.09,0,.14.08.16.23-.25.2-.53.35-.83.47-.3.11-.58.17-.84.17-.29,0-.5-.05-.63-.14-.12-.09-.18-.24-.18-.43,0-.09,0-.18.02-.26l.77-4.2h-.9c.02-.14.04-.24.08-.3s.1-.1.19-.1h.7l.04-.21Z"/><path class="b" d="M190.93,69.85s-.02.08-.02.13c0,.05-.01.09-.01.12,0,.1.05.15.15.15.06,0,.12-.01.18-.04.06-.03.12-.06.18-.1.06-.04.12-.07.17-.1.05-.03.09-.04.12-.04.08,0,.14.08.17.25-.14.11-.29.21-.45.3-.16.09-.31.18-.46.25s-.29.13-.42.18c-.13.05-.24.07-.32.07-.09,0-.18-.02-.26-.05-.08-.04-.12-.13-.12-.26,0-.02,0-.07.01-.13,0-.06.02-.1.02-.13.18-.88.32-1.57.43-2.09s.19-.92.24-1.19c.05-.27.09-.46.1-.55.02-.09.02-.14.02-.16,0-.1-.04-.15-.11-.15-.03,0-.08.01-.15.04-.07.03-.13.06-.21.09-.07.03-.14.06-.2.09s-.11.04-.14.04c-.05,0-.09-.02-.11-.07s-.05-.11-.06-.17c.15-.08.32-.17.52-.28.2-.1.39-.2.57-.29s.35-.16.49-.22c.14-.06.24-.09.29-.09.14,0,.21.07.21.21,0,.06,0,.12-.02.18l-.81,4.03ZM191.56,64.11c-.16,0-.28-.05-.37-.14s-.13-.22-.13-.38c0-.22.08-.42.23-.6.15-.18.33-.26.55-.26.16,0,.28.05.35.16.07.11.1.24.1.41,0,.2-.07.39-.21.56-.14.17-.31.25-.52.25Z"/><path class="b" d="M195.6,69.33c-.02.11-.03.2-.04.29,0,.09-.01.16-.01.23,0,.14.02.23.06.28.04.05.11.07.22.07.16,0,.32-.06.5-.17.18-.11.36-.26.53-.45s.34-.4.5-.64c.16-.24.3-.49.42-.75.12-.26.22-.51.29-.75.07-.25.11-.47.11-.68,0-.18-.03-.35-.08-.52s-.15-.32-.29-.46l.14-.2c.23-.02.44-.04.62-.06.18-.02.38-.06.6-.11.03.09.05.19.07.29.01.11.02.2.02.29,0,.23-.06.51-.18.85-.12.34-.28.69-.48,1.06s-.44.74-.71,1.11-.55.7-.85.99-.59.53-.9.71-.59.27-.87.27c-.51,0-.76-.25-.76-.76,0-.1,0-.21.01-.33,0-.12.02-.25.04-.39l.36-2.84s.01-.07.02-.12c0-.05,0-.08,0-.1,0-.14-.05-.21-.15-.21-.05,0-.11.01-.18.04-.07.03-.14.06-.2.09-.07.03-.13.06-.18.09-.06.03-.1.04-.14.04-.08,0-.14-.08-.17-.23.16-.12.33-.24.51-.34.18-.1.34-.19.5-.27.16-.08.31-.14.44-.18.13-.04.23-.07.31-.07.08,0,.16.02.23.06.07.04.1.12.1.24v.14c0,.05,0,.1-.01.15l-.39,3.32Z"/><path class="b" d="M204.16,68.82h-.05c-.2.4-.41.74-.63,1.02-.21.28-.42.5-.63.68-.21.17-.41.3-.61.37-.2.08-.39.12-.57.12-.12,0-.24-.02-.35-.05s-.21-.1-.29-.19c-.09-.09-.15-.21-.2-.37-.05-.16-.07-.35-.07-.59,0-.7.11-1.31.34-1.86.23-.54.51-1,.84-1.37s.7-.66,1.09-.85c.39-.2.75-.3,1.09-.3.26,0,.51.01.76.04.24.02.51.07.82.14l-.85,4.26c-.02.08-.02.16-.02.22,0,.11.04.16.13.16.06,0,.12-.01.18-.04.06-.03.12-.06.18-.1.06-.04.12-.07.17-.1.05-.03.1-.04.13-.04.08,0,.14.08.17.25-.15.11-.3.21-.46.3-.16.09-.31.18-.46.25s-.29.13-.42.18c-.13.05-.24.07-.32.07-.09,0-.17-.02-.25-.05s-.11-.12-.11-.24c0-.04,0-.09.01-.14,0-.05.02-.11.04-.17l.36-1.59ZM204.6,66.03c-.1-.03-.21-.06-.33-.08-.12-.02-.23-.03-.34-.03-.33,0-.62.09-.88.26s-.49.41-.68.72-.33.68-.44,1.11c-.1.43-.15.89-.15,1.39,0,.29.04.51.11.63.07.13.18.19.31.19.16,0,.34-.07.53-.22.19-.15.37-.34.55-.58.18-.24.35-.51.51-.8s.31-.6.42-.92c.12-.31.21-.61.28-.9s.1-.55.1-.77Z"/><path class="b" d="M215.72,64.49c.02-.1.03-.21.05-.33.02-.12.04-.24.05-.35.01-.11.02-.22.03-.32,0-.1.01-.19.01-.25,0-.04,0-.08-.02-.12-.01-.04-.05-.06-.1-.06-.02,0-.07,0-.13.02s-.13.02-.2.04c-.07.01-.14.02-.2.03-.06,0-.1.01-.13.01-.11,0-.16-.09-.16-.26.37-.1.71-.2,1.02-.3.31-.1.62-.22.93-.34.07.04.11.08.12.11s.02.07.02.1c0,.07,0,.14-.02.22l-1.4,7.2s-.02.08-.02.12c0,.04-.01.07-.01.09,0,.1.05.15.15.15.06,0,.12-.01.18-.04.06-.03.12-.06.18-.1s.12-.07.17-.1c.05-.03.1-.04.13-.04.08,0,.14.08.16.25-.14.11-.29.21-.45.3-.16.09-.31.18-.46.25s-.29.13-.42.18c-.13.05-.24.07-.32.07-.09,0-.17-.02-.25-.05s-.11-.13-.11-.26c0-.07.01-.16.04-.28l.37-1.59h-.05c-.38.77-.77,1.33-1.15,1.67-.39.34-.78.52-1.18.52-.12,0-.24-.02-.36-.05-.12-.04-.23-.1-.33-.2-.1-.1-.18-.23-.24-.4-.06-.17-.09-.38-.09-.65,0-.7.1-1.31.31-1.84s.47-.98.79-1.34c.32-.36.67-.63,1.06-.82.39-.18.76-.28,1.12-.28.26,0,.5.01.71.04l.2-.97ZM215.39,66.03c-.1-.03-.22-.06-.36-.08s-.27-.03-.38-.03c-.32,0-.61.09-.86.26-.25.18-.47.42-.64.72-.18.3-.31.66-.41,1.07-.1.41-.15.85-.15,1.31,0,.34.04.59.12.72.08.14.2.21.37.21.16,0,.32-.07.49-.22.17-.15.34-.34.52-.58.17-.24.34-.51.49-.81.16-.3.29-.61.41-.92.12-.31.22-.61.29-.9.07-.29.11-.54.11-.76Z"/><path class="b" d="M219.64,68.36c0,.08-.01.16-.02.25,0,.08,0,.17,0,.26,0,.19.02.37.05.55s.09.34.17.48c.08.14.19.25.34.34s.33.13.55.13.43-.04.66-.12c.23-.08.46-.2.7-.36.08-.06.14-.09.17-.09.07,0,.11.03.13.1.02.07.03.11.03.15-.12.11-.26.23-.42.34-.16.11-.32.22-.5.31s-.37.16-.58.22c-.2.06-.42.09-.64.09-.34,0-.62-.06-.84-.19-.22-.13-.39-.29-.52-.49-.13-.2-.21-.42-.26-.66-.05-.24-.07-.47-.07-.69,0-.43.07-.86.2-1.29.14-.43.33-.81.57-1.14s.54-.61.9-.81.75-.31,1.18-.31c.17,0,.34.02.5.07.16.05.31.11.44.2s.23.21.31.36c.08.15.12.32.12.53,0,.3-.08.56-.24.78-.16.22-.38.4-.66.54-.28.14-.62.25-1,.33s-.81.12-1.27.14ZM219.68,68c.78-.07,1.33-.23,1.66-.48.33-.25.49-.57.49-.96,0-.23-.05-.4-.17-.52-.11-.12-.26-.18-.45-.18s-.38.06-.55.18c-.17.12-.32.28-.45.47s-.25.42-.34.68c-.09.26-.16.53-.2.8Z"/><path class="b" d="M232.15,71c-.65,0-1.2-.09-1.65-.26-.45-.17-.83-.41-1.11-.71-.29-.3-.5-.65-.63-1.04-.13-.4-.2-.83-.2-1.28,0-.6.1-1.19.29-1.79.2-.59.49-1.13.89-1.6.39-.47.89-.86,1.48-1.15s1.29-.44,2.09-.44c.41,0,.8.03,1.19.1.38.07.75.16,1.1.27-.02.24-.04.47-.04.7,0,.16,0,.33.02.49.01.16.03.33.04.49-.06.04-.13.06-.22.06-.16,0-.24-.06-.25-.18-.07-.54-.27-.92-.6-1.13-.33-.21-.77-.32-1.31-.32s-1.02.12-1.45.35c-.43.23-.79.55-1.09.95-.3.4-.53.87-.68,1.41-.16.54-.23,1.1-.23,1.7,0,.44.06.84.18,1.2.12.36.28.66.5.91.21.25.47.44.78.58.31.14.65.21,1.04.21.56,0,1-.11,1.32-.34.32-.23.6-.6.84-1.11.06-.13.16-.2.29-.2.05,0,.1.01.15.03.05.02.09.04.1.06-.12.26-.23.54-.32.83-.09.29-.19.62-.29.98-.18.03-.37.06-.58.09-.2.03-.41.05-.61.08s-.4.04-.58.06c-.18.01-.34.02-.47.02Z"/><path class="b" d="M240.56,66.59c-.13,0-.28.06-.45.17s-.34.27-.5.47-.33.42-.49.68c-.16.26-.3.53-.42.82s-.22.59-.29.89c-.07.3-.11.59-.11.87,0,.11.01.23.04.33-.16.02-.33.04-.5.07s-.33.07-.5.11c-.07-.04-.11-.09-.11-.15,0-.05,0-.11.02-.17.02-.07.03-.12.05-.16.02-.04.03-.09.05-.15s.03-.14.05-.25l.54-2.79c.06-.32.09-.54.11-.65.02-.11.03-.2.04-.25,0-.11-.04-.16-.11-.16-.03,0-.08.01-.14.04-.06.02-.13.05-.2.09s-.14.06-.2.09c-.06.02-.11.04-.14.04-.04,0-.08-.02-.1-.07-.03-.05-.05-.11-.07-.17.15-.09.32-.19.52-.29.2-.1.39-.2.58-.28.18-.09.35-.16.49-.22.14-.06.23-.09.28-.09.06,0,.11.01.15.04.04.03.06.08.06.14,0,.02,0,.04,0,.09,0,.04-.01.08-.02.12l-.39,1.84h.05c.44-.79.84-1.36,1.21-1.71.36-.35.72-.53,1.07-.53.07,0,.14.01.2.04.06.02.1.05.13.07-.07.19-.14.38-.2.59s-.1.43-.14.69h-.2c-.08-.15-.2-.22-.36-.22Z"/><path class="b" d="M243.74,68.36c0,.08-.01.16-.02.25,0,.08,0,.17,0,.26,0,.19.02.37.05.55s.09.34.17.48c.08.14.19.25.34.34s.33.13.55.13.43-.04.66-.12c.23-.08.46-.2.7-.36.08-.06.14-.09.17-.09.07,0,.11.03.13.1.02.07.03.11.03.15-.12.11-.26.23-.42.34-.16.11-.32.22-.5.31s-.37.16-.58.22c-.2.06-.42.09-.64.09-.34,0-.62-.06-.84-.19-.22-.13-.39-.29-.52-.49-.13-.2-.21-.42-.26-.66-.05-.24-.07-.47-.07-.69,0-.43.07-.86.2-1.29.14-.43.33-.81.57-1.14s.54-.61.9-.81.75-.31,1.18-.31c.17,0,.34.02.5.07.16.05.31.11.44.2s.23.21.31.36c.08.15.12.32.12.53,0,.3-.08.56-.24.78-.16.22-.38.4-.66.54-.28.14-.62.25-1,.33s-.81.12-1.27.14ZM243.78,68c.78-.07,1.33-.23,1.66-.48.33-.25.49-.57.49-.96,0-.23-.05-.4-.17-.52-.11-.12-.26-.18-.45-.18s-.38.06-.55.18c-.17.12-.32.28-.45.47s-.25.42-.34.68c-.09.26-.16.53-.2.8ZM246.41,62.71c.21.04.39.11.52.22.14.1.2.21.2.33,0,.13-.09.25-.26.36-.16.1-.31.19-.45.28-.14.09-.27.18-.41.28-.14.09-.28.2-.43.31s-.32.25-.5.39c-.06-.04-.1-.08-.13-.11-.03-.03-.05-.08-.05-.13,0-.05.02-.1.06-.15l1.44-1.77Z"/><path class="b" d="M252.75,64.49c.02-.1.03-.21.05-.33.02-.12.04-.24.05-.35.01-.11.02-.22.03-.32,0-.1.01-.19.01-.25,0-.04,0-.08-.02-.12-.01-.04-.05-.06-.1-.06-.02,0-.07,0-.13.02s-.13.02-.2.04c-.07.01-.14.02-.2.03-.06,0-.1.01-.13.01-.11,0-.16-.09-.16-.26.37-.1.71-.2,1.02-.3.31-.1.62-.22.93-.34.07.04.11.08.12.11s.02.07.02.1c0,.07,0,.14-.02.22l-1.4,7.2s-.02.08-.02.12c0,.04-.01.07-.01.09,0,.1.05.15.15.15.06,0,.12-.01.18-.04.06-.03.12-.06.18-.1s.12-.07.17-.1c.05-.03.1-.04.13-.04.08,0,.14.08.16.25-.14.11-.29.21-.45.3-.16.09-.31.18-.46.25s-.29.13-.42.18c-.13.05-.24.07-.32.07-.09,0-.17-.02-.25-.05s-.11-.13-.11-.26c0-.07.01-.16.04-.28l.37-1.59h-.05c-.38.77-.77,1.33-1.15,1.67-.39.34-.78.52-1.18.52-.12,0-.24-.02-.36-.05-.12-.04-.23-.1-.33-.2-.1-.1-.18-.23-.24-.4-.06-.17-.09-.38-.09-.65,0-.7.1-1.31.31-1.84s.47-.98.79-1.34c.32-.36.67-.63,1.06-.82.39-.18.76-.28,1.12-.28.26,0,.5.01.71.04l.2-.97ZM252.42,66.03c-.1-.03-.22-.06-.36-.08s-.27-.03-.38-.03c-.32,0-.61.09-.86.26-.25.18-.47.42-.64.72-.18.3-.31.66-.41,1.07-.1.41-.15.85-.15,1.31,0,.34.04.59.12.72.08.14.2.21.37.21.16,0,.32-.07.49-.22.17-.15.34-.34.52-.58.17-.24.34-.51.49-.81.16-.3.29-.61.41-.92.12-.31.22-.61.29-.9.07-.29.11-.54.11-.76Z"/><path class="b" d="M256.89,69.85s-.02.08-.02.13c0,.05-.01.09-.01.12,0,.1.05.15.15.15.06,0,.12-.01.18-.04.06-.03.12-.06.18-.1.06-.04.12-.07.17-.1.05-.03.09-.04.12-.04.08,0,.14.08.17.25-.14.11-.29.21-.45.3-.16.09-.31.18-.46.25s-.29.13-.42.18c-.13.05-.24.07-.32.07-.09,0-.18-.02-.26-.05-.08-.04-.12-.13-.12-.26,0-.02,0-.07.01-.13,0-.06.02-.1.02-.13.18-.88.32-1.57.43-2.09s.19-.92.24-1.19c.05-.27.09-.46.1-.55.02-.09.02-.14.02-.16,0-.1-.04-.15-.11-.15-.03,0-.08.01-.15.04-.07.03-.13.06-.21.09-.07.03-.14.06-.2.09s-.11.04-.14.04c-.05,0-.09-.02-.11-.07s-.05-.11-.06-.17c.15-.08.32-.17.52-.28.2-.1.39-.2.57-.29s.35-.16.49-.22c.14-.06.24-.09.29-.09.14,0,.21.07.21.21,0,.06,0,.12-.02.18l-.81,4.03ZM257.52,64.11c-.16,0-.28-.05-.37-.14s-.13-.22-.13-.38c0-.22.08-.42.23-.6.15-.18.33-.26.55-.26.16,0,.28.05.35.16.07.11.1.24.1.41,0,.2-.07.39-.21.56-.14.17-.31.25-.52.25Z"/><path class="b" d="M261.13,65.37c.07-.31.1-.56.1-.75,0-.11-.01-.22-.04-.33.16-.02.32-.05.49-.07.17-.02.34-.06.52-.11.07.05.1.1.1.15,0,.02,0,.05,0,.1s-.01.09-.02.12l-.21,1.11h1.27c-.02.07-.05.16-.07.27-.02.11-.05.2-.06.29-.2-.04-.41-.06-.63-.08-.21-.02-.41-.03-.6-.04l-.68,3.84c-.02.12-.04.21-.04.26,0,.2.12.3.36.3.12,0,.23-.01.34-.04.1-.03.19-.06.28-.1.07-.03.14-.06.19-.09.05-.03.1-.04.13-.04.09,0,.14.08.16.23-.25.2-.53.35-.83.47-.3.11-.58.17-.84.17-.29,0-.5-.05-.63-.14-.12-.09-.18-.24-.18-.43,0-.09,0-.18.02-.26l.77-4.2h-.9c.02-.14.04-.24.08-.3s.1-.1.19-.1h.7l.04-.21Z"/><path class="b" d="M267.59,65.43c.3,0,.57.05.79.15.23.1.41.25.55.43.14.18.24.4.31.66.07.25.1.53.1.82,0,.59-.09,1.11-.28,1.55-.19.44-.43.81-.72,1.1-.29.29-.62.51-.98.65-.36.14-.71.22-1.06.22-.29,0-.53-.05-.73-.14s-.36-.22-.49-.39c-.12-.17-.21-.38-.26-.63-.05-.25-.08-.53-.08-.84,0-.54.09-1.03.28-1.47s.42-.82.7-1.13c.28-.31.59-.55.92-.72.33-.17.64-.25.94-.25ZM266.62,70.53c.25,0,.47-.07.68-.22.21-.15.39-.35.54-.61s.27-.57.35-.93c.08-.36.12-.75.12-1.17,0-.52-.06-.93-.18-1.23-.12-.3-.34-.45-.65-.45-.27,0-.51.09-.72.27-.21.18-.39.41-.53.7-.14.29-.25.61-.33.96-.07.35-.11.7-.11,1.04,0,.54.06.95.19,1.23s.34.42.65.42Z"/></svg>